<svg width="127" height="127" viewBox="0 0 127 127" fill="none" xmlns="http://www.w3.org/2000/svg">
<mask id="mask0_262_25995" style="mask-type:luminance" maskUnits="userSpaceOnUse" x="0" y="0" width="127" height="127">
<path d="M0 0H126.988V126.988H0V0Z" fill="white"/>
</mask>
<g mask="url(#mask0_262_25995)">
<path d="M126.821 79.2639V83.2292H110.967V87.1892H87.1892V103.042H91.1528V118.896H95.1181V126.821H91.1528V122.856H87.1892V114.932H79.2639V110.967H75.3004V107.007H71.3403V103.042H59.4514V107.007H55.4861V110.967H47.5608V114.932H43.5972V122.856H39.6319V126.821H35.6719V110.967H39.6319V87.1892H31.7083V83.2292H11.8889V87.1892H0V83.2292H7.92882V79.2639H11.8889V75.3004H19.8194V71.3403H23.783V67.375H27.7431V63.4097H35.6719V59.4514H31.7083V51.5208H27.7431V47.5608H23.783V43.5972H19.8194V39.6319H15.8542V31.7083H19.8194V35.6719H27.7431V39.6319H39.6319V43.5972H51.5208V31.7083H55.4861V23.7778H59.4514V11.8889H63.4115V0H67.375V27.7431H71.3403V39.6319H75.3004V43.5972H79.2639V39.6319H91.1528V35.6719H103.043V31.7083H107.007V27.7431H110.967V35.6719H107.007V43.5972H103.043V47.5608H99.0781V59.4514H95.1181V67.375H99.0781V71.3403H110.967V75.3004H118.896V79.2639H126.821Z" fill="#FFD60A"/>
</g>
</svg>
