<svg width="49" height="38" viewBox="0 0 49 38" fill="none" xmlns="http://www.w3.org/2000/svg">
<mask id="mask0_265_29398" style="mask-type:luminance" maskUnits="userSpaceOnUse" x="2" y="0" width="47" height="38">
<path d="M2.35742 0.96875H48.9963V37.6632H2.35742V0.96875Z" fill="white"/>
</mask>
<g mask="url(#mask0_265_29398)">
<mask id="mask1_265_29398" style="mask-type:luminance" maskUnits="userSpaceOnUse" x="-983" y="-452" width="1297" height="2701">
<path d="M313.913 -451.587H-982.087V2248.41H313.913V-451.587Z" fill="black" fill-opacity="0.3"/>
</mask>
<g mask="url(#mask1_265_29398)">
<mask id="mask2_265_29398" style="mask-type:luminance" maskUnits="userSpaceOnUse" x="2" y="0" width="48" height="38">
<path d="M49.0241 0.968719H2.35742V37.8576H49.0241V0.968719Z" fill="white"/>
</mask>
<g mask="url(#mask2_265_29398)">
<mask id="mask3_265_29398" style="mask-type:luminance" maskUnits="userSpaceOnUse" x="2" y="1" width="47" height="37">
<path d="M2.80176 1.41318H48.9962V37.6007H2.80176V1.41318Z" fill="white"/>
</mask>
<g mask="url(#mask3_265_29398)">
<path d="M47.666 8.68401V7.23957H46.2215V5.79513H27.4437V4.35068H25.9993V2.90624H24.5549V1.46179H12.9993V2.90624H11.5549V4.35068H10.1104V5.79513H8.66596V13.0173H4.33263V14.4618H2.88818V18.7951H4.33263V23.1285H5.77707V27.4601H7.22152V31.7934H8.66596V36.1267H10.1104V37.5712H47.666V36.1267H49.1104V8.68401H47.666Z" fill="#000814"/>
</g>
</g>
</g>
</g>
<mask id="mask4_265_29398" style="mask-type:luminance" maskUnits="userSpaceOnUse" x="0" y="0" width="47" height="37">
<path d="M0 0H46.3576V36.5243H0V0Z" fill="white"/>
</mask>
<g mask="url(#mask4_265_29398)">
<path d="M44.7778 7.23953V5.79508H43.3333V4.35064H24.5556V2.90619H23.1111V1.46175H21.6667V0.0173035H10.1111V1.46175H8.66667V2.90619H7.22222V4.35064H5.77778V11.5729H1.44444V13.0173H0V17.3506H1.44444V21.684H2.88889V26.0156H4.33333V30.3489H5.77778V34.6822H7.22222V36.1267H44.7778V34.6822H46.2222V7.23953H44.7778Z" fill="#FFD60A"/>
</g>
<path d="M2.88878 13.0173V14.4618H1.44434V13.0173H2.88878ZM5.77767 13.0173H4.33322V14.4618H5.77767V13.0173ZM8.66656 13.0173H7.22211V14.4618H8.66656V13.0173ZM11.5554 13.0173H10.111V14.4618H11.5554V13.0173ZM14.4443 13.0173H12.9999V14.4618H14.4443V13.0173ZM17.3332 13.0173H15.8888V14.4618H17.3332V13.0173ZM20.2221 13.0173H18.7777V14.4618H20.2221V13.0173ZM23.111 13.0173H21.6666V14.4618H23.111V13.0173ZM25.9999 13.0173H24.5554V14.4618H25.9999V13.0173ZM28.8888 13.0173H27.4443V14.4618H28.8888V13.0173ZM31.7777 13.0173H30.3332V14.4618H31.7777V13.0173ZM34.6666 13.0173H33.2221V14.4618H34.6666V13.0173ZM7.22211 11.5729H8.66656V10.1285H7.22211V11.5729ZM10.111 11.5729H11.5554V10.1285H10.111V11.5729ZM12.9999 11.5729H14.4443V10.1285H12.9999V11.5729ZM15.8888 11.5729H17.3332V10.1285H15.8888V11.5729ZM18.7777 11.5729H20.2221V10.1285H18.7777V11.5729ZM21.6666 11.5729H23.111V10.1285H21.6666V11.5729ZM24.5554 11.5729H25.9999V10.1285H24.5554V11.5729ZM27.4443 11.5729H28.8888V10.1285H27.4443V11.5729ZM30.3332 11.5729H31.7777V10.1285H30.3332V11.5729ZM33.2221 11.5729H34.6666V10.1285H33.2221V11.5729ZM36.111 10.1285V11.5729H37.5554V10.1285H36.111ZM38.9999 10.1285V11.5729H40.4443V10.1285H38.9999ZM41.8888 10.1285V11.5729H43.3332V10.1285H41.8888ZM8.66656 8.68401V10.1285H10.111V8.68401H8.66656ZM11.5554 8.68401V10.1285H12.9999V8.68401H11.5554ZM14.4443 8.68401V10.1285H15.8888V8.68401H14.4443ZM17.3332 8.68401V10.1285H18.7777V8.68401H17.3332ZM20.2221 8.68401V10.1285H21.6666V8.68401H20.2221ZM23.111 8.68401V10.1285H24.5554V8.68401H23.111ZM25.9999 8.68401V10.1285H27.4443V8.68401H25.9999ZM28.8888 8.68401V10.1285H30.3332V8.68401H28.8888ZM31.7777 8.68401V10.1285H33.2221V8.68401H31.7777ZM34.6666 8.68401V10.1285H36.111V8.68401H34.6666ZM37.5554 8.68401V10.1285H38.9999V8.68401H37.5554ZM40.4443 8.68401V10.1285H41.8888V8.68401H40.4443ZM43.3332 8.68401V7.23957H41.8888V8.68401H43.3332ZM44.7777 10.1285V8.68401H43.3332V10.1285H44.7777ZM37.5554 11.5729V13.0173H38.9999V11.5729H37.5554ZM40.4443 13.0173H41.8888V11.5729H40.4443V13.0173ZM40.4443 13.0173H38.9999V14.4618H40.4443V13.0173ZM41.8888 14.4618H43.3332V13.0173H41.8888V14.4618ZM37.5554 14.4618V15.9062H38.9999V14.4618H37.5554ZM40.4443 15.9062H41.8888V14.4618H40.4443V15.9062ZM38.9999 15.9062V17.3507H40.4443V15.9062H38.9999ZM41.8888 17.3507H43.3332V15.9062H41.8888V17.3507ZM38.9999 18.7951V20.2396H40.4443V18.7951H38.9999ZM41.8888 17.3507H40.4443V18.7951H41.8888V17.3507ZM41.8888 20.2396H43.3332V18.7951H41.8888V20.2396ZM44.7777 18.7951V17.3507H43.3332V18.7951H44.7777ZM44.7777 15.9062V14.4618H43.3332V15.9062H44.7777ZM44.7777 13.0173V11.5729H43.3332V13.0173H44.7777ZM40.4443 20.2396V21.684H41.8888V20.2396H40.4443ZM41.8888 23.1285H43.3332V21.684H41.8888V23.1285ZM41.8888 26.0156H43.3332V24.5712H41.8888V26.0156ZM44.7777 21.684V20.2396H43.3332V21.684H44.7777ZM40.4443 23.1285V24.5712H41.8888V23.1285H40.4443ZM44.7777 24.5712V23.1285H43.3332V24.5712H44.7777ZM41.8888 28.9045H43.3332V27.4601H41.8888V28.9045ZM44.7777 30.3489V28.9045H43.3332V30.3489H44.7777ZM43.3332 33.2378H44.7777V31.7934H43.3332V33.2378ZM44.7777 27.4601V26.0156H43.3332V27.4601H44.7777ZM7.22211 7.23957V8.68401H8.66656V7.23957H7.22211ZM10.111 7.23957V8.68401H11.5554V7.23957H10.111ZM12.9999 7.23957V8.68401H14.4443V7.23957H12.9999ZM15.8888 7.23957V8.68401H17.3332V7.23957H15.8888ZM18.7777 7.23957V8.68401H20.2221V7.23957H18.7777ZM21.6666 7.23957V8.68401H23.111V7.23957H21.6666ZM25.9999 8.68401V7.23957H24.5554V8.68401H25.9999ZM28.8888 8.68401V7.23957H27.4443V8.68401H28.8888ZM31.7777 8.68401V7.23957H30.3332V8.68401H31.7777ZM34.6666 8.68401V7.23957H33.2221V8.68401H34.6666ZM37.5554 8.68401V7.23957H36.111V8.68401H37.5554ZM40.4443 8.68401V7.23957H38.9999V8.68401H40.4443ZM10.111 5.79513H8.66656V7.23957H10.111V5.79513ZM10.111 2.90624H8.66656V4.35068H10.111V2.90624ZM11.5554 5.79513V7.23957H12.9999V5.79513H11.5554ZM14.4443 5.79513V7.23957H15.8888V5.79513H14.4443ZM17.3332 5.79513V7.23957H18.7777V5.79513H17.3332ZM21.6666 7.23957V5.79513H20.2221V7.23957H21.6666ZM11.5554 4.35068H10.111V5.79513H11.5554V4.35068ZM7.22211 4.35068V5.79513H8.66656V4.35068H7.22211ZM14.4443 5.79513V4.35068H12.9999V5.79513H14.4443ZM17.3332 5.79513V4.35068H15.8888V5.79513H17.3332ZM20.2221 5.79513V4.35068H18.7777V5.79513H20.2221ZM12.9999 4.35068V2.90624H11.5554V4.35068H12.9999ZM15.8888 4.35068V2.90624H14.4443V4.35068H15.8888ZM18.7777 4.35068V2.90624H17.3332V4.35068H18.7777ZM11.5554 1.46179H10.111V2.90624H11.5554V1.46179ZM14.4443 1.46179H12.9999V2.90624H14.4443V1.46179ZM17.3332 1.46179H15.8888V2.90624H17.3332V1.46179ZM21.6666 4.35068V2.90624H20.2221V4.35068H21.6666ZM23.111 5.79513V4.35068H21.6666V5.79513H23.111ZM20.2221 1.46179H18.7777V2.90624H20.2221V1.46179ZM24.5554 7.23957V5.79513H23.111V7.23957H24.5554ZM27.4443 5.79513H25.9999V7.23957H27.4443V5.79513ZM30.3332 5.79513H28.8888V7.23957H30.3332V5.79513ZM33.2221 5.79513H31.7777V7.23957H33.2221V5.79513ZM36.111 5.79513H34.6666V7.23957H36.111V5.79513ZM38.9999 5.79513H37.5554V7.23957H38.9999V5.79513ZM41.8888 5.79513H40.4443V7.23957H41.8888V5.79513ZM36.111 15.9062V14.4618H34.6666V15.9062H36.111ZM33.2221 15.9062V14.4618H31.7777V15.9062H33.2221ZM30.3332 15.9062V14.4618H28.8888V15.9062H30.3332ZM27.4443 15.9062V14.4618H25.9999V15.9062H27.4443ZM24.5554 15.9062V14.4618H23.111V15.9062H24.5554ZM21.6666 15.9062V14.4618H20.2221V15.9062H21.6666ZM18.7777 15.9062V14.4618H17.3332V15.9062H18.7777ZM15.8888 15.9062V14.4618H14.4443V15.9062H15.8888ZM12.9999 15.9062V14.4618H11.5554V15.9062H12.9999ZM10.111 15.9062V14.4618H8.66656V15.9062H10.111ZM7.22211 15.9062V14.4618H5.77767V15.9062H7.22211ZM4.33322 14.4618H2.88878V15.9062H4.33322V14.4618ZM1.44434 15.9062V17.3507H2.88878V15.9062H1.44434ZM4.33322 15.9062V17.3507H5.77767V15.9062H4.33322ZM8.66656 17.3507V15.9062H7.22211V17.3507H8.66656ZM11.5554 17.3507V15.9062H10.111V17.3507H11.5554ZM14.4443 17.3507V15.9062H12.9999V17.3507H14.4443ZM17.3332 17.3507V15.9062H15.8888V17.3507H17.3332ZM20.2221 17.3507V15.9062H18.7777V17.3507H20.2221ZM23.111 17.3507V15.9062H21.6666V17.3507H23.111ZM25.9999 17.3507V15.9062H24.5554V17.3507H25.9999ZM28.8888 17.3507V15.9062H27.4443V17.3507H28.8888ZM31.7777 17.3507V15.9062H30.3332V17.3507H31.7777ZM33.2221 17.3507H34.6666V15.9062H33.2221V17.3507ZM2.88878 17.3507V18.7951H4.33322V17.3507H2.88878ZM7.22211 17.3507H5.77767V18.7951H7.22211V17.3507ZM10.111 18.7951V17.3507H8.66656V18.7951H10.111ZM12.9999 18.7951V17.3507H11.5554V18.7951H12.9999ZM15.8888 18.7951V17.3507H14.4443V18.7951H15.8888ZM18.7777 18.7951V17.3507H17.3332V18.7951H18.7777ZM21.6666 18.7951V17.3507H20.2221V18.7951H21.6666ZM24.5554 18.7951V17.3507H23.111V18.7951H24.5554ZM27.4443 18.7951V17.3507H25.9999V18.7951H27.4443ZM30.3332 18.7951V17.3507H28.8888V18.7951H30.3332ZM31.7777 18.7951H33.2221V17.3507H31.7777V18.7951ZM36.111 18.7951V17.3507H34.6666V18.7951H36.111ZM5.77767 18.7951H4.33322V20.2396H5.77767V18.7951ZM8.66656 18.7951H7.22211V20.2396H8.66656V18.7951ZM11.5554 20.2396V18.7951H10.111V20.2396H11.5554ZM14.4443 20.2396V18.7951H12.9999V20.2396H14.4443ZM17.3332 20.2396V18.7951H15.8888V20.2396H17.3332ZM20.2221 20.2396V18.7951H18.7777V20.2396H20.2221ZM23.111 20.2396V18.7951H21.6666V20.2396H23.111ZM25.9999 20.2396V18.7951H24.5554V20.2396H25.9999ZM28.8888 20.2396V18.7951H27.4443V20.2396H28.8888ZM30.3332 20.2396H31.7777V18.7951H30.3332V20.2396ZM34.6666 20.2396V18.7951H33.2221V20.2396H34.6666ZM37.5554 20.2396V18.7951H36.111V20.2396H37.5554ZM2.88878 20.2396V21.684H4.33322V20.2396H2.88878ZM7.22211 20.2396H5.77767V21.684H7.22211V20.2396ZM8.66656 20.2396V21.684H10.111V20.2396H8.66656ZM11.5554 20.2396V21.684H12.9999V20.2396H11.5554ZM15.8888 21.684V20.2396H14.4443V21.684H15.8888ZM18.7777 21.684V20.2396H17.3332V21.684H18.7777ZM21.6666 21.684V20.2396H20.2221V21.684H21.6666ZM24.5554 21.684V20.2396H23.111V21.684H24.5554ZM27.4443 21.684V20.2396H25.9999V21.684H27.4443ZM28.8888 21.684H30.3332V20.2396H28.8888V21.684ZM33.2221 21.684V20.2396H31.7777V21.684H33.2221ZM34.6666 21.684H36.111V20.2396H34.6666V21.684ZM5.77767 21.684H4.33322V23.1285H5.77767V21.684ZM7.22211 21.684V23.1285H8.66656V21.684H7.22211ZM10.111 21.684V23.1285H11.5554V21.684H10.111ZM14.4443 21.684H12.9999V23.1285H14.4443V21.684ZM17.3332 23.1285V21.684H15.8888V23.1285H17.3332ZM20.2221 23.1285V21.684H18.7777V23.1285H20.2221ZM23.111 23.1285V21.684H21.6666V23.1285H23.111ZM25.9999 23.1285V21.684H24.5554V23.1285H25.9999ZM27.4443 23.1285H28.8888V21.684H27.4443V23.1285ZM31.7777 23.1285V21.684H30.3332V23.1285H31.7777ZM33.2221 23.1285H34.6666V21.684H33.2221V23.1285ZM37.5554 23.1285V21.684H36.111V23.1285H37.5554ZM2.88878 23.1285V24.5712H4.33322V23.1285H2.88878ZM5.77767 23.1285V24.5712H7.22211V23.1285H5.77767ZM8.66656 23.1285V24.5712H10.111V23.1285H8.66656ZM12.9999 23.1285H11.5554V24.5712H12.9999V23.1285ZM15.8888 23.1285H14.4443V24.5712H15.8888V23.1285ZM17.3332 23.1285V24.5712H18.7777V23.1285H17.3332ZM20.2221 23.1285V24.5712H21.6666V23.1285H20.2221ZM23.111 23.1285V24.5712H24.5554V23.1285H23.111ZM25.9999 24.5712H27.4443V23.1285H25.9999V24.5712ZM30.3332 24.5712V23.1285H28.8888V24.5712H30.3332ZM31.7777 24.5712H33.2221V23.1285H31.7777V24.5712ZM36.111 24.5712V23.1285H34.6666V24.5712H36.111ZM38.9999 24.5712V23.1285H37.5554V24.5712H38.9999ZM4.33322 24.5712V26.0156H5.77767V24.5712H4.33322ZM7.22211 24.5712V26.0156H8.66656V24.5712H7.22211ZM11.5554 24.5712H10.111V26.0156H11.5554V24.5712ZM14.4443 24.5712H12.9999V26.0156H14.4443V24.5712ZM15.8888 24.5712V26.0156H17.3332V24.5712H15.8888ZM18.7777 24.5712V26.0156H20.2221V24.5712H18.7777ZM21.6666 24.5712V26.0156H23.111V24.5712H21.6666ZM24.5554 24.5712V26.0156H25.9999V24.5712H24.5554ZM27.4443 24.5712V26.0156H28.8888V24.5712H27.4443ZM30.3332 26.0156H31.7777V24.5712H30.3332V26.0156ZM34.6666 26.0156V24.5712H33.2221V26.0156H34.6666ZM36.111 26.0156H37.5554V24.5712H36.111V26.0156ZM5.77767 26.0156V27.4601H7.22211V26.0156H5.77767ZM10.111 26.0156H8.66656V27.4601H10.111V26.0156ZM12.9999 26.0156H11.5554V27.4601H12.9999V26.0156ZM14.4443 26.0156V27.4601H15.8888V26.0156H14.4443ZM17.3332 26.0156V27.4601H18.7777V26.0156H17.3332ZM20.2221 26.0156V27.4601H21.6666V26.0156H20.2221ZM23.111 26.0156V27.4601H24.5554V26.0156H23.111ZM25.9999 26.0156V27.4601H27.4443V26.0156H25.9999ZM28.8888 26.0156V27.4601H30.3332V26.0156H28.8888ZM33.2221 27.4601V26.0156H31.7777V27.4601H33.2221ZM34.6666 27.4601H36.111V26.0156H34.6666V27.4601ZM38.9999 27.4601V26.0156H37.5554V27.4601H38.9999ZM8.66656 27.4601H7.22211V28.9045H8.66656V27.4601ZM11.5554 27.4601H10.111V28.9045H11.5554V27.4601ZM12.9999 27.4601V28.9045H14.4443V27.4601H12.9999ZM15.8888 27.4601V28.9045H17.3332V27.4601H15.8888ZM18.7777 27.4601V28.9045H20.2221V27.4601H18.7777ZM21.6666 27.4601V28.9045H23.111V27.4601H21.6666ZM24.5554 27.4601V28.9045H25.9999V27.4601H24.5554ZM27.4443 27.4601V28.9045H28.8888V27.4601H27.4443ZM30.3332 27.4601V28.9045H31.7777V27.4601H30.3332ZM33.2221 28.9045H34.6666V27.4601H33.2221V28.9045ZM37.5554 28.9045V27.4601H36.111V28.9045H37.5554ZM40.4443 28.9045V27.4601H38.9999V28.9045H40.4443ZM5.77767 28.9045V30.3489H7.22211V28.9045H5.77767ZM10.111 28.9045H8.66656V30.3489H10.111V28.9045ZM11.5554 28.9045V30.3489H12.9999V28.9045H11.5554ZM14.4443 28.9045V30.3489H15.8888V28.9045H14.4443ZM17.3332 28.9045V30.3489H18.7777V28.9045H17.3332ZM20.2221 28.9045V30.3489H21.6666V28.9045H20.2221ZM23.111 28.9045V30.3489H24.5554V28.9045H23.111ZM25.9999 28.9045V30.3489H27.4443V28.9045H25.9999ZM28.8888 28.9045V30.3489H30.3332V28.9045H28.8888ZM31.7777 28.9045V30.3489H33.2221V28.9045H31.7777ZM34.6666 28.9045V30.3489H36.111V28.9045H34.6666ZM37.5554 30.3489H38.9999V28.9045H37.5554V30.3489ZM8.66656 30.3489H7.22211V31.7934H8.66656V30.3489ZM10.111 30.3489V31.7934H11.5554V30.3489H10.111ZM12.9999 30.3489V31.7934H14.4443V30.3489H12.9999ZM15.8888 30.3489V31.7934H17.3332V30.3489H15.8888ZM18.7777 30.3489V31.7934H20.2221V30.3489H18.7777ZM21.6666 30.3489V31.7934H23.111V30.3489H21.6666ZM24.5554 30.3489V31.7934H25.9999V30.3489H24.5554ZM27.4443 30.3489V31.7934H28.8888V30.3489H27.4443ZM30.3332 30.3489V31.7934H31.7777V30.3489H30.3332ZM33.2221 30.3489V31.7934H34.6666V30.3489H33.2221ZM36.111 30.3489V31.7934H37.5554V30.3489H36.111ZM40.4443 31.7934V30.3489H38.9999V31.7934H40.4443ZM5.77767 31.7934V33.2378H7.22211V31.7934H5.77767ZM8.66656 31.7934V33.2378H10.111V31.7934H8.66656ZM11.5554 31.7934V33.2378H12.9999V31.7934H11.5554ZM14.4443 31.7934V33.2378H15.8888V31.7934H14.4443ZM17.3332 31.7934V33.2378H18.7777V31.7934H17.3332ZM20.2221 31.7934V33.2378H21.6666V31.7934H20.2221ZM23.111 31.7934V33.2378H24.5554V31.7934H23.111ZM25.9999 31.7934V33.2378H27.4443V31.7934H25.9999ZM28.8888 31.7934V33.2378H30.3332V31.7934H28.8888ZM31.7777 31.7934V33.2378H33.2221V31.7934H31.7777ZM34.6666 31.7934V33.2378H36.111V31.7934H34.6666ZM37.5554 31.7934V33.2378H38.9999V31.7934H37.5554ZM40.4443 33.2378H41.8888V31.7934H40.4443V33.2378ZM7.22211 34.6823H8.66656V33.2378H7.22211V34.6823ZM10.111 34.6823H11.5554V33.2378H10.111V34.6823ZM12.9999 34.6823H14.4443V33.2378H12.9999V34.6823ZM15.8888 34.6823H17.3332V33.2378H15.8888V34.6823ZM18.7777 34.6823H20.2221V33.2378H18.7777V34.6823ZM21.6666 34.6823H23.111V33.2378H21.6666V34.6823ZM24.5554 34.6823H25.9999V33.2378H24.5554V34.6823ZM27.4443 34.6823H28.8888V33.2378H27.4443V34.6823ZM30.3332 34.6823H31.7777V33.2378H30.3332V34.6823ZM33.2221 34.6823H34.6666V33.2378H33.2221V34.6823ZM36.111 34.6823H37.5554V33.2378H36.111V34.6823ZM38.9999 34.6823H40.4443V33.2378H38.9999V34.6823Z" fill="#FFD60A"/>
<mask id="mask5_265_29398" style="mask-type:luminance" maskUnits="userSpaceOnUse" x="0" y="0" width="47" height="37">
<path d="M0 0H46.3576V36.5243H0V0Z" fill="white"/>
</mask>
<g mask="url(#mask5_265_29398)">
<path d="M11.5556 1.46175H10.1111V0.0173035H21.6667V1.46175H11.5556ZM10.1111 1.46175H8.66667V2.90619H10.1111V1.46175ZM23.1111 2.90619V1.46175H21.6667V2.90619H23.1111ZM8.66667 2.90619H7.22222V4.35064H8.66667V2.90619ZM24.5556 4.35064V2.90619H23.1111V4.35064H24.5556ZM26 5.79508H43.3333V4.35064H24.5556V5.79508H26ZM44.7778 7.23953V5.79508H43.3333V7.23953H44.7778ZM44.7778 7.23953V33.2378H43.3333V30.3489H41.8889V34.6822H7.22222V36.1267H44.7778V34.6822H46.2222V7.23953H44.7778ZM4.33333 13.0173H36.1111V11.5729H7.22222V4.35064H5.77778V11.5729H1.44444V13.0173H4.33333ZM1.44444 14.4617V13.0173H0V17.3506H1.44444V14.4617ZM37.5556 14.4617V13.0173H36.1111V17.3506H37.5556V14.4617ZM2.88889 18.7951V17.3506H1.44444V21.684H2.88889V18.7951ZM39 18.7951V17.3506H37.5556V21.684H39V18.7951ZM4.33333 23.1284V21.684H2.88889V26.0156H4.33333V23.1284ZM40.4444 23.1284V21.684H39V26.0156H40.4444V23.1284ZM5.77778 27.46V26.0156H4.33333V30.3489H5.77778V27.46ZM41.8889 27.46V26.0156H40.4444V30.3489H41.8889V27.46ZM7.22222 31.7933V30.3489H5.77778V34.6822H7.22222V31.7933Z" fill="#000814"/>
</g>
</svg>
