<svg xmlns="http://www.w3.org/2000/svg" width="303" height="302" fill="none"><path fill="#68B6FF" d="M87.425 140.457c-1.937-.608-3.72-1.405-4.555-3.417-.342-.835-.76-.721-1.443-.266-.835.608-1.747 1.026-2.886 1.632 1.063.95 2.05 1.974 2.316 3.417.228 1.368.077 2.696-.796 3.835-1.405 1.859-3.266 2.429-5.468 1.859-2.126-.569-3.493-2.581-3.416-4.859.076-2.429 1.404-3.91 4.594-4.858-2.089-1.481-3.532-3.303-2.924-5.96.57-2.507 2.354-3.835 4.974-4.366-2.165-1.443-3.531-3.113-2.885-5.656.493-1.974 1.782-3.151 3.756-3.455 2.773-.417 4.367 1.292 5.506 3.72 1.177-1.1 2.732-1.897 2.998-2.998.23-.988-1.328-2.165-1.441-3.873-1.672 1.33-3.151 2.543-5.201 2.127-.988-.19-1.823-.57-2.467-1.292-1.405-1.594-1.634-3.417-.684-5.276.987-1.936 2.77-2.505 4.82-2.202 2.164.342 3.265 1.86 3.569 4.745.418-.72.645-1.593 1.177-1.897 2.581-1.558 2.354-3.341.456-5.391-.646.038-.95.797-1.557 1.139-2.24 1.328-5.087.835-6.606-1.177-1.517-2.012-1.366-4.972.608-6.644 1.138-.948 1.519-1.48.418-2.884-1.936-2.43-1.328-5.809 1.443-7.403 2.922-1.708.038-2.734-.342-3.797-.608-1.632-1.29.115-1.785.457-2.429 1.632-5.465 1.214-7.174-1.102-1.633-2.24-1.177-5.276.986-6.985 2.278-1.746 5.506-1.442 7.1 1.026 1.024 1.594 1.557 1.745 3.112.531 2.467-1.899 5.542-1.025 7.403 1.633.342.493.266 1.67 1.594.72 4.1-2.922 6.606-2.24 9.073 2.316.76.038.988-.682 1.481-1.063 2.694-1.897 5.807-1.404 7.592 1.405.645.986.873 1.366 2.012.455 2.771-2.163 5.505-1.821 7.934.835.684.799 1.177 1.139 2.088.38.759-.646 1.367-.986.721-2.278-1.632-3.15-.912-5.998 1.632-7.364 2.581-1.443 5.163-.683 7.099 2.127.493.758.797 1.138 1.519.265.759-.95 1.936-1.33 3.226-1.9-2.315-2.277-3.379-4.82-1.252-7.668 1.404-1.859 3.416-2.201 5.541-1.517 2.089.646 3.304 2.695 3.151 5.01-.151 2.355-1.48 3.797-4.63 4.67 1.214.874 2.24 1.784 2.733 3.113.569 1.443.72 3.152-.304 4.023-2.581 2.165-2.201 4.1-.95 6.871.988 2.165-.531 4.252-2.656 5.506-.646.378-1.253.493-.646 1.517 2.62 4.517 2.051 6.568-2.581 9.226.418.531.911 1.062 1.253 1.632 1.556 2.429.91 5.618-1.368 7.137-2.39 1.555-5.389.986-7.173-1.33-.381-.493-.342-2.163-1.709-.948-.835.759-2.467 1.252-.949 2.886.531.569.76 1.366 1.1 2.048 3.912-2.012 6.417-1.745 7.821.835 1.178 2.127.494 4.821-1.519 6.037-2.428 1.481-4.897.569-7.099-2.695-.986 1.176-2.125 2.087-3.682 2.429 2.733 3.833 2.582 6.872-.266 8.731-2.694 1.785-5.656.684-7.895-2.96-.115.075-.266.151-.381.227-1.859 1.709-2.277 3.151-1.708 5.618.457 2.089-.72 4.328-2.771 5.202-2.012.871-4.364.189-5.656-1.672-.38-.568-.646-1.214-.986-1.86-3.644 4.101-5.96 4.214-9.757.381-.531-.532-.835-.608-1.366-.153-1.025 1.026-2.467 1.139-3.872 1.443M169.194 184.72c-1.595-1.215-2.809-2.658-2.582-4.783.228-2.164 1.443-3.644 3.568-4.251 2.089-.57 3.835.113 4.974 1.783.835 1.215 1.101 1.368 2.353.342 1.519-1.216 2.239-1.898 1.026-3.872-1.216-1.974-.115-4.67 1.897-5.998s4.594-1.101 6.302.608c.57.531.948 1.251 1.556 2.012 1.215-1.177 2.505-2.278 4.555-2.544-2.163-2.354-3.189-4.708-1.139-7.326 1.216-1.557 3.606-1.974 5.391-1.026 1.936.988 2.582 2.696 2.316 4.746-.304 2.202-1.823 3.379-4.707 3.719.645.419 1.367.722 1.974 1.215 2.391 1.936 2.353 1.974 5.124.57-2.884-3.797-2.467-7.479 1.026-9.111 2.277-1.063 4.593-.493 6.338 1.595.57.683.761 1.367 2.012.721 3.948-2.089 6.264-1.328 8.657 2.505.378.191.531-.151.797-.304 1.973-1.101 2.998-2.125 1.328-4.592-1.29-1.899.152-4.632 2.354-5.694 2.239-1.101 4.897-.304 6.187 1.821 1.29 2.165.874 5.012-1.29 6.264-1.633.949-1.633 1.366-.494 2.809 1.784 2.201 1.177 5.239-1.025 6.948-2.277 1.745-5.276 1.404-7.213-.799-.606-.682-.797-2.01-2.24-.72-1.062.949-1.897 1.519-.606 2.923.606.644.797 1.632 1.252 2.656 1.823-2.012 3.835-3.416 6.415-1.708 1.672 1.101 2.43 2.696 1.823 4.708-.57 1.936-1.974 3.037-3.986 3.152-2.125.151-3.644-1.33-4.594-4.252-1.974 2.39-3.453 4.706-2.012 8.123.646 1.517-.493 3.34-1.974 4.252-1.479.911-1.479 1.67-.493 2.885.456.57.607 1.405.911 2.125 3.19-2.239 5.467-2.543 7.288-.873 1.671 1.519 1.898 3.455.988 5.429-.988 2.088-2.809 2.658-4.974 2.316-2.125-.342-3.225-1.898-3.491-4.783-.342.607-.495 1.328-.95 1.632-2.467 1.708-2.201 3.529-.265 5.58 1.215-1.063 2.62-2.125 4.441-1.974 2.316.191 4.024 1.329 4.708 3.682.682 2.316.075 4.404-1.937 5.58-1.709.988-1.632 1.595-.417 2.885.608.646.797 1.67 1.177 2.544 1.517-1.898 3.34-3.151 5.922-2.202 2.087.759 3.264 2.316 3.264 4.479 0 2.848-1.86 4.328-4.518 5.013 2.658 2.467 3.266 4.44 2.051 6.718-1.063 1.936-2.733 2.809-4.936 2.505-2.163-.303-3.872-2.201-4.061-4.366-.227-2.352 1.139-4.022 4.594-5.465-1.481-.799-2.278-2.05-2.734-3.493-.721-.228-.797.418-1.101.72-2.847 2.773-6.415 2.507-8.655-.835-.684-1.024-.949-1.29-2.088-.455-2.809 2.089-5.846 1.519-7.781-1.328-.684-1.026-.988-1.442-2.242-.495-2.58 1.974-5.427 1.52-7.515-1.024-.684-.835-.95-1.366-2.125-.455-2.962 2.278-5.848 1.821-8.202-1.291-1.479-1.936-2.125.114-3.074.38-1.329.38-.266 1.024.076 1.519 2.012 2.694 1.557 5.922-1.101 7.63-2.505 1.594-5.618.644-7.25-2.165-.191-.304-.342-.682-.607-1.177-1.101 1.139-2.127 2.089-3.532 2.507.077.872.797 1.175 1.139 1.745 1.481 2.469.835 5.656-1.481 7.137-2.39 1.519-5.618.835-7.097-1.481-1.519-2.429-.988-5.58 1.518-7.061 1.48-.873 1.404-1.29.418-2.505-1.974-2.467-1.519-5.503 1.139-7.515 1.101-.836 1.101-1.254.304-2.316-1.974-2.697-1.558-5.467 1.1-7.745.835-.721.948-1.177.493-2.163-1.632-3.532-1.062-5.429 2.278-7.82.682-.495.759-.722.304-1.443-2.62-4.177-1.67-6.909 3.151-9.073M67.495 161.792c2.62-5.125 6.225-5.618 9.757-1.254.569.684.796.608 1.479.191 3.531-2.165 5.316-1.899 8.087 1.441.645.799.986.608 1.67.153 3.53-2.431 6.036-1.974 8.389 1.443.38.531.456 1.062 1.366.607 4.974-2.619 6.529-2.165 9.302 2.506.644 0 .872-.608 1.29-.912 2.392-1.785 5.391-1.443 7.175.797 1.745 2.165 1.518 5.125-.722 6.986-1.101.91-1.443 1.405-.531 2.771.988 1.443 1.594.608 2.429.075 1.026-.683 2.241-.683 3.38-.987h-.038c3.302 1.216 3.567 1.443 5.276 4.745.569-.416 1.1-.873 1.708-1.215 2.316-1.366 5.01-.797 6.491 1.368 1.481 2.201 1.101 5.01-1.139 6.491-1.366.91-1.593 1.405-.227 2.467.873.684 1.252 1.785 1.481 2.999.644-.57 1.139-1.063 1.745-1.443 1.899-1.252 4.29-.797 5.694 1.026 1.33 1.746 1.139 4.062-.417 5.58-1.631 1.595-4.024 1.632-5.809.153-.644-.533-.835-1.974-1.744-1.634-1.026.38-2.165 1.253-2.658 2.203-.608 1.29.986 2.049 1.328 3.188 3.72-2.771 6.833-2.657 8.731.19 1.861 2.771.646 5.884-3.226 7.935.835 1.024 1.898 1.897 2.278 3.225.644 2.354-.115 4.67-2.469 6.113-1.252.759-1.328 1.252-.34 2.24.797.835 1.024 1.935 1.175 3.34.837-1.177 1.596-2.127 2.773-2.62 1.251-.493 2.467-.531 3.682.077 1.974.986 3.036 2.619 2.733 4.782-.304 2.278-1.747 3.683-3.987 4.101-2.239.417-3.947-.837-5.579-4.062-1.785 1.935-3.721 3.493-6.53 2.619-2.278-.722-3.417-2.392-3.91-4.631-.531-.077-.607.416-.835.645-2.203 2.278-5.125 2.391-7.137.304s-1.861-5.163.608-7.061c1.328-1.026.873-1.595.189-2.619-.72-1.139-1.29-1.329-2.354-.457-.644.533-1.556.722-2.544 1.177 2.051 1.974 3.532 4.214 1.405 6.948-1.214 1.594-2.922 2.163-4.858 1.405-1.861-.723-2.885-2.165-2.885-4.214 0-2.165 1.481-3.608 4.29-4.328-.722-.455-1.747-.722-2.05-1.328-1.558-2.962-3.303-1.785-5.202-.38 1.861 1.708 2.924 3.72 1.785 6.263-.797 1.822-2.278 2.809-4.29 2.848-2.771.038-4.252-1.67-5.125-4.101-4.024 3.72-5.694 3.72-9.717-.227-.684-.685-1.064-.417-1.52.076-.796.797-1.86 1.139-2.885 1.594 2.81 3.227 2.886 6.453.228 8.427-2.353 1.746-5.77 1.064-7.212-1.441-1.708-2.886-.418-5.771 3.379-7.669-3.76-3.796-3.645-6.491.53-9.718.647-.493.721-.759.266-1.481-2.277-3.606-2.012-5.58 1.14-8.162.834-.684.834-.986.227-1.859-2.316-3.228-1.936-5.582 1.215-8.125.797-.644.873-.986.342-1.898-2.089-3.531-1.708-5.541 1.632-8.35 1.556-1.33-.342-1.823-.531-2.735-.228-1.024-.76-.758-1.52-.304-2.923 1.9-5.769 1.596-7.592-.758-1.897-2.467-1.519-5.429 1.329-7.63 1.746-1.367-.266-1.747-.417-2.582-.153-.759-.531-1.101-1.52-.57-4.668 2.62-7.971.759-8.464-4.744M178.001 83.552c1.745.608 3.453 1.215 4.365 3 .457.873.911.72 1.67.304 3.379-1.9 5.467-1.596 7.972 1.175.646.722 1.101.988 1.936.304.531-.455 1.177-.759 1.974-1.252-1.062-1.595-2.352-3.15-1.594-5.277.493-1.328 1.328-2.353 2.582-2.96 2.581-1.292 4.972-.115 6.946 3.567 1.405-1.974 3.113-3.416 5.656-3.074.95.114 2.127.38 2.506 1.177 1.822 3.53 3.873 1.746 5.885.38-2.316-2.696-2.773-5.012-1.368-7.137 1.215-1.823 3.531-2.696 5.62-1.974 2.163.758 3.34 2.316 3.378 4.63.037 2.582-1.33 4.139-4.404 5.05 3.682 2.695 4.593 7.44-1.177 10.401 3.112 4.138 2.961 6.037-1.025 9.263-.758.607-.531.835-.076 1.48 2.658 3.606 2.354 5.846-1.177 8.315-.986.682-.797.986-.189 1.783 2.239 3 1.973 5.39-.684 7.934-.987.911-.987.911.494 4.175 1.783-1.252 3.606-2.58 5.96-1.67 1.252.495 2.164 1.292 2.733 2.469 1.366 2.809.038 5.427-3.682 7.173 1.366 1.139 2.467 2.393 2.847 4.177 3.264-2.961 6.491-3.038 8.503-.342 1.747 2.316 1.101 5.695-1.366 7.25-2.809 1.709-5.656.57-7.668-3.074-.608-.115-.797.416-1.101.684-2.658 2.314-5.582 2.201-7.934-.419-.797-.873-1.292-1.29-2.505-.646-3.077 1.558-5.278.988-7.441-1.783-.57-.722-.797-.835-1.632-.303-3.644 2.39-6.075 1.935-8.58-1.634-.455-.644-.646-.835-1.443-.379-4.364 2.657-7.099 1.709-9.185-3.189-1.405 1.709-3.113 2.658-5.316 2.278-1.405-.227-2.467-.988-3.264-2.163-1.747-2.735-.684-5.505 3.036-7.783-.378-.417-.873-.759-1.101-1.215-.835-1.594-1.593-1.783-3.151-.606-2.201 1.632-5.352.835-6.908-1.368-1.633-2.24-1.253-5.124.797-7.099.57-.532 2.391-.759.835-2.164-.873-.758-.797-3.074-3.113-1.48-2.201 1.557-5.239.494-6.567-1.783-1.328-2.316-.646-5.087 1.67-6.645.38-.265.835-.454 1.443-.796-.912-.988-1.974-1.785-2.467-3.037-.797-2.165-.381-4.632 1.593-5.96 1.67-1.1 1.596-1.974.457-3.304-.38-.455-.533-1.1-.799-1.67-3.378 2.62-6.111 2.735-7.934.38-1.555-2.012-1.1-5.048.988-6.491 2.429-1.708 4.972-.835 7.478 2.694.987-1.517 2.277-2.58 4.062-3.074-2.62-3.834-2.505-6.795.189-8.578 2.354-1.558 5.62-.799 7.025 1.632 1.593 2.732.493 5.503-3.077 7.553.115.19.229.38.38.57 1.216 1.897 2.544 2.962 4.709 1.1.493-.492 1.479-.416 2.239-.569M242.764 152.642c-2.24 2.733-4.177 3.493-6.34 2.506-2.013-.912-2.999-2.544-2.771-4.745.189-2.125 1.897-3.759 4.024-4.063 2.391-.34 4.061.95 5.504 4.443 1.973-2.203 4.175-3.835 7.098-1.823 1.747 1.215 2.658 2.924 1.974 5.125-.682 2.163-2.277 3.417-4.555 3.493-2.316.038-3.986-1.634-4.934-4.936"/><path fill="#68B6FF" d="M159.552 71.063c2.847 0 4.896 2.088 4.859 4.935 0 2.847-2.088 4.898-4.935 4.86-2.848 0-4.898-2.089-4.86-4.936 0-2.847 2.089-4.896 4.936-4.86M146.303 236.273c0 2.543-2.315 4.821-4.859 4.783-2.543 0-4.821-2.316-4.783-4.86 0-2.543 2.314-4.821 4.858-4.783s4.784 2.316 4.784 4.86M70.911 140.837c.039 2.543-2.163 4.859-4.744 4.897-2.544.037-4.86-2.164-4.898-4.746-.038-2.543 2.163-4.859 4.745-4.896 2.543-.038 4.86 2.163 4.897 4.745M76.567 223.934c0 2.505-2.467 4.859-4.935 4.745-2.43-.075-4.669-2.429-4.63-4.821.038-2.506 2.467-4.858 4.934-4.745 2.392.114 4.631 2.43 4.631 4.821M154.312 247.585c.038 2.429-2.239 4.745-4.668 4.821-2.505.075-4.936-2.354-4.86-4.859.039-2.431 2.391-4.708 4.783-4.708 2.429.038 4.707 2.316 4.745 4.746M241.094 160.918c-.039 2.506-2.507 4.822-4.974 4.707-2.429-.113-4.631-2.467-4.594-4.859.038-2.506 2.507-4.822 4.974-4.707 2.429.151 4.668 2.467 4.594 4.859M67.494 161.792c-1.897 3.871-5.237 4.934-7.857 2.505-1.443-1.328-1.974-2.998-1.292-4.936.722-2.012 2.203-3.113 4.252-3.226 1.974-.114 3.493.874 4.366 2.657.455.949.684 1.974.531 3M54.323 154.2c-2.43.074-4.709-2.127-4.821-4.556-.115-2.505 2.201-4.897 4.744-4.897 2.43 0 4.669 2.239 4.707 4.706.038 2.431-2.163 4.67-4.63 4.747M157.578 54.208c-.038 2.467-2.316 4.669-4.747 4.632-2.467-.038-4.668-2.316-4.63-4.746.038-2.467 2.316-4.669 4.745-4.63 2.431.038 4.67 2.277 4.632 4.744M141.482 57.549c2.506 0 4.669 2.201 4.669 4.708-.038 2.505-2.278 4.668-4.745 4.592-2.392-.075-4.479-2.163-4.517-4.592-.115-2.469 2.086-4.67 4.593-4.708M160.803 61.307c2.431-.076 4.747 2.125 4.822 4.594.076 2.429-2.125 4.745-4.592 4.821-2.431.075-4.747-2.126-4.822-4.594-.076-2.467 2.125-4.782 4.592-4.82M70.418 229.363c2.543.038 4.48 2.012 4.44 4.555-.037 2.544-2.011 4.48-4.555 4.441-2.543-.038-4.479-2.012-4.44-4.555.038-2.544 1.973-4.479 4.555-4.441M155.528 64.078c0 2.505-1.936 4.517-4.479 4.594-2.62.038-4.709-2.012-4.632-4.632.038-2.505 2.05-4.48 4.593-4.48 2.506 0 4.479 2.013 4.518 4.518M68.557 65.37c2.62.036 4.404 1.936 4.328 4.592-.076 2.62-2.012 4.366-4.668 4.252C65.71 74.1 64 72.278 64 69.734c.039-2.62 1.938-4.402 4.556-4.364M68.633 150.858c0 2.619-1.823 4.481-4.479 4.442-2.62-.038-4.44-1.899-4.366-4.517.038-2.505 1.823-4.29 4.366-4.328 2.582-.038 4.441 1.785 4.48 4.403M230.691 82.755c-2.618.038-4.48-1.784-4.48-4.402 0-2.62 1.862-4.443 4.48-4.405 2.543.038 4.29 1.785 4.366 4.29.038 2.62-1.747 4.479-4.366 4.517M78.58 67.267c2.581.077 4.328 2.013 4.251 4.63-.114 2.582-2.088 4.329-4.706 4.178-2.47-.153-4.177-2.013-4.101-4.518.038-2.581 1.936-4.366 4.555-4.29M147.555 253.165c2.658-.038 4.517 1.785 4.517 4.403 0 2.62-1.821 4.479-4.479 4.442-2.543 0-4.328-1.784-4.402-4.289-.039-2.658 1.744-4.518 4.364-4.556M150.934 242.118c-2.62 0-4.403-1.861-4.403-4.479 0-2.62 1.859-4.405 4.479-4.405s4.403 1.862 4.403 4.48c-.037 2.581-1.86 4.404-4.479 4.404M165.359 239.498c.038 2.62-1.783 4.479-4.403 4.479-2.619.039-4.479-1.782-4.479-4.402-.038-2.62 1.783-4.479 4.403-4.479s4.441 1.821 4.479 4.402M57.207 158.868c.038 2.392-1.86 4.405-4.252 4.441a4.37 4.37 0 0 1-4.517-4.441 4.39 4.39 0 0 1 4.404-4.328c2.354 0 4.328 1.937 4.365 4.328M44.755 143.153c2.507 0 4.443 2.012 4.404 4.517-.076 2.429-1.974 4.29-4.404 4.252-2.505 0-4.441-2.012-4.403-4.517.038-2.393 1.974-4.252 4.403-4.252M244.015 140.988a4.366 4.366 0 0 1-4.402 4.328c-2.506 0-4.48-2.089-4.367-4.594.115-2.39 2.127-4.29 4.518-4.213 2.43.076 4.29 2.088 4.251 4.479M262.049 154.616a4.4 4.4 0 0 1-4.29 4.479 4.35 4.35 0 0 1-4.518-4.44 4.37 4.37 0 0 1 4.403-4.329c2.431-.038 4.366 1.862 4.405 4.29M232.095 72.77c-2.505 0-4.479-1.973-4.441-4.478.039-2.43 1.936-4.29 4.367-4.328 2.505 0 4.479 1.975 4.441 4.48-.039 2.43-1.974 4.327-4.367 4.327M238.321 232.021c-.037 2.39-1.974 4.326-4.365 4.326a4.394 4.394 0 0 1-4.404-4.555c.076-2.391 2.088-4.289 4.481-4.214 2.429.077 4.326 2.05 4.288 4.443M74.517 95.929c-2.316-.076-4.364-2.242-4.213-4.52.114-2.239 2.201-4.175 4.404-4.098 2.314.076 4.365 2.24 4.214 4.517-.115 2.202-2.203 4.176-4.405 4.1M87.425 140.457c.493.38 1.063.684 1.517 1.1 1.596 1.519 1.9 3.608.76 5.353-1.138 1.746-2.772 2.543-4.858 1.974-1.974-.532-3.379-2.467-3.19-4.403.228-2.201 1.52-3.568 3.644-4.063.684-.112 1.405 0 2.127.039M142.811 57.094c-2.355-.077-4.367-2.202-4.252-4.518.076-2.354 2.278-4.328 4.594-4.213 2.239.113 4.175 2.163 4.137 4.403-.038 2.354-2.163 4.366-4.479 4.328M120.64 175.533c-.493-.378-1.062-.72-1.481-1.177-1.479-1.517-1.935-3.264-.835-5.162 1.026-1.708 2.582-2.619 4.594-2.126 2.05.493 3.304 1.935 3.379 4.024.076 2.125-1.101 3.53-3.113 4.252-.835.342-1.709.265-2.544.189M228.3 145.127c2.316 0 4.365 2.125 4.328 4.441-.038 2.316-2.203 4.328-4.48 4.251-2.202-.076-4.176-2.088-4.176-4.289-.076-2.355 2.012-4.403 4.328-4.403M159.096 44.377c-.113 2.316-2.315 4.29-4.592 4.137-2.316-.151-4.252-2.354-4.063-4.632.189-2.24 2.278-4.099 4.441-4.023 2.316.075 4.328 2.24 4.214 4.518M157.16 227.693c0 2.201-2.012 4.251-4.214 4.328-2.316.036-4.441-2.127-4.364-4.405.074-2.239 2.163-4.213 4.364-4.175 2.202 0 4.214 2.05 4.214 4.252M73.759 209.623c2.316.038 4.366 2.24 4.251 4.518-.114 2.239-2.201 4.175-4.404 4.137-2.314-.038-4.365-2.24-4.252-4.518.115-2.239 2.165-4.175 4.405-4.137M218.392 228.566c.076 2.316-1.974 4.441-4.328 4.441-2.354.038-4.403-2.05-4.403-4.365 0-2.241 1.974-4.251 4.214-4.328 2.316-.114 4.479 1.898 4.517 4.252M42.82 161.792c-2.24 0-4.253-2.051-4.215-4.29 0-2.24 2.05-4.252 4.29-4.214 2.24 0 4.252 2.051 4.214 4.29-.038 2.24-2.05 4.214-4.29 4.214M149.074 42.82c-.038 2.24-2.05 4.251-4.328 4.213-2.239-.038-4.251-2.049-4.213-4.326.038-2.24 2.05-4.252 4.328-4.216 2.239.039 4.213 2.089 4.213 4.328M83.135 184.113c0 2.239-2.012 4.213-4.252 4.213s-4.213-2.012-4.213-4.251 2.012-4.214 4.252-4.214 4.213 2.012 4.213 4.252M216.342 161.754c-2.24-.039-4.214-2.051-4.175-4.29.038-2.24 2.05-4.214 4.289-4.176 2.24.038 4.214 2.051 4.176 4.29 0 2.24-2.051 4.214-4.29 4.176M178.002 83.552c-.457-.266-.988-.531-1.405-.873-1.672-1.29-2.354-2.96-1.481-5.01.797-1.86 2.316-2.848 4.365-2.544 2.126.304 3.455 1.708 3.607 3.797.151 2.125-.949 3.606-3 4.252-.682.265-1.404.265-2.086.378M153.743 73.948c.076 2.165-1.974 4.29-4.176 4.328-2.163.038-4.29-2.05-4.252-4.213 0-2.089 1.936-4.101 4.063-4.214 2.163-.115 4.326 1.936 4.365 4.099M139.509 250.394c-2.203-.038-4.216-2.165-4.139-4.328.076-2.201 2.239-4.175 4.404-4.063 2.125.115 4.023 2.127 4.023 4.214 0 2.165-2.087 4.215-4.288 4.177M36.935 155.566c.038 2.316-1.632 4.061-3.986 4.099-2.316.038-4.062-1.632-4.099-3.986-.038-2.314 1.632-4.061 3.986-4.099 2.315-.038 4.061 1.67 4.1 3.986M74.1 156.818c-2.315-.038-4.024-1.783-3.986-4.099.039-2.316 1.785-4.025 4.1-3.986 2.315.038 4.024 1.784 3.986 4.099-.039 2.316-1.784 4.024-4.1 3.986M141.71 267.363c.076-2.278 1.859-3.948 4.175-3.873 2.392.076 4.101 1.974 3.91 4.366-.151 2.278-1.974 3.871-4.29 3.759-2.278-.153-3.91-1.936-3.795-4.252M154.731 222.188c-2.316 0-3.948-1.709-3.91-4.061.036-2.316 1.783-3.948 4.099-3.873 2.201.076 3.797 1.708 3.797 3.947 0 2.316-1.67 3.987-3.986 3.987M192.844 81.162c0 2.352-1.709 4.022-4.025 3.986-2.239-.039-3.833-1.67-3.871-3.912 0-2.352 1.67-4.022 4.024-3.984 2.278.036 3.872 1.632 3.872 3.91M253.581 142.849c0 2.316-1.706 3.986-4.022 3.948s-3.948-1.747-3.91-4.101c.037-2.239 1.67-3.833 3.91-3.833 2.316-.038 4.022 1.632 4.022 3.986M70.911 168.738c2.316.038 3.948 1.785 3.872 4.139-.075 2.314-1.822 3.909-4.176 3.795-2.201-.113-3.758-1.747-3.758-3.986.038-2.353 1.746-3.986 4.062-3.948M91.6 223.252c2.355-.038 4.025 1.632 4.063 3.948 0 2.314-1.672 3.986-4.024 3.986-2.24 0-3.873-1.596-3.91-3.835-.076-2.316 1.556-4.063 3.872-4.099M146.606 36.785c-2.314-.038-3.948-1.785-3.871-4.14.076-2.315 1.861-3.909 4.175-3.794 2.203.113 3.759 1.745 3.759 4.022-.039 2.316-1.747 3.948-4.063 3.912M218.392 151.504c-2.354.038-4.062-1.632-4.062-3.948 0-2.24 1.595-3.872 3.835-3.948 2.352-.039 4.06 1.632 4.06 3.948 0 2.277-1.593 3.909-3.833 3.948M66.583 75.81c2.316 0 3.986 1.744 3.948 4.06-.075 2.201-1.709 3.835-3.948 3.797-2.316 0-3.986-1.747-3.948-4.063.038-2.201 1.708-3.795 3.948-3.795M131.536 230.425c2.316 0 3.986 1.785 3.91 4.101-.076 2.201-1.746 3.795-3.948 3.795-2.316 0-3.986-1.783-3.91-4.099.075-2.201 1.747-3.835 3.948-3.797M263.489 144.747c-.036 2.201-1.708 3.871-3.909 3.871-2.278 0-4.023-1.783-3.948-4.099.076-2.201 1.823-3.835 4.024-3.759s3.833 1.785 3.833 3.987M210.762 70.608c2.202.038 3.872 1.708 3.872 3.91 0 2.277-1.785 4.024-4.099 3.947-2.203-.076-3.835-1.82-3.759-4.024.076-2.201 1.785-3.833 3.986-3.833M159.475 253.469c-2.316 0-3.986-1.708-3.948-4.063.039-2.316 1.785-3.948 4.138-3.871 2.203.076 3.797 1.708 3.797 3.948 0 2.354-1.671 4.024-3.987 3.986M148.733 216.38c-.038 2.202-1.709 3.872-3.948 3.872-2.316 0-4.025-1.785-3.91-4.099.075-2.203 1.821-3.797 4.061-3.759 2.203.077 3.835 1.785 3.797 3.986M267.741 160.045c-2.314.077-4.061-1.632-4.061-3.948 0-2.239 1.594-3.871 3.834-3.948 2.354-.038 4.062 1.632 4.062 3.948 0 2.24-1.632 3.91-3.835 3.948M207.915 226.82c-.039 2.088-1.974 3.871-4.025 3.758-2.012-.114-3.682-1.899-3.644-3.91.038-2.088 1.974-3.873 4.025-3.758 1.974.113 3.682 1.936 3.644 3.91M250.203 162.816a3.905 3.905 0 0 1-3.986 3.835 3.906 3.906 0 0 1-3.834-3.986 3.907 3.907 0 0 1 3.987-3.835 3.905 3.905 0 0 1 3.833 3.986M62.331 68.33c0 2.088-1.859 3.948-3.948 3.871-2.012-.038-3.757-1.82-3.757-3.833 0-2.088 1.86-3.948 3.948-3.871 2.01.074 3.757 1.859 3.757 3.833M133.472 70.835c-.077 2.089-2.012 3.873-4.063 3.759-2.012-.115-3.682-1.936-3.644-3.948.077-2.089 2.012-3.872 4.063-3.759 2.012.115 3.72 1.974 3.644 3.948M92.246 73.531c.037 2.087-1.823 3.948-3.911 3.948-2.01-.038-3.795-1.784-3.833-3.797-.039-2.087 1.823-3.948 3.91-3.948 2.011 0 3.796 1.785 3.834 3.797M60.472 235.816c-2.089.038-3.948-1.821-3.948-3.91.038-2.012 1.785-3.758 3.795-3.797 2.089-.036 3.948 1.823 3.948 3.912-.036 2.01-1.783 3.757-3.795 3.795M232.628 88.297c0 2.127-1.746 3.911-3.911 3.911a3.906 3.906 0 0 1-3.91-3.911 3.905 3.905 0 0 1 3.91-3.91 3.905 3.905 0 0 1 3.911 3.91M60.015 139.583c-.036 2.127-1.82 3.874-3.984 3.835a3.906 3.906 0 0 1-3.835-3.986 3.906 3.906 0 0 1 3.986-3.835c2.163.038 3.91 1.823 3.833 3.986M184.113 219.569c2.125-.038 3.947 1.783 3.947 3.872 0 2.125-1.822 3.91-3.947 3.872-2.013-.039-3.759-1.747-3.834-3.757-.076-2.127 1.707-3.987 3.834-3.987M22.89 157.616c-2.088-.038-3.91-1.861-3.835-3.986.039-2.088 1.936-3.873 4.025-3.797 2.012.077 3.72 1.86 3.72 3.834.038 2.126-1.785 3.949-3.91 3.949M38.682 145.658c0 2.125-1.746 3.91-3.91 3.91a3.904 3.904 0 0 1-3.91-3.91 3.903 3.903 0 0 1 3.91-3.91 3.904 3.904 0 0 1 3.91 3.91M235.93 241.929c0 2.125-1.823 3.91-3.948 3.871-2.126-.038-3.909-1.897-3.835-3.986.077-2.012 1.785-3.72 3.835-3.758 2.125-.039 3.948 1.746 3.948 3.873M212.243 145.771c-.038 2.127-1.899 3.873-4.024 3.797-2.127-.077-3.874-1.974-3.759-4.101.115-2.049 1.859-3.719 3.91-3.682 2.126 0 3.909 1.823 3.873 3.986M269.413 142.28c2.087-.077 3.984 1.783 3.948 3.871 0 2.012-1.747 3.797-3.759 3.833-2.088.077-3.986-1.783-3.948-3.871 0-1.974 1.747-3.759 3.759-3.833M62.37 242.003c-.038 2.089-1.974 3.912-4.061 3.797-2.012-.114-3.72-1.935-3.682-3.948.036-2.126 1.974-3.909 4.06-3.796 2.013.114 3.72 1.935 3.683 3.947M160.045 208.257c0 2.125-1.859 3.948-3.986 3.872-2.012-.077-3.759-1.823-3.759-3.872 0-2.127 1.861-3.948 3.986-3.873 2.013.076 3.759 1.861 3.759 3.873M161.526 259.429c.038 2.125-1.708 3.91-3.873 3.948-2.125.038-3.91-1.709-3.948-3.874-.037-2.125 1.708-3.909 3.873-3.947 2.125 0 3.91 1.746 3.948 3.873M225.035 188.858c-.039 2.126-1.86 3.909-3.986 3.835-2.125-.038-3.872-1.938-3.796-4.025.077-2.012 1.822-3.72 3.872-3.72 2.127-.038 3.91 1.785 3.91 3.91M159.59 269.375c.037 2.087-1.785 3.948-3.873 3.948s-3.91-1.823-3.872-3.912c.039-2.01 1.747-3.756 3.759-3.833 2.049-.076 3.948 1.708 3.986 3.797M151.922 22.776c.038 1.936-1.747 3.833-3.721 3.872-1.936.038-3.835-1.745-3.871-3.72-.038-1.937 1.744-3.834 3.718-3.872 1.938-.039 3.836 1.746 3.874 3.72M222.151 62.712c1.974.038 3.795 1.936 3.682 3.91-.076 1.974-2.012 3.758-3.949 3.644-1.898-.113-3.568-1.898-3.568-3.76.038-2.01 1.897-3.832 3.835-3.794M247.659 60.281c.039 1.938-1.821 3.797-3.757 3.797-1.973 0-3.796-1.897-3.72-3.833.038-1.9 1.785-3.608 3.644-3.682 1.936-.077 3.797 1.744 3.833 3.718M143.911 83.856c.115-1.974 2.05-3.72 3.986-3.568 1.974.151 3.683 2.087 3.493 4.025-.191 1.897-1.974 3.529-3.873 3.453-1.974-.075-3.72-1.974-3.606-3.91M84.083 235.323c0 1.974-1.898 3.797-3.833 3.759-1.974-.039-3.76-1.974-3.683-3.912.077-1.897 1.86-3.606 3.72-3.606 1.937-.076 3.796 1.785 3.796 3.759M60.51 62.219c-1.935.074-3.835-1.709-3.91-3.683-.076-1.937 1.709-3.835 3.683-3.911 1.936-.075 3.833 1.708 3.91 3.682.074 1.938-1.709 3.835-3.683 3.912M242.118 247.622c-1.936.076-3.833-1.745-3.872-3.683-.076-1.935 1.745-3.833 3.683-3.871 1.936-.077 3.833 1.746 3.871 3.682.077 1.936-1.746 3.797-3.682 3.872M75.58 200.208c1.937 0 3.797 1.823 3.797 3.759s-1.822 3.795-3.759 3.795-3.795-1.821-3.795-3.757c-.038-1.937 1.783-3.797 3.757-3.797M156.743 38.491c-1.936.038-3.835-1.745-3.873-3.718-.038-1.938 1.746-3.836 3.72-3.874 1.936-.038 3.835 1.747 3.873 3.72.037 1.937-1.784 3.836-3.72 3.872M227.238 214.406c-1.974-.038-3.797-1.935-3.683-3.909.075-1.974 2.011-3.759 3.948-3.645 1.898.113 3.568 1.898 3.568 3.796 0 1.974-1.859 3.797-3.833 3.758M84.083 158.375c-1.936 0-3.757-1.898-3.682-3.835.076-1.859 1.86-3.568 3.72-3.568 1.936 0 3.759 1.898 3.682 3.834-.074 1.861-1.859 3.569-3.72 3.569M283.193 147.936c.076 1.936-1.785 3.795-3.721 3.795-1.859 0-3.644-1.747-3.682-3.606-.077-1.936 1.785-3.833 3.72-3.797 1.822 0 3.606 1.747 3.683 3.608M158.26 194.59c1.899.113 3.608 1.974 3.531 3.834-.076 1.974-2.05 3.758-3.986 3.569-1.897-.191-3.531-2.05-3.417-3.91.152-1.899 2.013-3.607 3.872-3.493M155.793 99.611c-1.936.037-3.833-1.823-3.797-3.758.038-1.862 1.785-3.645 3.646-3.683 1.936-.038 3.833 1.821 3.795 3.759-.038 1.86-1.785 3.606-3.644 3.682M166.536 56.068c0 1.937-1.897 3.758-3.833 3.682-1.861-.075-3.57-1.86-3.57-3.719 0-1.937 1.9-3.758 3.835-3.682 1.86.075 3.568 1.86 3.568 3.719M121.514 78.846c-.039 1.935-1.974 3.795-3.91 3.682-1.859-.115-3.606-1.936-3.568-3.797.037-1.936 1.974-3.795 3.91-3.682 1.859.114 3.606 1.974 3.568 3.796M148.012 277.611c-.077 1.938-2.012 3.721-3.912 3.608-1.859-.153-3.529-1.974-3.491-3.797.075-1.936 2.012-3.721 3.91-3.606 1.897.115 3.567 1.936 3.493 3.795M157.994 279.396c0 1.936-1.897 3.797-3.833 3.72-1.861-.076-3.606-1.859-3.606-3.72 0-1.936 1.898-3.795 3.834-3.721 1.897.077 3.605 1.861 3.605 3.721M242.079 66.205c2.013.036 3.57 1.67 3.532 3.682a3.583 3.583 0 0 1-3.683 3.53c-2.012-.038-3.569-1.67-3.569-3.683a3.637 3.637 0 0 1 3.72-3.53M234.033 61.99c-2.012.038-3.608-1.518-3.646-3.53s1.519-3.606 3.531-3.644 3.606 1.517 3.644 3.53c0 2.012-1.519 3.607-3.529 3.644M72.012 243.75c.038 2.05-1.481 3.644-3.53 3.644-2.05 0-3.608-1.555-3.608-3.606 0-1.974 1.481-3.455 3.417-3.531 2.05-.075 3.683 1.443 3.72 3.493M198.196 147.859c-2.012-.114-3.53-1.784-3.417-3.797.115-2.01 1.785-3.529 3.797-3.416 2.012.114 3.53 1.785 3.417 3.797a3.636 3.636 0 0 1-3.797 3.416M68.102 134.422c-2.012.075-3.493-1.292-3.567-3.304-.077-2.125 1.366-3.644 3.453-3.644 2.012 0 3.416 1.404 3.455 3.417.038 2.05-1.328 3.493-3.34 3.531M73.797 60.396c-.038 2.012-1.443 3.416-3.455 3.378-2.088 0-3.531-1.517-3.455-3.644.077-1.974 1.558-3.34 3.606-3.264 1.974.037 3.342 1.48 3.304 3.53M234.335 167.333c2.012-.038 3.493 1.329 3.531 3.304.077 2.125-1.404 3.606-3.493 3.606-2.012 0-3.416-1.404-3.416-3.417s1.368-3.454 3.378-3.493M281.027 158.033c-.036 2.012-1.44 3.417-3.453 3.417-2.088 0-3.569-1.519-3.455-3.644.077-1.974 1.556-3.341 3.568-3.303 2.012.075 3.379 1.518 3.34 3.53M162.323 113.769c1.935 0 3.454 1.481 3.454 3.455 0 1.936-1.481 3.455-3.454 3.455-1.936 0-3.455-1.481-3.455-3.455.038-1.936 1.519-3.455 3.455-3.455M96.08 149.568c-1.936.076-3.493-1.405-3.568-3.341-.076-1.935 1.405-3.493 3.34-3.569 1.936-.075 3.493 1.405 3.568 3.342.038 1.974-1.404 3.53-3.34 3.568M194.172 221.429c1.937.038 3.416 1.557 3.378 3.493-.036 1.936-1.555 3.417-3.491 3.378s-3.417-1.557-3.379-3.493c.039-1.935 1.556-3.416 3.492-3.378M176.216 231.526c-.038 1.938-1.557 3.417-3.493 3.379s-3.416-1.556-3.378-3.492 1.557-3.416 3.493-3.378c1.898.038 3.417 1.593 3.378 3.491M16.4 152.188c.074 1.897-1.482 3.491-3.38 3.529-1.899.038-3.454-1.517-3.454-3.417 0-1.821 1.443-3.302 3.264-3.416a3.44 3.44 0 0 1 3.57 3.304M76.986 197.476c-1.938 0-3.455-1.558-3.455-3.493.038-1.936 1.632-3.455 3.53-3.379 1.822.077 3.265 1.519 3.303 3.34a3.376 3.376 0 0 1-3.378 3.532M50.45 59.903c-1.71 0-3.341-1.557-3.38-3.266-.074-1.783 1.596-3.491 3.38-3.491s3.454 1.708 3.378 3.491c-.075 1.709-1.709 3.266-3.379 3.266M145.734 97.37c-1.708 0-3.342-1.632-3.378-3.34-.039-1.709 1.555-3.379 3.264-3.417 1.784-.075 3.531 1.633 3.493 3.455-.039 1.708-1.671 3.302-3.379 3.302M59.979 251.988c-.077 1.708-1.709 3.302-3.417 3.264-1.823-.037-3.455-1.821-3.304-3.606.153-1.708 1.861-3.226 3.531-3.151 1.67.114 3.226 1.823 3.19 3.493M223.479 114.339c1.708-.037 3.34 1.557 3.417 3.265.076 1.785-1.671 3.53-3.455 3.455-1.709-.038-3.302-1.67-3.302-3.378.038-1.709 1.632-3.342 3.34-3.342M173.825 129.068c0 1.823-1.709 3.455-3.53 3.416-1.708-.074-3.304-1.67-3.304-3.416 0-1.821 1.709-3.453 3.531-3.417 1.709.076 3.303 1.708 3.303 3.417M24.75 147.175c-1.709-.036-3.302-1.632-3.34-3.378-.039-1.821 1.67-3.491 3.492-3.453 1.822.036 3.453 1.783 3.34 3.606-.114 1.746-1.784 3.264-3.492 3.225M239.232 222.113c-.076 1.821-1.821 3.417-3.606 3.264-1.708-.115-3.227-1.785-3.151-3.493.077-1.821 1.823-3.417 3.606-3.264 1.709.151 3.228 1.823 3.151 3.493M153.401 12.906c0 1.709-1.594 3.34-3.302 3.379-1.785.038-3.493-1.709-3.417-3.493.077-1.709 1.747-3.264 3.417-3.264 1.708.038 3.302 1.67 3.302 3.378M247.319 233.842c0 1.823-1.672 3.493-3.493 3.417-1.708-.038-3.302-1.67-3.302-3.379 0-1.823 1.67-3.493 3.491-3.416 1.709.038 3.266 1.67 3.304 3.378M148.998 289.153c.115-1.823 1.936-3.379 3.682-3.189 1.709.189 3.189 1.897 3.075 3.567-.113 1.823-1.936 3.379-3.682 3.189-1.709-.151-3.19-1.859-3.075-3.567M245.723 47.071c1.709-.038 3.341 1.558 3.379 3.304 0 1.707-1.632 3.415-3.34 3.302-1.898-.153-3.037-1.291-3.226-3.15-.191-1.747 1.479-3.418 3.187-3.456M161.411 24.75c0 1.708-1.632 3.34-3.34 3.302-1.709 0-3.34-1.632-3.302-3.34 0-1.709 1.632-3.34 3.34-3.302s3.302 1.632 3.302 3.34M137.609 252.406c1.747-.038 3.379 1.594 3.34 3.302-.036 1.632-1.555 3.19-3.187 3.228-1.747.036-3.379-1.596-3.34-3.304 0-1.632 1.555-3.189 3.187-3.226M286.116 149.833c.075-1.708 1.783-3.302 3.454-3.189 1.708.115 3.34 1.861 3.112 3.531-.265 1.86-1.404 2.96-3.34 3.037-1.67.076-3.264-1.67-3.226-3.379M93.955 159.361c-1.747-.074-3.304-1.783-3.19-3.491.113-1.634 1.747-3.113 3.379-3.075 1.746.075 3.302 1.783 3.189 3.492-.115 1.67-1.747 3.151-3.379 3.074M230.16 97.865c-.038 1.708-1.747 3.302-3.455 3.225-1.708-.074-3.302-1.82-3.149-3.53.112-1.631 1.708-3.112 3.34-3.112 1.708.038 3.302 1.708 3.264 3.417M225.338 239.955c.038 1.708-1.593 3.378-3.302 3.34-1.632-.038-3.189-1.557-3.227-3.189-.038-1.708 1.595-3.379 3.304-3.34 1.67.038 3.187 1.555 3.225 3.189M234.829 129.637c-.076 1.747-1.746 3.266-3.454 3.151-1.632-.113-3.075-1.708-3.037-3.34.075-1.747 1.747-3.264 3.453-3.151 1.672.153 3.077 1.708 3.038 3.34M185.29 142.165c.112-1.747 1.555-3.075 3.34-2.96 1.746.113 3.075 1.555 2.962 3.34-.115 1.747-1.558 3.075-3.342 2.96-1.745-.113-3.075-1.555-2.96-3.34M255.1 245.307c-.038 1.783-1.443 3.113-3.226 3.075-1.784-.038-3.112-1.443-3.076-3.227.038-1.785 1.443-3.113 3.228-3.075 1.784.038 3.112 1.443 3.074 3.227M142.355 290.519c-1.823-.038-3.076-1.404-3-3.227.077-1.821 1.443-3.075 3.266-2.922 1.859.151 2.847 1.252 2.847 3.075.075 1.859-1.291 3.151-3.113 3.074M249.976 252.141c1.822-.039 3.151 1.213 3.151 3.036 0 1.821-1.29 3.151-3.113 3.113-1.86-.076-2.924-1.063-3.037-2.924-.114-1.821 1.177-3.189 2.999-3.225M170.903 70.988c-1.823 0-3.151-1.33-3.113-3.151.038-1.823 1.404-3.151 3.226-3.037 1.861.113 2.885 1.176 2.961 3.037.077 1.821-1.253 3.15-3.074 3.15M206.51 158.792c-1.785.038-3.189-1.328-3.227-3.075a3.12 3.12 0 0 1 3.074-3.226c1.785-.038 3.189 1.328 3.228 3.075.038 1.783-1.29 3.189-3.075 3.226M98.281 72.354c1.785-.038 3.19 1.328 3.228 3.075.038 1.785-1.328 3.19-3.075 3.227-1.785.037-3.19-1.33-3.227-3.076-.077-1.821 1.291-3.226 3.074-3.226M46.54 253.089c-1.822-.039-3.075-1.443-2.999-3.264.075-1.785 1.518-3.075 3.303-2.924 1.859.151 2.847 1.254 2.885 3.113.038 1.823-1.366 3.113-3.19 3.075M163.007 188.365c-.153 1.821-1.103 2.923-2.962 2.998-1.823.076-3.151-1.29-3.037-3.113.113-1.859 1.177-2.885 3.037-2.847 1.859 0 2.809 1.1 2.962 2.962M52.196 43.58c1.861.113 3.036.986 3.075 2.884.076 1.86-.948 3-2.848 3.074-1.86.077-2.998-.948-3.074-2.845-.038-1.9 1.026-2.886 2.847-3.113M243.104 253.658c-.113 1.861-.986 3.037-2.884 3.075-1.861.076-3-.948-3.074-2.848-.077-1.859.948-2.998 2.847-3.074 1.897-.038 2.883 1.026 3.111 2.847M258.252 51.665c.076 1.67-1.254 3.036-2.924 3.075-1.67.038-3.075-1.29-2.998-2.96.076-1.747 1.062-2.773 2.77-2.962 1.671-.151 3.113 1.177 3.152 2.847M151.846 0c1.708.19 2.809 1.063 2.961 2.809.151 1.594-1.33 3.113-2.923 2.998-1.747-.114-2.809-1.139-2.809-2.885-.039-1.747 1.062-2.656 2.771-2.922M64.762 222.075c-.038 1.632-1.404 2.96-3.075 2.885-1.633-.076-3-1.481-2.847-3.113.19-1.708 1.176-2.696 2.922-2.772 1.67-.075 3.038 1.33 3 3"/><mask id="a" width="7" height="7" x="0" y="147" maskUnits="userSpaceOnUse" style="mask-type:luminance"><path fill="#fff" d="M0 147.089h6.203v6.666H0z"/></mask><g mask="url(#a)"><path fill="#68B6FF" d="M5.96 150.479c-.038 1.632-1.443 2.998-3.076 2.847-1.709-.152-2.695-1.177-2.81-2.885-.074-1.632 1.33-3 2.962-3 1.632.038 2.96 1.406 2.924 3.038"/></g><path fill="#68B6FF" d="M14.804 145.278c-1.67-.266-2.733-1.177-2.81-2.924-.076-1.594 1.367-2.998 3-2.96 1.594.038 2.999 1.519 2.81 3.113-.23 1.746-1.292 2.62-3 2.771M120.262 139.887c.036 1.632-1.292 3.037-2.924 3.037-1.632.038-3.036-1.329-2.962-2.96.077-1.747 1.065-2.733 2.773-2.924 1.632-.151 3.036 1.215 3.113 2.847M49.121 137.609c-.227 1.709-1.139 2.848-2.885 2.848-1.747.038-2.771-1.025-2.96-2.771-.153-1.594 1.366-3.113 2.96-2.998 1.746.151 2.62 1.213 2.885 2.921M147.289 104.014c-.038 1.632-1.442 2.96-3.074 2.885s-2.998-1.519-2.809-3.151c.189-1.708 1.215-2.696 2.96-2.732 1.595-.077 2.962 1.366 2.923 2.998M73 104.507c-1.596-.113-2.962-1.67-2.696-3.226.265-1.708 1.366-2.658 3.074-2.62 1.634.039 2.924 1.632 2.735 3.226-.153 1.519-1.596 2.735-3.113 2.62M104.128 160.957c-1.67.038-3.038-1.254-3.038-2.924a2.935 2.935 0 0 1 3-2.998c1.747.074 2.771 1.062 2.922 2.809.115 1.632-1.252 3.074-2.884 3.113M51.475 240.03c0 1.633-1.368 3-3 2.961-1.632-.038-2.998-1.442-2.885-3.074.153-1.709 1.139-2.735 2.885-2.809 1.634-.115 3 1.29 3 2.922M287.633 162.854c-1.632.038-3.036-1.29-3.036-2.923-.038-1.632 1.328-3.037 2.96-2.96 1.747.076 2.734 1.062 2.924 2.77.152 1.632-1.216 3.037-2.848 3.113M188.061 162.361c-.039 1.67-1.443 2.998-3.113 2.847-1.747-.152-2.733-1.177-2.809-2.923-.077-1.67 1.29-2.999 2.96-2.999 1.672.037 3 1.405 2.962 3.075M259.201 164.677a2.98 2.98 0 0 1-3.076 2.922c-1.671-.075-2.999-1.481-2.846-3.113.151-1.746 1.175-2.694 2.922-2.771 1.67-.076 3.036 1.29 3 2.962M134.421 60.965c-.19 1.481-1.102 2.582-2.847 2.696-1.595.113-3.113-1.404-2.962-3 .153-1.708 1.178-2.732 2.924-2.809 1.556 0 2.885 1.405 2.885 3.113M173.18 173.293a2.98 2.98 0 0 1-2.923-3.074c.076-1.67 1.481-2.998 3.151-2.847 1.746.152 2.732 1.177 2.771 2.961.076 1.671-1.329 2.999-2.999 2.96"/><mask id="b" width="7" height="7" x="147" y="295" maskUnits="userSpaceOnUse" style="mask-type:luminance"><path fill="#fff" d="M147.536 295.533h6.222v6.415h-6.222z"/></mask><g mask="url(#b)"><path fill="#68B6FF" d="M153.439 298.53c.038 1.859-1.328 3.34-2.96 3.225-1.746-.113-2.771-1.1-2.885-2.847-.115-1.632 1.328-3.075 2.962-2.998 1.744.076 2.656 1.139 2.883 2.62"/></g><path fill="#68B6FF" d="M60.661 173.75c-1.593-.115-2.96-1.672-2.694-3.227.265-1.709 1.366-2.658 3.075-2.62 1.631.038 2.923 1.632 2.732 3.227-.15 1.518-1.594 2.695-3.113 2.62M111.112 76.795c0 1.632-1.48 3.075-2.961 2.924-1.632-.191-2.58-1.177-2.657-2.81-.076-1.48 1.481-2.961 2.96-2.77 1.596.151 2.469 1.175 2.658 2.656"/><mask id="c" width="7" height="7" x="296" y="148" maskUnits="userSpaceOnUse" style="mask-type:luminance"><path fill="#fff" d="M296.425 148.866h5.877v5.778h-5.877z"/></mask><g mask="url(#c)"><path fill="#68B6FF" d="M302.286 151.922c-.34 1.708-1.29 2.847-3.036 2.694-1.709-.112-2.771-1.29-2.658-3.036.114-1.596 1.215-2.658 2.847-2.582 1.746.077 2.658 1.216 2.847 2.924"/></g><path fill="#68B6FF" d="M129.144 134.724c-1.67-.227-2.809-1.139-2.771-2.922.038-1.632 1.101-2.658 2.733-2.658 1.746 0 2.809 1.101 2.772 2.847 0 1.632-1.102 2.506-2.734 2.733M162.778 14.727c-.19 1.672-1.063 2.811-2.81 2.811-1.631 0-2.694-1.026-2.732-2.658-.038-1.746 1.024-2.847 2.771-2.885 1.595 0 2.505 1.1 2.771 2.732M262.845 257.113c-.227 1.67-1.177 2.809-2.923 2.733-1.632-.039-2.658-1.101-2.658-2.733 0-1.747 1.102-2.809 2.847-2.771 1.634.038 2.507 1.139 2.734 2.771M256.732 61.573c-.189 1.785-1.1 2.924-2.809 2.96-1.746.038-2.809-1.062-2.847-2.809 0-1.632 1.026-2.694 2.62-2.77 1.746-.114 2.696 1.025 3.036 2.619M242.991 79.68c-.189 1.709-1.101 2.886-2.847 2.886-1.747 0-2.848-1.1-2.848-2.847 0-1.632 1.063-2.696 2.695-2.771 1.746-.076 2.696 1.024 3 2.733M259.96 42.403c-.304 1.708-1.254 2.77-2.999 2.656-1.595-.113-2.619-1.213-2.543-2.809.075-1.708 1.214-2.77 2.922-2.656 1.67.074 2.505 1.175 2.62 2.809M146.682 209.243c-1.708-.266-2.847-1.215-2.809-2.96.076-1.747 1.215-2.811 2.962-2.734 1.594.076 2.656 1.139 2.656 2.77.038 1.785-1.101 2.697-2.809 2.924M42.288 42.25c1.785.304 2.962 1.215 2.885 2.962-.076 1.746-1.215 2.809-2.962 2.732-1.593-.076-2.656-1.138-2.694-2.77.038-1.747 1.215-2.658 2.77-2.924M48.097 259.96c-.266 1.708-1.177 2.847-2.924 2.809s-2.809-1.177-2.77-2.923c.038-1.632 1.138-2.695 2.732-2.695 1.785-.038 2.696 1.101 2.962 2.809M167.333 46.123c-.189 1.632-1.063 2.618-2.733 2.544-1.557-.038-2.467-1.026-2.467-2.582 0-1.67 1.025-2.62 2.695-2.581 1.557.076 2.354 1.062 2.505 2.62M225.376 110.429c-1.632-.266-2.694-1.177-2.581-2.809.076-1.632 1.177-2.62 2.847-2.505 1.519.114 2.467 1.1 2.467 2.658-.075 1.632-1.137 2.505-2.733 2.656M20.991 166.309c-1.632-.191-2.58-1.101-2.505-2.771.076-1.557 1.063-2.469 2.62-2.43 1.67.038 2.62 1.062 2.543 2.734-.114 1.556-1.1 2.314-2.658 2.467M140.078 8.313c1.632.227 2.656 1.1 2.58 2.77-.075 1.634-1.139 2.582-2.771 2.505-1.517-.074-2.467-1.062-2.467-2.617.038-1.632 1.062-2.47 2.658-2.658M140.76 21.144c-.304 1.594-1.215 2.505-2.885 2.353-1.556-.151-2.391-1.176-2.278-2.733.115-1.67 1.177-2.543 2.847-2.39 1.558.189 2.278 1.213 2.316 2.77M51.21 66.432c-.23 1.709-1.14 2.733-2.81 2.657-1.633-.075-2.58-1.14-2.506-2.81.076-1.517 1.064-2.466 2.62-2.428 1.708 0 2.505 1.1 2.696 2.581M43.161 54.663c-.227 1.634-1.139 2.696-2.809 2.62s-2.62-1.139-2.543-2.809c.076-1.52 1.1-2.505 2.62-2.467 1.708-.038 2.581 1.024 2.732 2.656M14.196 162.323c-.266 1.708-1.176 2.658-2.884 2.543-1.557-.114-2.469-1.139-2.354-2.696.076-1.67 1.139-2.58 2.809-2.467 1.594.077 2.316 1.139 2.429 2.62M61.839 51.172c-1.633-.191-2.695-1.026-2.695-2.696s1.063-2.657 2.695-2.657c1.557.037 2.543.987 2.581 2.544.115 1.67-.911 2.543-2.581 2.809"/></svg>