<svg xmlns="http://www.w3.org/2000/svg" width="448" height="439" fill="none"><mask id="a" width="448" height="439" x="0" y="0" maskUnits="userSpaceOnUse" style="mask-type:luminance"><path fill="#fff" d="M448 0H0v438.667h448z"/></mask><g mask="url(#a)"><mask id="b" width="149" height="43" x="2" y="200" maskUnits="userSpaceOnUse" style="mask-type:luminance"><path fill="#fff" d="M2.026 200h148.641v42.667H2.027z"/></mask><g mask="url(#b)"><path fill="#D9D9D9" d="M81.24 227.875v3.365h-6.865v-6.683h-3.458v3.255h-3.406v-3.27h-3.464v3.239H60.59v-3.255h-3.406v3.271h-3.464v-3.281H33.058v-6.875h-3.412v3.265h-3.458v-3.229H22.73v3.245H12.438v-3.36H2.026v-3.442H19.21v-3.37h3.411v3.276h3.458v-3.24h3.459v3.256h3.406v-3.391h3.531v3.375h3.323v-3.333h-3.364v-3.417h24.104v-3.417h3.406v3.282h3.458v-3.245h3.454v3.26h3.406v-3.344h3.531l-.042-.046v3.364h3.485v-3.364l-.042.046 3.48-.046v3.369H88v-3.328h-3.37v-3.364h10.38v3.359h-3.374v3.328h3.333v-3.364l3.48.046-.037-.046v3.484h3.479l-.037-.037q.018 1.736.042 3.48h-3.37v3.401h3.365c0 1.161.005 2.323.005 3.484h-3.375v3.323h3.333v-3.365h3.48v3.375h3.323v-3.333h-3.365q-.001-1.742.005-3.484h3.36v-3.401h-3.365q.025-1.744.042-3.48l-.037.037h3.479v-3.484l-.036.041h3.479l-.036-.041v3.484h3.484l-.042-.037q.017 1.736.042 3.48h-3.365v3.401h3.36q.006 1.742.005 3.484h-3.37v3.323h3.328v-3.365h3.479v3.375h3.323v-3.333h-3.364c0-1.161.005-2.323.005-3.484h3.365v-3.401h-3.365q.017-1.744.042-3.48l-.042.037h3.484v-3.484l-.041.041h3.484l-.042-.041v3.484h3.485l-.042-.037c.016 1.157.026 2.318.042 3.48h-3.365v3.401h3.365v3.484h-3.37v3.323h3.333v-3.365h3.474v3.375h3.323v-3.333h-3.364q.006-1.742.005-3.484h3.364v-3.401h-3.364q.017-1.744.042-3.48l-.042.037h3.484v-3.484l-.041.041q1.741-.017 3.484-.041v3.442h3.443v3.485h-3.365v3.401h3.365q-.001 1.742.005 3.484h-3.375v3.323h3.333v-3.365q1.736-.002 3.479.006v3.442h3.443v3.485h-3.365v3.401h3.365c-.016 1.161-.026 2.323-.042 3.484l.042-.042h-3.484v3.485l.041-.042-3.432-.015v-3.443h-3.443q-.001-1.688.006-3.375h3.291v-3.401h-3.25v3.437c-1.166-.036-2.328-.067-3.489-.104v-3.292h-3.401v3.25h3.437l-.047 3.537h-3.37v3.323h3.334v-3.365c1.172-.015 2.349-.036 3.526-.052-.005 1.13-.005 2.255-.005 3.443h3.448c-.032 1.182-.058 2.364-.089 3.542l.042-.042h-3.427v3.385h-3.396v-3.297h-20.683v-6.974h-3.52l.036.042.016-3.432h3.297v-3.401h-3.25v3.437c-1.167-.036-2.329-.067-3.495-.104v-3.292h-3.401v3.25h3.437c-.026 1.183-.057 2.36-.083 3.542l.036-.042h-3.427v3.386h-3.406v-3.386h-3.531l.036.042.016-3.432h3.297v-3.401h-3.25c0 1.192 0 2.312-.005 3.437-1.162-.036-2.329-.067-3.49-.104v-3.292h-3.401v3.25h3.437a809 809 0 0 0-.083 3.542l.037-.042h-10.37v-3.437h3.37v-3.323h-3.334v3.365q-1.733.001-3.474-.006v-3.369h-3.323v3.333zm44.75 3.437v3.37h3.323v-3.333h-3.365l.063-3.427h3.291v-3.401h-3.25c0 1.192 0 2.312-.005 3.432q-1.74-.045-3.489-.099v-3.292h-3.401v3.25h3.437q-.017 1.773-.042 3.537h-3.369v3.323h3.328v-3.365c1.161 0 2.317 0 3.479.005m-34.432-13.776v3.375h3.328v-3.333H91.52c.016-1.146.037-2.286.058-3.432h3.296v-3.401h-3.25c0 1.192 0 2.317-.005 3.437l-3.547-.047v-3.369h-3.312v3.328h3.354c.005 1.161.005 2.323.01 3.484H84.75v3.323h3.334v-3.365zm-44.85-3.479v-3.297h-3.265v3.297zm3.615-3.317v3.27H53.6v-3.27zm6.86 3.286h3.27v-3.286h-3.27zm10.146.042v-3.318h-3.24v3.318zm6.89-.006v-3.317h-3.25v3.317zm3.62-.041h3.266v-3.276h-3.266zm-41.36 6.896h3.323v-3.245H36.48zm10.23.026v-3.292h-3.266v3.292zm13.776-3.292h-3.266v3.286h3.266zm6.854 3.292v-3.266h-3.26v3.266zm6.937-3.266h-3.312v3.24h3.312zm6.912 0h-3.323v3.219h3.323zm-27.615 3.26v-3.265h-3.27v3.265z"/></g><mask id="c" width="68" height="180" x="186" y="258" maskUnits="userSpaceOnUse" style="mask-type:luminance"><path fill="#fff" d="M186.668 258.667h66.667V437.62h-66.667z"/></mask><g mask="url(#c)"><path fill="#D9D9D9" d="M208.62 310.552h-3.432V300.24h-3.359v-3.464h3.26v-3.411h-6.797v-6.907h-3.359v-3.416h3.229v-3.464h-6.713v-6.854h-3.48v-3.536l-.041.041h3.364v-3.484h-3.364l.041.041q-.02-1.741-.041-3.484h3.442v-3.443h3.485v3.443h3.443v3.484h-3.365v3.402h3.365v3.479h-3.37v3.328h3.333v-3.37c1.156 0 2.313.005 3.474.005V276h3.323v-3.333h-3.365q.007-1.736.006-3.479h3.364v-3.402h-3.364v-3.484h3.442v-3.443h3.485v3.443h3.442v3.484h-3.364v3.402h3.364c0 1.161 0 2.317.006 3.479h-3.375v3.328h3.333v-3.37q1.736.006 3.479.005v3.443h3.443v3.484h-3.365v3.401h3.365q.032 1.766.057 3.532h-3.495v3.395q-1.718-.029-3.437-.052v-3.442h-3.443q-.001-1.695.005-3.381h3.292v-3.401h-3.25v3.438a694 694 0 0 0-3.49-.099v-3.297h-3.401v3.25c1.193 0 2.313 0 3.438.005l-.047 3.537h-3.37v3.323h3.333v-3.365q1.759-.03 3.527-.052c-.006 1.125-.006 2.255-.006 3.437 1.198 0 2.323 0 3.448.006l-.047 3.536h-3.364v3.406h3.364q-.001 1.736.006 3.48h-3.375v3.322h3.333v-3.364h3.474v3.375h3.323v-3.333h-3.365q.006-1.744.005-3.48h3.365v-3.406h-3.365c0-1.161.006-2.323.006-3.484h3.494v-3.391c1.141-.015 2.287-.031 3.427-.052v3.443h3.443q-.001 1.742.005 3.484h-3.369v3.406h3.364c0 1.157.005 2.318.005 3.48h-3.375v3.322h3.334v-3.364h3.474v3.375h3.328v-3.333h-3.365q-.001-1.744.005-3.48h3.36v-3.406h-3.365q-.001-1.742.005-3.484h3.443v-3.443h3.479v3.443h3.443c0 1.161.005 2.323.005 3.484h-3.37v3.406h3.365c0 1.157.005 2.318.005 3.48h-3.37v3.322h3.329v-3.364l3.479.047-.037-.042v3.484h3.479l-.036-.041v3.484l.036-.041h-3.359v3.484h3.359l-.036-.042.094 3.531h-3.438c0 1.193 0 2.318-.005 3.443l-3.542-.047v-3.442h-3.442c.02-1.146.036-2.292.057-3.433h3.297v-3.401h-3.25c0 1.193 0 2.313-.005 3.438a708 708 0 0 0-3.542-.052v-3.365h-3.318v3.328h3.354c.006 1.162.006 2.318.011 3.479h-3.375v3.329h3.333v-3.37q1.742.006 3.474.005v3.443h3.443c.005 1.161.005 2.323.01 3.484h-3.37v3.401h3.365c0 1.162.005 2.323.005 3.484h-3.37v3.323h3.329v-3.364h3.479v3.375h3.323v-3.334h-3.365q-.001-1.741.005-3.484h3.365v-3.401h-3.37c.021-1.146.042-2.286.057-3.432h3.443V314c1.146-.005 2.287-.005 3.432-.01l-.047-.042v3.427h3.386v3.401h-3.307v17.318h-3.511v-3.37h-3.328v3.333h3.365v3.427h-3.391v3.412h3.276v3.463h-3.245v3.464h3.266v3.411h-3.287v3.459h3.256v3.463h-3.308v20.625h-6.833v3.464h3.255v3.458h-3.276v3.412h3.292v3.411h-3.261v3.464h3.23v3.463h-3.271v20.62h-3.459v6.906h-3.369v3.464h3.25v3.37h-6.771v-20.495h-3.365v-10.349h3.255v-3.412h-3.276v-3.463h3.245v-3.464h-6.734v-20.62h-3.396v-3.463h3.245v-3.464h-3.266v-3.411h3.281v-3.458h-3.25v-3.464h3.271v-3.411h-6.797v-20.678h-3.359v-3.458h3.271v-3.411h-3.292v-3.412h3.261v-3.463h-3.23v-3.464h3.25v-3.411h-3.385v-3.532h3.37v-3.322h-3.334zm27.542 30.938v3.375h3.328v-3.334h-3.364c0-1.161.005-2.323.005-3.484h3.37v-3.318h-3.328v3.36c-1.146-.016-2.292-.037-3.438-.053v-3.296h-3.401v3.255h3.437q-.02 1.772-.041 3.536h-3.375v3.323h3.333v-3.364zm-13.771 0v3.375h3.328v-3.334h-3.369l.062-3.432h3.297v-3.401h-3.255v3.437c-1.167-.031-2.328-.067-3.49-.099v-3.296h-3.401v3.255h3.438q-.025 1.772-.042 3.536h-3.375v3.323h3.333v-3.364zm3.412-13.771h3.474v3.375h3.328v-3.334h-3.365c0-1.161.005-2.322.005-3.484h3.365v-3.318h-3.323v3.36a658 658 0 0 0-3.437-.052v-3.297h-3.401v3.25c1.192 0 2.317 0 3.437.005a824 824 0 0 0-.042 3.536h-3.375v3.323h3.334zm-6.886-13.776c1.157.005 2.318.005 3.474.005v3.37h3.328v-3.328h-3.369c.005-1.167.005-2.329.01-3.49h3.365v-3.318h-3.323v3.36a985 985 0 0 1-3.438-.052v-3.292h-3.401v3.25c1.193 0 2.313 0 3.438.005q-.025 1.765-.042 3.531h-3.375v3.329h3.333zm13.724 89.625h-3.291v3.265h3.291zm.037 6.927h-3.318v3.219h3.318zm-.042 6.864h-3.271v3.282h3.271zm-13.76-96.401h-3.271v3.266h3.271zm-.011 6.865h-3.281v3.26h3.281zm-3.276 20.646v3.265h3.271v-3.265zm10.167.01h-3.287v3.261h3.287zm6.885 0h-3.286v3.261h3.286zm6.88 3.313v-3.308h-3.281v3.308zm-17.057 3.521v3.317h3.245v-3.317zm10.172.057h-3.281v3.255h3.281zm3.609-.016v3.266h3.276v-3.266zm-10.52 10.198v-3.266h-3.276v3.266zm6.864.037v-3.318h-3.219v3.318zm6.943-3.313h-3.266v3.266h3.266zm-13.813 10.167v-3.266h-3.265v3.266zm6.891-.005v-3.266h-3.276v3.266zm6.875.01v-3.318h-3.255v3.318zm-13.734 3.594h-3.271v3.281h3.271zm6.906.021h-3.318v3.239h3.318zm6.906.005h-3.318v3.213h3.318zm-10.234 6.823v3.307h3.281v-3.307zm-6.927 10.187h3.317v-3.245h-3.317zm6.89-.031h3.318v-3.219h-3.318zm.021 6.891h3.318v-3.245h-3.318z"/></g><path fill="#D9D9D9" d="M177.636 258.854h-6.844v-6.812h-10.364v-3.511l-.047.037h3.364v-3.479h-3.364l.042.036c-.011-1.161-.027-2.323-.037-3.484h3.359v-3.401h-3.364q-.001-1.743.005-3.485h3.443v-3.443h3.479v3.443h3.443c0 1.162.005 2.323.005 3.485h-3.37v3.401h3.365c0 1.161.005 2.323.005 3.479h-3.375v3.328h3.333v-3.365h3.479v3.443h3.443c0 1.162.005 2.323.005 3.484h-3.37v3.401h3.365c-.01 1.167-.026 2.329-.036 3.49zM253.338 296.734v3.485l.047-.042H249.9v3.485l.042-.042h-3.484l.036.042v-3.485h-3.479l.036.042q-.017-1.742-.041-3.485h3.37v-3.406h-3.37v-3.479h3.448v-3.448h3.479v3.443h3.443c-.011 1.161-.026 2.328-.037 3.489l.042-.041h-3.365v3.484h3.365zM156.979 245.083h-10.328v-3.437l-.042.036h3.365v-3.484h-3.365l.042.042v-3.485l-.042.042h3.485v-3.485l-.042.042c1.162-.015 2.323-.026 3.484-.042v3.443h3.443v3.485h-3.364v3.406h3.364q-.017 1.74-.041 3.479zM125.995 196.922v-3.443h10.328l-.042-.041c.016 1.161.026 2.322.042 3.484h-3.365v3.406h3.365c-.016 1.156-.026 2.318-.042 3.479l.042-.041h-3.484v3.484l.041-.036h-3.484l.042.036v-3.484h-3.485l.042.041v-3.484l-.042.042h3.365v-3.485h-3.365zM112.182 200.37h3.411v-3.448h3.511l-.037-.042v3.485h3.484l-.041-.042v3.484l.041-.041h-3.484v3.484l.042-.036h-3.485l.042.036v-3.484h-3.484l.036.041v-3.484zM98.449 203.813v-3.422h3.411v-3.417h3.396v3.396h3.521l-.037-.047v3.484l.037-.041h-3.479v3.484l.036-.036h-3.479l.036.036v-3.484h-3.479zM139.725 193.479h3.411v-3.442h3.516l-.042-.042v3.484h3.484l-.041-.041q.024 1.741.041 3.484h-3.442v3.443h-3.485v-3.443h-3.442q.02-1.743.041-3.484z"/><path fill="#D9D9D9" d="M184.521 265.745h-6.885v-6.891l-.036.047a805 805 0 0 1 3.479-.042v3.443h3.448c-.016 1.162-.026 2.323-.042 3.485zM208.579 128.021q.03 1.71.052 3.427l.042-.047q-1.768.026-3.527.057l.042.037v-3.432h3.432zM218.959 131.5v-3.479l-.047.036h3.484l-.041-.036v3.479l.041-.036h-3.484zM205.146 131.458v3.365h-3.334v-3.328h3.376zM212.063 134.901h-3.396c0-1.187 0-2.344.006-3.5l-.042.047c1.083-.005 2.167-.005 3.39-.005v3.5zM215.51 134.943V131.5h3.448l-.047-.036v3.442h-3.442zM232.682 124.578v3.36h-3.328v-3.318h3.369z"/><path fill="#D9D9D9" d="M222.354 131.5h3.442v3.443l.042-.037h-3.443v-3.442zM229.344 134.99v-3.438h3.245v3.401h-3.292c0-.005.047.037.047.037M239.604 134.901h-3.354v-3.323h3.318v3.365zM243.115 134.99v-3.438h3.25v3.401h-3.297c0-.005.047.037.047.037M253.432 134.844h-3.438v-3.25h3.396v3.297zM212.021 134.943h3.49l-.042-.037c.016 1.162.032 2.318.042 3.479-1.161-.01-2.323-.026-3.484-.036l.041.036q.001-1.741-.005-3.484z"/><path fill="#D9D9D9" d="m225.797 134.943 3.542.047c.005 0-.042-.042-.042-.037q-.025 1.72-.057 3.432l.041-.036c-1.161.01-2.323.026-3.484.036.016-1.161.026-2.317.042-3.479zM239.568 134.943l3.547.047s-.047-.042-.047-.037c-.015 1.146-.036 2.287-.057 3.432l.042-.041h-3.479l.041.041c0-1.161-.005-2.322-.005-3.484a.3.3 0 0 0-.042.042M253.385 138.385c.016-1.182.032-2.359.042-3.541a.3.3 0 0 1-.036.047h3.39v3.494l.042-.041h-3.479zM201.745 141.828v-3.359h3.323v3.317h-3.365zM212.068 141.787h-3.365v-3.401h3.365l-.042-.037v3.484zM229.24 138.386h3.365v3.401h-3.36l.037.046v-3.484zM239.572 138.344v3.364h-3.328v-3.323h3.37z"/><path fill="#D9D9D9" d="M243.01 138.385h3.364v3.329h-3.323v-3.37zM253.344 138.344v3.364h-3.328v-3.323h3.369zM256.781 138.385h3.365v3.329h-3.323v-3.37zM201.704 141.787q-.006 1.74-.005 3.489l.041-.041h-3.484l.042.041v-3.448h3.447zM212.067 145.276v-3.489l-.042.046q1.743-.02 3.485-.041v3.479c-1.162-.01-2.323-.026-3.485-.036zM229.245 141.787q-.006 1.74-.005 3.489l.041-.041c-1.161.01-2.323.026-3.484.036v-3.479q1.742.02 3.484.041zM198.296 148.677h-3.364v-3.401h3.364l-.041-.042v3.485z"/><path fill="#D9D9D9" d="M201.697 145.276h3.443v3.443l.042-.042h-3.485l.042.042v-3.485zM208.626 148.719v-3.443h3.442l-.041-.042v3.443h-3.443zM222.359 124.62h3.359v3.401h-3.364l.041.036v-3.484zM229.24 145.276h3.443v3.443l.042-.042h-3.443v-3.443zM236.173 148.714v-3.36h3.322v3.318h-3.364zM246.494 148.672h-3.359v-3.323h3.317v3.365zM250 148.766v-3.438h3.25v3.396h-3.297zM260.318 148.615h-3.437v-3.245h3.396v3.292c0 .005.041-.047.041-.047"/><path fill="#D9D9D9" d="M198.298 152.162v-3.485l-.042.042h3.484l-.041-.042q.02 1.743.041 3.485c-1.161-.016-2.323-.026-3.484-.042zM205.141 148.719h3.484l-.042-.042q.026 1.743.042 3.485h-3.484q.017-1.743.041-3.485zM236.13 148.672c0 1.161-.006 2.323-.006 3.489l.042-.041q-1.742.02-3.484.041.024-1.741.041-3.484l-.041.042c1.161-.005 2.328-.005 3.489-.005zM246.453 148.714q1.774.022 3.547.052l-.047-.042a785 785 0 0 1-.057 3.437l.047-.041h-3.485l.042.041c-.005-1.161-.005-2.328-.005-3.489zM260.27 152.162c.016-1.183.031-2.36.042-3.542a.3.3 0 0 1-.037.042h3.396v3.5l.042-.042h-3.484zM194.854 155.604v-3.442h3.443l-.042-.042v3.443h-3.443zM218.958 128.021h-3.364v-3.401h3.359l-.042-.047v3.484zM236.125 152.162h3.365v3.401h-3.36l.037.041v-3.484z"/><path fill="#D9D9D9" d="M246.494 155.563h-3.359v-3.401h3.364l-.041-.042v3.484zM249.896 152.162h3.365v3.401h-3.359l.041.041v-3.484zM260.271 155.563h-3.365v-3.401h3.365l-.042-.042v3.484zM263.672 152.162h3.364v3.401h-3.364l.042.041v-3.484zM191.411 159.047v-3.443h3.443l-.042-.042c.015 1.162.026 2.323.042 3.485-1.162-.016-2.323-.026-3.485-.042zM236.13 155.562c0 1.162-.006 2.323-.006 3.485l.042-.042c-1.161.016-2.323.026-3.484.042v-3.485c1.161.016 2.323.027 3.484.042z"/><path fill="#D9D9D9" d="M246.501 159.047q.002-1.743-.006-3.485l-.036.042h3.484l-.041-.042q.001 1.743-.006 3.485l.047-.042h-3.484zM260.27 159.042v-3.48l-.041.042h3.484l-.042-.042c0 1.162-.005 2.323-.005 3.48l.042-.037q-1.742-.006-3.474-.005zM187.969 162.49v-3.443h3.443l-.042-.042c.016 1.162.026 2.323.042 3.485-1.161-.016-2.323-.026-3.484-.042zM236.125 159.047h3.443v3.443l.041-.042c-1.161.016-2.323.026-3.484.042q.025-1.743.042-3.485zM243.057 162.49v-3.443h3.443l-.042-.042v3.443h-3.442zM208.62 128.063q-.024-1.713-.041-3.433l-.042.047h3.396v3.344h-3.354z"/><path fill="#D9D9D9" d="M249.896 159.047h3.443v3.443l.047-.042h-3.443v-3.443zM260.235 159v3.443h-3.448l.042.041v-3.442h3.442zM263.666 159.042h3.495v3.396l.041-.047h-3.494v-3.386zM270.657 162.537v-3.438h3.25v3.401h-3.291zM184.526 165.932v-3.442h3.443l-.042-.042c.016 1.161.026 2.323.042 3.484q-1.743-.017-3.485-.041zM239.568 162.49h3.49l-.042-.042q.017 1.742.042 3.484h-3.49q.025-1.742.042-3.484z"/><path fill="#D9D9D9" d="M256.786 162.443q.001 1.749-.005 3.489l.046-.041q-1.741.024-3.484.041.017-1.741.042-3.484l-.047.042q1.749.001 3.489-.005zM267.161 165.927q.017-1.764.041-3.536l-.041.047c1.166.031 2.328.062 3.495.098l-.042-.036-.063 3.432.042-.041c-1.156 0-2.318 0-3.474-.006zM181.083 169.375v-3.443h3.442l-.041-.041q.02 1.742.041 3.484c-1.161-.01-2.323-.026-3.484-.036zM232.723 124.62c0-1.162.006-2.323.006-3.485l-.042.042h3.479l-.042-.042v3.48l.037-.042c-1.156 0-2.318.005-3.479.005zM222.355 121.135q-.001 1.743.005 3.485l.036-.047h-3.484l.042.047c0-1.162.005-2.323.005-3.485l-.042.042h3.479zM208.578 121.135c-.01 1.178-.026 2.36-.042 3.537 0 .005.042-.042.042-.042h-3.328v-3.453h3.37zM253.276 121.125h-3.245v-3.318h3.245z"/><path fill="#D9D9D9" d="M256.781 165.932h3.365v3.401h-3.36l.042.042v-3.484zM267.12 165.885v3.365h-3.333v-3.323h3.375zM270.553 165.932h3.364v3.328h-3.323v-3.369zM277.557 165.984h3.281v3.266h-3.281zM177.641 172.818v-3.443h3.443l-.042-.036q.017 1.735.042 3.479c-1.161-.011-2.323-.026-3.484-.037z"/><path fill="#D9D9D9" d="M256.786 169.333q.001 1.743-.005 3.485l.047-.037c-1.161.011-2.323.026-3.484.037v-3.479c1.161.01 2.323.026 3.484.036zM174.198 176.26v-3.442h3.443l-.042-.037c.01 1.162.026 2.318.042 3.479-1.162-.01-2.323-.026-3.485-.036zM243.104 121.068v-3.25h3.276v3.25zM236.167 121.177v-3.365h3.328v3.323h-3.37z"/><path fill="#D9D9D9" d="M256.781 172.818h3.448v3.442l.042-.036h-3.443v-3.443zM263.771 176.313v-3.443h3.25v3.401h-3.296zM274.088 176.162h-3.438v-3.25h3.401c0 1.062 0 2.182-.005 3.296zM277.489 176.26v-3.359h3.323v3.318h-3.365zM287.859 176.162h-3.437v-3.25h3.401c0 1.062 0 2.182-.005 3.296zM170.755 179.703v-3.442h3.442l-.041-.037q.017 1.744.041 3.479c-1.161-.01-2.323-.026-3.484-.036z"/><path fill="#D9D9D9" d="m260.229 176.261 3.541.046a.3.3 0 0 1-.047-.036c-.015 1.146-.036 2.292-.052 3.432l.042-.036c-1.162.01-2.323.026-3.484.036q.017-1.735.041-3.479zM277.448 176.219q-.006 1.742-.005 3.484l.041-.036H274l.042.036.047-3.536a.3.3 0 0 0-.042.041q1.725.023 3.443.052zM287.818 179.703c.011-1.177.026-2.359.042-3.536 0-.006-.042.041-.042.041h3.396v3.495l.042-.036h-3.485zM160.428 183.151v-3.364h3.396v3.364l.041-.041h-3.484zM167.313 183.151v-3.448h3.443l-.042-.036q.017 1.743.042 3.479c-1.162-.011-2.323-.026-3.485-.037zM263.672 179.703h3.364v3.401h-3.364l.042.047v-3.484z"/><path fill="#D9D9D9" d="M274.042 183.104h-3.364v-3.401h3.364l-.041-.036v3.484zM277.443 179.703h3.365v3.401h-3.365l.042.047v-3.484zM287.812 183.104h-3.365v-3.401h3.37l-.047-.036v3.484zM291.213 179.703h3.364v3.401h-3.359l.037.047v-3.484zM156.984 186.594v-3.443h3.443l-.047-.042.047 3.485c-1.167-.016-2.328-.026-3.489-.042zM163.822 183.151h3.49l-.042-.042q.017 1.743.042 3.485h-3.49q.025-1.743.042-3.485zM263.671 183.104v3.49l.042-.042c-1.162.016-2.323.026-3.484.042v-3.485c1.161.016 2.322.026 3.484.042z"/><path fill="#D9D9D9" d="M274.042 186.594v-3.49l-.042.047h3.484l-.041-.047v3.49l.041-.042H274zM291.219 183.104q-.006 1.749-.005 3.49l.042-.042h-3.485l.047.042q-.006-1.741-.005-3.49l-.042.047h3.485zM146.651 190.036v-3.364h3.401v3.364l.042-.041h-3.485zM153.541 190.037v-3.443h3.443l-.047-.042q.024 1.743.042 3.485c-1.162-.016-2.323-.026-3.485-.042zM263.672 186.594h3.443v3.443l.041-.042c-1.161.016-2.323.026-3.484.042q.017-1.743.042-3.485zM270.598 190.037v-3.443h3.443l-.042-.042v3.443h-3.442zM232.73 121.136h-3.365v-3.334h3.323v3.375zM277.443 186.594h3.443v3.443l.042-.042h-3.443v-3.443z"/><path fill="#D9D9D9" d="M284.37 190.037v-3.443h3.448l-.047-.042v3.443h-3.443zM222.395 121.177v-3.365h3.328v3.323h-3.369zM291.213 186.594h3.443v3.443l.041-.042h-3.442v-3.443zM298.203 190.083v-3.437h3.25v3.401c-1.062 0-2.182 0-3.297-.005zM308.521 189.932h-3.443v-3.244h3.401v3.291c0 .005.042-.047.042-.047M136.323 193.479v-3.364h3.401v3.364l.042-.041h-3.485zM218.958 121.136h-3.364v-3.334h3.323v3.375zM150.053 190.037h3.489l-.047-.042c.016 1.161.026 2.323.042 3.484q-1.742-.017-3.484-.041l.041.041v-3.484zM208.62 121.177v-3.365h3.333v3.323h-3.375zM250 110.891h3.26v3.281H250zM243.115 110.891h3.255v3.281h-3.255zM267.115 190.037h3.485l-.042-.042c.016 1.161.026 2.323.042 3.484h-3.485q.017-1.742.042-3.484zM280.885 190.037h3.484l-.042-.042q.026 1.742.042 3.484h-3.484q.02-1.742.041-3.484z"/><path fill="#D9D9D9" d="M294.656 190.037c1.183.015 2.36.026 3.547.046l-.047-.041q-.024 1.718-.057 3.437l.042-.041q-1.742.02-3.485.041c.016-1.161.026-2.323.042-3.484zM311.911 193.432h-3.479l.041.042c.016-1.177.026-2.359.042-3.536.005-.006-.036.046-.036.041h3.39v3.495zM119.105 196.922v-3.365h3.401v3.365l.047-.042h-3.485zM236.203 114.198v-3.281h3.307v3.281zM236.125 124.615h3.365v3.328h-3.329v-3.37zM243.1 127.938v-3.271h3.265v3.271zM249.99 124.651h3.281v3.307h-3.281zM229.193 110.901h3.443v3.25h-3.401v-3.291a.3.3 0 0 0-.042.041M225.74 110.755v3.438h-3.25v-3.401c1.063 0 2.177 0 3.297.005zM215.422 110.901h3.437v3.25h-3.395v-3.291a.3.3 0 0 0-.042.041M298.1 193.479h3.364v3.401h-3.359l.036.042v-3.484z"/><path fill="#D9D9D9" d="M308.432 193.432v3.365h-3.328v-3.323h3.369zM311.869 193.474h3.365v3.333h-3.323v-3.375zM318.838 196.797v-3.26h3.266v3.26zM329.037 193.552v3.281h-3.266v-3.281zM335.916 196.839h-3.266v-3.292h3.266zM212.025 110.807v3.355h-3.328v-3.313h3.365zM108.777 200.37V197h3.406v3.37l.036-.047h-3.479zM225.803 107.401c1.161 0 2.317.005 3.479.005l-.042-.041q-.02 1.764-.041 3.536c-.006 0 .036-.047.036-.041-1.167-.037-2.328-.068-3.495-.105l.047.042q.025-1.72.057-3.432zM122.506 196.922h3.489l-.041-.042v3.485l.041-.042h-3.484l.042.042v-3.485zM298.104 196.88q-.006 1.743-.005 3.485l.042-.042c-1.162.016-2.323.026-3.485.042v-3.485c1.162.016 2.323.026 3.485.042zM77.792 203.813v-3.365h3.4v3.365l.042-.047H77.75z"/><path fill="#D9D9D9" d="M212.062 110.849c.005-1.161.005-2.323.01-3.484l-.041.036c1.161 0 2.317.005 3.474.005l-.037-.041-.047 3.536s.042-.047.042-.041c-1.146-.016-2.292-.037-3.438-.053zM246.423 104.005v3.282h-3.308v-3.282zM298.1 200.365h3.442v3.442l.042-.041h-3.443v-3.443zM305.088 203.854v-3.437h3.25v3.401h-3.297c0-.005.047.036.047.036M315.406 203.708h-3.443v-3.25h3.401v3.297zM318.801 203.802v-3.354h3.329v3.312h-3.37zM329.178 203.708h-3.438v-3.25h3.396v3.297zM332.63 203.854v-3.437h3.25v3.401h-3.292zM339.506 200.401h3.281v3.307h-3.281zM346.4 200.406h3.266v3.292H346.4zM353.303 200.417h3.281v3.265h-3.281zM360.15 203.719v-3.281h3.308v3.281zM367.053 203.703v-3.25h3.276v3.25zM236.203 107.307v-3.276h3.307v3.276zM229.282 107.406v-3.364h3.328v3.323h-3.37zM225.843 107.365h-3.364v-3.334h3.322v3.37zM215.505 107.406v-3.364h3.334v3.323h-3.37z"/><path fill="#D9D9D9" d="m301.541 203.807 3.547.047s-.047-.041-.047-.036a786 786 0 0 1-.057 3.432l.041-.036c-1.161.01-2.323.026-3.484.036q.025-1.742.042-3.484zM318.761 203.761q.001 1.748-.005 3.489l.047-.036h-3.485l.042.036c.016-1.177.026-2.359.042-3.542a.3.3 0 0 1-.037.047l3.438.047zM329.13 207.25l.046-3.542-.041.047c1.166.032 2.328.063 3.495.099l-.042-.036c-.021 1.146-.042 2.286-.057 3.432l.041-.036h-3.484zM212.074 107.365h-3.365v-3.334h3.323v3.37zM304.984 207.25h3.365v3.401h-3.359l.036.042v-3.479zM315.354 210.651h-3.36v-3.401h3.365l-.042-.036v3.479z"/><path fill="#D9D9D9" d="M318.756 207.25h3.364v3.401h-3.359l.042.042v-3.479zM329.13 210.651h-3.364v-3.401h3.364l-.041-.036v3.479zM332.531 207.25h3.365v3.401h-3.365l.042.042v-3.479zM342.813 207.312v3.256h-3.282v-3.256zM349.713 207.344v3.239H346.4v-3.239zM353.281 210.594v-3.255h3.276v3.255zM360.119 210.589v-3.245h3.318v3.245zM367.037 210.568v-3.25h3.318v3.25zM377.244 207.328v3.271h-3.265v-3.271zM384.088 210.62h-3.25v-3.318h3.25zM390.975 210.62h-3.25v-3.318h3.25zM394.604 207.297h3.26v3.286h-3.26zM401.438 210.589v-3.245h3.317v3.245zM411.631 210.62h-3.25v-3.318h3.25zM415.266 207.302h3.255v3.276h-3.255zM304.989 210.651c0 1.162-.005 2.323-.005 3.484l.041-.036c-1.161.01-2.323.026-3.484.036v-3.479c1.161.011 2.323.026 3.484.037z"/><path fill="#D9D9D9" d="M318.761 210.651q.001 1.743-.005 3.484l.047-.036h-3.485l.042.036q.001-1.741-.005-3.484l-.037.042h3.485zM329.187 214.188c-.021-1.183-.037-2.36-.057-3.537l-.042.042h3.484l-.041-.042.046 3.432.042-.046-3.474.109a.3.3 0 0 0 .042.042M246.4 100.432h-3.265v-3.297h3.265zM304.984 214.136h3.443v3.442l.042-.036c-1.162.01-2.323.026-3.485.036q.026-1.735.042-3.479zM311.917 217.578v-3.442h3.442l-.041-.037v3.443h-3.443zM236.266 97.1h3.234v3.317h-3.234z"/><path fill="#D9D9D9" d="M318.756 214.136h3.443v3.442l.046-.036h-3.442v-3.443zM325.687 217.578v-3.396h3.5c0 .006-.047-.036-.042-.036v3.391h-3.495zM336.063 217.479h-3.448c0-1.182 0-2.312.005-3.442l-.042.046h3.448c0 1.224 0 2.334-.005 3.443zM339.517 217.63v-3.442h3.25v3.401h-3.292a.3.3 0 0 0 .042.041M349.834 217.479h-3.438v-3.245h3.402c0 1.058 0 2.177-.006 3.292zM353.235 217.578v-3.359h3.323v3.317h-3.365zM363.604 217.479h-3.438v-3.245h3.401v3.292a.3.3 0 0 1 .037-.047M367.063 217.63v-3.442h3.25v3.401h-3.297zM373.932 217.464v-3.271h3.265v3.271zM384.126 214.198v3.255h-3.276v-3.255zM387.729 214.146h3.239v3.312h-3.239zM397.916 214.234v3.235h-3.312v-3.235zM401.479 214.177h3.281v3.302h-3.281zM415.24 217.49v-3.276h3.302v3.276zM429.025 217.479v-3.255h3.276v3.255z"/><mask id="d" width="4" height="6" x="442" y="213" maskUnits="userSpaceOnUse" style="mask-type:luminance"><path fill="#fff" d="M442.668 213.333h3.312v5.334h-3.312z"/></mask><g mask="url(#d)"><path fill="#D9D9D9" d="M446.117 214.229v3.25h-3.318v-3.25z"/></g><path fill="#D9D9D9" d="M229.381 97.078h3.213v3.318h-3.213zM225.718 100.427h-3.271v-3.265h3.271zM218.87 97.146v3.276h-3.27v-3.276zM208.688 97.12h3.25v3.276h-3.25zM243.104 90.219h3.276v3.307h-3.276zM229.359 90.23h3.271v3.265h-3.271zM308.428 217.578h3.489l-.041-.036q.017 1.743.041 3.479h-3.489q.024-1.736.041-3.479zM325.65 217.537q-.006 1.74-.005 3.489l.042-.041c-1.162.01-2.323.026-3.485.036q.018-1.736.042-3.479l-.047.036h3.49zM336.02 221.021q.017-1.772.042-3.536c0-.006-.042.041-.042.041 1.167.031 2.328.068 3.495.099 0 .005-.047-.036-.042-.036l-.062 3.432.041-.042h-3.473zM353.193 217.537c-.005 1.161-.006 2.323-.011 3.484l.042-.042h-3.474l.042.042q.017-1.772.041-3.536c0-.006-.041.041-.041.041q1.726.022 3.442.052zM366.995 220.979h-3.474l.042.042c.016-1.182.026-2.359.042-3.536 0-.006-.042.041-.037.041 1.162.031 2.328.068 3.495.099 0 .005-.047-.036-.047-.036a786 786 0 0 0-.057 3.432zM222.447 90.219h3.276v3.307h-3.276zM218.818 93.552h-3.24V90.24h3.24zM243.104 83.334h3.276v3.302h-3.276zM239.484 86.667h-3.25v-3.318h3.25zM325.646 221.026h3.365v3.401h-3.365l.042.042v-3.485z"/><path fill="#D9D9D9" d="M335.98 220.979v3.365h-3.334v-3.323h3.375zM339.412 221.021h3.365v3.333h-3.323v-3.375zM349.749 220.979v3.365h-3.333v-3.323h3.375zM353.182 221.021h3.364v3.333h-3.323v-3.375zM363.521 220.979v3.365h-3.328v-3.323h3.37zM232.588 86.667h-3.234v-3.313h3.234zM366.959 221.021h3.365v3.333h-3.329v-3.375zM377.223 224.422h-3.244v-3.318h3.244zM380.822 224.354v-3.281h3.266v3.281zM387.729 221.031h3.239v3.318h-3.239zM394.594 224.365v-3.256h3.281v3.256zM401.51 221.068h3.271v3.271h-3.271zM411.714 221.094v3.239h-3.318v-3.239zM415.291 221.057h3.25v3.318h-3.25zM422.135 224.37v-3.266h3.286v3.266zM311.911 227.87h-3.479l.036.042c-.01-1.162-.026-2.323-.036-3.485h3.484a810 810 0 0 0-.042 3.485zM325.646 224.427l.047 3.427c0 .006.041-.047.041-.047l-3.531.063.042.042a810 810 0 0 1-.042-3.485c1.162.016 2.323.026 3.485.042z"/><path fill="#D9D9D9" d="M308.433 227.87v3.443h-3.443l.037.041v-3.442h3.442zM315.354 231.313h-3.443v-3.443l-.036.042h3.443v3.442zM322.202 227.87v3.443h-3.442l.041.041v-3.442h3.443zM329.178 231.255h-3.448c0-1.187 0-2.312.005-3.442 0-.006-.042.046-.042.041h3.443v3.443c0 .005.042-.042.042-.042M332.574 231.349v-3.354h3.328v3.312h-3.365zM342.895 231.307h-3.354v-3.323h3.313v3.365zM346.407 231.401v-3.437h3.244v3.401c-1.062 0-2.177 0-3.291-.006-.005 0 .047.042.047.042M356.719 231.255h-3.438v-3.25h3.401v3.292zM360.12 231.349v-3.354h3.323v3.312h-3.365zM370.343 231.266h-3.255v-3.282h3.255zM373.896 231.214V228h3.318v3.214zM380.818 231.255v-3.26h3.292v3.26zM98.412 231.312v3.365h-3.407v-3.365l-.036.042h3.479zM112.183 231.312v3.365h-3.406v-3.365l-.037.042h3.479zM222.438 86.646v-3.271h3.291v3.27zM215.557 86.64v-3.26h3.281v3.26zM239.516 79.77h-3.266v-3.29h3.266zM229.381 76.422h3.213v3.318h-3.213zM225.792 76.51v3.214h-3.317V76.51zM218.881 76.505v3.24h-3.313v-3.24zM304.989 231.312c0 1.162-.005 2.323-.005 3.485l.041-.042c-1.161.016-2.323.026-3.484.042 0-1.162.005-2.323.005-3.485 1.162.016 2.318.027 3.479.042z"/><path fill="#D9D9D9" d="M315.36 234.797q.001-1.743-.005-3.485l-.037.042h3.485l-.042-.042q.001 1.743-.005 3.485l.047-.042h-3.485zM332.536 231.307c-.005 1.162-.005 2.323-.01 3.485l.042-.037q-1.741-.006-3.474-.005l.036.042.047-3.537s-.042.047-.042.042c1.146.016 2.292.036 3.438.052zM342.854 231.349q1.773.022 3.546.052c.006 0-.046-.042-.041-.042v3.391h-3.495l.042.042c-.006-1.162-.006-2.323-.011-3.485zM360.078 231.307v3.36h-3.359v-3.412l-.037.042c1.146.016 2.292.036 3.438.052zM304.984 234.797h3.365v3.401h-3.359l.036.042v-3.485zM315.354 238.198h-3.36v-3.401h3.365l-.042-.042v3.485z"/><path fill="#D9D9D9" d="M318.756 234.797h3.364v3.401h-3.359l.042.042v-3.485zM329.093 234.75v3.365h-3.333v-3.323h3.37zM332.525 234.792h3.365v3.333h-3.323v-3.37zM342.865 234.75v3.365h-3.334v-3.323h3.375zM146.65 241.646h-3.442v-3.448l-.042.042h3.484l-.041-.042v3.484zM304.99 238.198c0 1.161-.006 2.323-.006 3.484l.042-.041h-3.479l.036.041c-.01-1.161-.026-2.323-.036-3.484 1.161.016 2.318.026 3.479.042z"/><path fill="#D9D9D9" d="M318.761 238.198v3.365h-3.406v-3.365l-.037.042h3.485zM301.583 245.083h-3.479l.036.042c-.01-1.161-.026-2.323-.036-3.484 1.161.015 2.317.026 3.479.041l-.037-.041v3.484zM304.984 241.682h3.365v3.401h-3.359l.036.042v-3.484zM160.427 248.531h-3.448v-3.448l-.041.042h3.484l-.042-.036v3.479zM239.542 69.62v3.24h-3.317v-3.24zM232.61 72.88h-3.276v-3.265h3.276zM225.725 72.875h-3.282v-3.266h3.282zM215.572 69.573h3.255v3.281h-3.255zM229.344 62.688h3.255v3.275h-3.255zM215.562 65.98v-3.256h3.277v3.255zM232.594 59.12h-3.25v-3.318h3.25z"/><path fill="#D9D9D9" d="M298.105 245.083v3.443h-3.443l.037.042c-.011-1.162-.026-2.323-.037-3.485 1.162.016 2.318.032 3.479.042zM304.99 245.083v3.365h-3.407v-3.365l-.036.042h3.479zM294.661 248.526v3.443h-3.442l.036.041c-.01-1.161-.026-2.322-.036-3.484q1.735.025 3.479.042z"/><path fill="#D9D9D9" d="M291.219 251.969v3.442h-3.448l.042.047c-.01-1.161-.026-2.328-.036-3.489q1.735.024 3.479.041z"/><path fill="#D9D9D9" d="M287.771 255.412v3.442h-3.443l.042.047a822 822 0 0 0-.042-3.489l3.485.046zM225.765 55.839v3.25h-3.318v-3.25zM218.854 59.11h-3.26v-3.287h3.26zM236.266 48.875h3.218v3.318h-3.218zM225.725 52.219h-3.282v-3.266h3.282zM236.229 42.026h3.255v3.281h-3.255zM284.327 258.854v3.448h-3.442l.041.042q-.02-1.742-.041-3.485 1.742.017 3.484.042z"/><path fill="#D9D9D9" d="M280.886 262.302v3.443h-3.443l.042.042c-.016-1.162-.026-2.323-.042-3.485q1.742.017 3.485.042zM187.969 269.188h-3.448v-3.443l-.037.042h3.485l-.042-.042v3.484zM277.443 265.745v3.443H274l.042.041c-.016-1.161-.026-2.323-.042-3.484q1.742.017 3.484.042zM273.999 269.188v3.442h-3.442l.041.042q-.02-1.743-.041-3.484 1.742.02 3.484.041zM225.766 42.073v3.24h-3.313v-3.24zM232.65 28.302v3.24h-3.312v-3.24zM222.428 24.63v-3.24h3.317v3.24z"/><path fill="#D9D9D9" d="M270.558 272.63v3.443h-3.443l.042.042c-.016-1.162-.026-2.323-.042-3.485 1.162.016 2.323.026 3.485.042zM267.115 276.073v3.443h-3.443l.042.041c-.016-1.161-.026-2.323-.042-3.484 1.161.016 2.323.026 3.484.042zM263.671 279.516v3.442h-3.442l.041.042q-.02-1.742-.041-3.484 1.741.024 3.484.041z"/><path fill="#D9D9D9" d="M260.23 282.958v3.485l.041-.037c-1.161.011-2.322.026-3.484.037v-3.485q1.743.026 3.484.042zM222.469 14.484h3.281v3.266h-3.281z"/><path fill="#D9D9D9" d="M260.229 286.443h3.364v3.401h-3.364l.041.041v-3.479z"/><path fill="#D9D9D9" d="M260.23 289.844v3.442h-3.443l.042.047a809 809 0 0 1-.042-3.484c1.162.01 2.323.026 3.484.036zM256.786 293.287v3.448h-3.448l.047.041v-3.484l-.042.041h3.484zM253.338 300.219h3.364v3.401h-3.359l.042.042v-3.485z"/><path fill="#D9D9D9" d="M253.343 303.62v3.443H249.9l.042.041v-3.484l-.042.042h3.485z"/><path fill="#D9D9D9" d="M249.902 307.062q.001 1.742-.006 3.485l.047-.042h-3.484l.036.042v-3.485l-.036.042h3.484z"/><path fill="#D9D9D9" d="M249.896 310.547h3.365v3.401h-3.365l.047.042v-3.485z"/><mask id="e" width="5" height="4" x="229" y="0" maskUnits="userSpaceOnUse" style="mask-type:luminance"><path fill="#fff" d="M229.334.667h4V4h-4z"/></mask><g mask="url(#e)"><path fill="#D9D9D9" d="M229.34.703h3.265v3.292h-3.265z"/></g><path fill="#D9D9D9" d="M139.766 196.88v3.485h-3.485v-3.485z"/><path fill="#D9D9D9" d="M143.209 200.323v3.484h-3.484v-3.484z"/><path fill="#D9D9D9" d="M143.166 203.771q1.742.017 3.484.042l-.041-.047v3.484l.041-.042q-1.742.026-3.484.042zM105.333 214.135h-3.479v-3.479h3.479zM119.109 214.135h-3.484v-3.479h3.484zM132.881 214.135h-3.485v-3.479h3.485z"/><path fill="#D9D9D9" d="m153.536 220.979-3.484.047v-3.443h-3.443q.025-1.742.042-3.484l-.042.036h3.365v-3.479h-3.365l.042.037v-3.485l-.042.042h3.485v-3.484l-.042.041q1.743-.017 3.484-.041v3.442h3.443v3.485h-3.364v3.401h3.364c-.015 1.161-.026 2.328-.041 3.489l.041-.041h-3.484v3.484z"/><path fill="#D9D9D9" d="M146.65 214.099c-1.161.01-2.323.026-3.484.036v-3.479c1.161.011 2.323.026 3.484.037l-.041-.037v3.479zM156.937 234.797v-3.443h-3.443l.047-3.484-.047.042h3.365v-3.485h-3.365l.047.042q-.006-1.741-.005-3.49l-.042.047h3.485v-3.484l-.042.041q1.742-.024 3.484-.041v3.442h3.443c-.01 1.162-.026 2.323-.037 3.485l.037-.042h-3.365v3.485h3.365l-.042-.042q.025 1.742.042 3.484h-3.443v3.443z"/><path fill="#D9D9D9" d="M153.542 227.87c-1.166.016-2.328.026-3.489.042v-3.485c1.161.016 2.323.026 3.489.042l-.047-.042v3.485zM184.484 262.344v-3.443h-3.443c.016-1.161.026-2.323.042-3.484l-.042.041h3.365v-3.484h-3.365l.042.037v-3.48l-.042.037h3.484v-3.479l-.041.036q1.743-.016 3.479-.042v3.443h3.443c-.011 1.162-.026 2.323-.037 3.485l.042-.037h-3.365v3.484h3.365l-.047-.041.047 3.484h-3.443v3.443zM201.74 262.344h-3.485v-3.443h-3.443c.016-1.161.027-2.323.042-3.484l-.042.041h3.365v-3.484h-3.365l.042.037q-.024-1.736-.042-3.48h3.443v-3.448h3.485v3.443h3.442c-.015 1.162-.026 2.323-.041 3.485l.041-.037h-3.364v3.484h3.364l-.041-.041q.017 1.742.041 3.484h-3.442z"/><path fill="#D9D9D9" d="M194.855 255.417h-3.49l.047.041v-3.484l-.042.037h3.485l-.042-.037v3.484zM208.625 255.411q-1.742.007-3.484.006l.041.041v-3.484l-.041.036q1.742-.017 3.484-.041c-.016 1.161-.026 2.328-.042 3.489zM212.068 258.854l-3.484.047c.016-1.161.026-2.328.042-3.489l-.042.046 3.484-.046q-.02 1.748-.041 3.489z"/><path fill="#D9D9D9" d="M215.51 262.302q-1.743.017-3.485.042c.016-1.162.026-2.323.042-3.49l-.042.047q1.743-.025 3.485-.042c-.016 1.162-.026 2.323-.042 3.485zM201.74 269.229h-3.484v-3.484h3.484z"/><path fill="#D9D9D9" d="M222.396 276.073c-1.162.016-2.323.026-3.485.042v-3.443h-3.442q.024-1.743.041-3.484l-.041.041h3.364v-3.484h-3.364l.041.041v-3.484l-.041.042h3.442v-3.485h3.485v3.443h3.443q-.001 1.743.005 3.484h-3.37v3.402h3.365c-.016 1.161-.026 2.322-.042 3.484l.042-.042h-3.485v3.485z"/><path fill="#D9D9D9" d="M215.51 269.188q-1.743.02-3.485.041v-3.484c1.162.015 2.323.026 3.485.042l-.042-.042v3.484zM229.281 289.886h-3.485v-3.443h-3.442l.046-3.479-.046.036h3.364v-3.484h-3.364l.046.041q-.006-1.741-.005-3.484l-.041.042h3.484v-3.485l-.042.042c1.162-.016 2.323-.026 3.485-.042v3.443h3.442c-.01 1.162-.026 2.323-.036 3.484l.036-.041h-3.364V283h3.364l-.041-.036c.015 1.161.031 2.317.041 3.479h-3.442z"/><path fill="#D9D9D9" d="M222.402 282.964c-1.162.01-2.328.026-3.49.036v-3.479c1.162.01 2.328.026 3.49.036l-.047-.041V283zM246.495 286.443h-3.443v3.443h-3.479v-3.443h-3.443c.011-1.162.026-2.318.042-3.479l-.042.036h3.365v-3.484h-3.365l.037.041a799 799 0 0 0-.042-3.479h3.448v-3.448h3.479v3.443h3.443c-.011 1.162-.026 2.323-.037 3.484l.037-.041h-3.36V283h3.36l-.042-.036c.016 1.161.031 2.317.042 3.479"/><path fill="#D9D9D9" d="M236.171 282.964h-3.489l.041.036v-3.484l-.036.041h3.479l-.036-.041V283zM215.51 296.776h-3.485v-3.484h3.485zM229.281 296.776h-3.484v-3.484h3.484zM243.051 293.292v3.484h-3.479v-3.484zM243.051 324.318h-3.479v-3.479h3.479zM174.193 234.755c-1.162.016-2.318.026-3.479.042v-3.443h-3.443q.017-1.742.042-3.484l-.042.042h3.359v-3.485h-3.359l.036.042q-.017-1.743-.041-3.485h3.448v-3.442h3.479v3.442h3.442c0 1.162.006 2.323.006 3.485h-3.37v3.401h3.364c-.01 1.161-.026 2.323-.036 3.484l.036-.041h-3.479v3.484z"/><path fill="#D9D9D9" d="M167.312 227.87h-3.49l.042.042v-3.485l-.037.042h3.48l-.037-.042v3.485zM156.938 241.682v-3.484h3.484v3.484zM181.083 248.531c-1.161.011-2.323.026-3.484.037v-3.443h-3.443q.017-1.743.042-3.479l-.042.036h3.365v-3.484h-3.365l.042.042c0-1.162-.005-2.323-.005-3.485l-.037.042h3.479v-3.485l-.036.042c1.161-.015 2.318-.026 3.479-.042v3.443h3.443q.006 1.743.005 3.485h-3.365v3.406h3.365c-.016 1.161-.026 2.318-.042 3.479l.042-.036h-3.484v3.479z"/><path fill="#D9D9D9" d="M174.197 241.646c-1.161.01-2.323.026-3.484.036v-3.484c1.161.016 2.323.026 3.484.042l-.041-.042v3.484zM181.084 255.417q-1.742.017-3.484.041v-3.484c1.161.011 2.323.026 3.484.037l-.042-.037v3.484zM249.938 282.958q-1.743-.002-3.485.006l.042.036v-3.484l-.037.041h3.485l-.042-.041V283z"/><path fill="#D9D9D9" d="m253.338 282.964.047 3.479H249.9c.011-1.162.026-2.323.037-3.485l-.037.042h3.485z"/><path fill="#D9D9D9" d="M256.828 286.406v3.479h-3.484v-3.479zM153.494 193.438h3.443v-3.443q1.742.024 3.484.042l-.041-.042v3.484h3.484l-.037-.041q.018 1.741.042 3.484h-3.443v3.443h-3.489v-3.485h-3.443l.047.042z"/><path fill="#D9D9D9" d="M150.094 200.365q-.017-1.743-.041-3.485c1.161.016 2.323.026 3.489.042l-.047-.042c.016 1.162.026 2.323.042 3.485a809 809 0 0 1-3.484-.042z"/><path fill="#D9D9D9" d="M146.651 203.813c-.016-1.162-.026-2.329-.042-3.49 1.162.016 2.323.026 3.485.042l-.042-.042v3.484l.042-.041h-3.485zM215.469 141.833v-3.484h3.364v3.484zM225.839 138.349v3.484h-3.364v-3.484zM218.953 148.719h-3.484v-3.485h3.484zM225.838 145.234v3.485h-3.484v-3.485z"/><path fill="#D9D9D9" d="M222.396 148.677q-.02 1.743-.041 3.485l.041-.042h-3.484l.047.042-.047-3.485zM208.584 155.604v-3.484h3.365v3.484zM218.952 155.563h-3.364v-3.401h3.37l-.047-.042v3.484z"/><path fill="#D9D9D9" d="M205.141 155.562h3.484a810 810 0 0 0-.042 3.485l.042-.042h-3.484l.041.042q-.017-1.743-.041-3.485M222.355 155.562v3.485l.041-.042h-3.484l.047.042q-.006-1.743-.005-3.485l-.042.042h3.484zM208.584 159.047h3.443v3.443l.041-.042c-1.161.016-2.323.026-3.484.042.016-1.162.026-2.323.042-3.485zM215.51 162.49v-3.443h3.448l-.047-.042q.026 1.743.042 3.485c-1.161-.016-2.323-.026-3.484-.042z"/><path fill="#D9D9D9" d="M212.025 162.49h3.485l-.042-.042q.025 1.742.042 3.484h-3.485c.016-1.161.026-2.323.042-3.484zM222.354 152.162h3.364v3.401h-3.364l.041.041v-3.484zM232.725 152.12v3.484h-3.36v-3.484zM222.354 159.047h3.442v3.443l.042-.042c-1.162.016-2.323.026-3.484.042q.02-1.743.041-3.485zM232.723 159.005q-.017 1.743-.041 3.485l.041-.042h-3.479l.042.042v-3.485z"/><path fill="#D9D9D9" d="M225.797 162.49h3.489l-.041-.042q.017 1.742.041 3.484h-3.489c.016-1.161.026-2.323.042-3.484zM205.182 152.12v3.484h-3.485v-3.484zM194.854 162.49c-.015-1.162-.026-2.323-.042-3.485h3.443v3.485l.042-.042h-3.485zM201.739 162.49v-3.443h3.443l-.042-.042q.025 1.743.042 3.485c-1.162-.016-2.323-.026-3.485-.042z"/><path fill="#D9D9D9" d="M198.256 162.49h3.484l-.041-.042q.02 1.742.041 3.484h-3.484q.017-1.742.042-3.484zM191.411 165.932c-.016-1.161-.026-2.323-.042-3.484 1.162.016 2.323.026 3.485.042l-.042-.042c.015 1.161.026 2.323.042 3.484q-1.743-.017-3.485-.041zM236.166 162.448q-.017 1.742-.042 3.484l.042-.041q-1.742.024-3.484.041.024-1.742.041-3.484l-.041.042c1.161-.016 2.323-.026 3.484-.042M243.016 169.375v-3.479h3.359v3.479zM253.386 165.896v3.479h-3.365v-3.479z"/><path fill="#D9D9D9" d="M239.574 169.38q1.743-.024 3.479-.041a819 819 0 0 1-.042 3.479l.042-.037c-1.162.011-2.323.026-3.485.037q.025-1.744.042-3.479z"/><path fill="#D9D9D9" d="M243.01 172.818h3.442v3.442l.042-.036h-3.443v-3.443zM253.385 172.781v3.479H249.9v-3.479z"/><path fill="#D9D9D9" d="M249.938 176.224q-.018 1.744-.042 3.479l.047-.036c-1.167.01-2.328.026-3.49.036q.025-1.735.042-3.479l-.042.037c1.162-.011 2.323-.026 3.485-.037M187.969 169.375q-.02-1.743-.041-3.479c1.161.01 2.323.026 3.484.036l-.042-.041v3.448h-3.442zM239.609 165.896c-.01 1.161-.026 2.323-.036 3.484l.036-.041h-3.442v-3.448l-.042.041c1.161-.01 2.323-.026 3.484-.036"/><path fill="#D9D9D9" d="M184.526 172.818c-.016-1.162-.026-2.323-.042-3.479 1.162.01 2.323.026 3.485.036l-.042-.036c.016 1.156.026 2.317.042 3.479-1.162-.011-2.323-.026-3.485-.037z"/><path fill="#D9D9D9" d="M181.083 176.26c-.016-1.161-.026-2.317-.042-3.479 1.161.011 2.323.026 3.484.037l-.041-.037c.015 1.162.026 2.318.041 3.479-1.161-.01-2.323-.026-3.484-.036z"/><path fill="#D9D9D9" d="M177.641 179.703q-.024-1.735-.041-3.479c1.161.011 2.323.026 3.484.037l-.042-.037q.017 1.744.042 3.479c-1.161-.01-2.323-.026-3.484-.036zM249.896 179.703h3.365v3.401h-3.359l.041.047v-3.484zM260.271 179.667v3.484h-3.365v-3.484z"/><path fill="#D9D9D9" d="M249.901 183.104q.001 1.749-.005 3.49l.047-.042c-1.167.016-2.328.026-3.49.042v-3.485c1.162.016 2.323.026 3.49.042z"/><path fill="#D9D9D9" d="M249.896 186.594h3.443v3.443l.047-.042c-1.161.016-2.323.026-3.49.042l.047-3.485zM260.271 186.552q-.024 1.743-.041 3.485l.041-.042h-3.484l.042.042v-3.485z"/><path fill="#D9D9D9" d="M253.338 190.037h3.489l-.041-.042q.02 1.742.041 3.484h-3.484q.017-1.742.042-3.484zM174.198 183.151a809 809 0 0 1-.042-3.484c1.162.01 2.323.026 3.485.036l-.042-.036q.017 1.743.042 3.479c-1.162-.011-2.323-.026-3.485-.037z"/><path fill="#D9D9D9" d="M170.755 186.594q-.025-1.743-.042-3.485 1.742.017 3.484.042l-.041-.042q.017 1.743.041 3.485c-1.161-.016-2.323-.026-3.484-.042zM163.865 186.552q-.017 1.743-.041 3.485l.041-.042h-3.484l.042.042c-.011-1.162-.027-2.323-.037-3.485z"/><path fill="#D9D9D9" d="M167.313 190.037q-.024-1.743-.042-3.485c1.162.016 2.323.026 3.485.042l-.042-.042q.017 1.743.042 3.485c-1.162-.016-2.323-.026-3.485-.042zM163.822 190.037h3.49l-.042-.042c.011 1.161.026 2.323.037 3.484q-1.744-.017-3.48-.041l.037.041v-3.484zM263.713 189.995a809 809 0 0 0-.042 3.484l.042-.041q-1.743.02-3.484.041.017-1.742.041-3.484l-.041.042c1.161-.016 2.322-.027 3.484-.042M270.557 196.922v-3.484h3.364v3.484zM280.927 193.438v3.484h-3.365v-3.484z"/><path fill="#D9D9D9" d="M267.115 196.922q1.742-.017 3.485-.042-.025 1.743-.042 3.485l.042-.042c-1.162.016-2.323.026-3.485.042q.017-1.743.042-3.485zM280.885 196.88h3.484c-.015 1.162-.026 2.323-.042 3.485l.042-.042h-3.484l.041.042q-.017-1.743-.041-3.485"/><path fill="#D9D9D9" d="M270.557 200.365h3.442v3.442l.042-.041q-1.742.024-3.484.041.017-1.742.041-3.484zM277.485 203.807v-3.442h3.443l-.042-.042v3.443h-3.443zM274 203.807h3.484l-.041-.041q.024 1.742.041 3.484H274c.016-1.161.026-2.323.042-3.484zM284.328 196.922v-3.484h3.365v3.484zM294.697 193.438v3.484h-3.359v-3.484zM284.328 200.365h3.443v3.442l.042-.041h-3.443v-3.443zM294.697 200.323v3.484h-3.484v-3.484z"/><path fill="#D9D9D9" d="M291.256 203.771c-.016 1.156-.026 2.318-.042 3.479l.042-.036c-1.162.01-2.323.026-3.485.036.016-1.161.027-2.323.042-3.484l-.042.041c1.162-.01 2.323-.026 3.485-.036M267.156 193.438q-.02 1.741-.041 3.484l.041-.042h-3.442v-3.442l-.042.041c1.161-.015 2.323-.026 3.484-.041"/><path fill="#D9D9D9" d="M291.213 207.25h3.364v3.401h-3.359l.037.042v-3.479zM301.584 207.214v3.479h-3.359v-3.479z"/><path fill="#D9D9D9" d="M291.219 210.651q-.006 1.743-.005 3.484l.042-.036c-1.162.01-2.323.026-3.485.036v-3.479c1.162.011 2.323.026 3.485.037z"/><path fill="#D9D9D9" d="M291.213 214.136h3.443v3.442l.041-.036c-1.161.01-2.323.026-3.484.036.016-1.156.026-2.317.042-3.479zM301.583 214.099a796 796 0 0 1-.042 3.479l.042-.036h-3.479l.041.036v-3.479z"/><path fill="#D9D9D9" d="M294.656 217.578h3.49l-.042-.036v3.484l.037-.042c-1.162.011-2.323.026-3.485.037q.025-1.736.042-3.479zM305.025 221.026l-3.479-.047.037.047v-3.484l-.042.036c1.161-.01 2.323-.026 3.484-.036zM311.875 224.469v-3.485h3.359v3.485zM322.245 220.984v3.485h-3.364v-3.485z"/><path fill="#D9D9D9" d="M308.469 224.469h-3.479v-3.485h3.479zM301.546 220.979v3.448h-3.442l.036.042v-3.485l-.036.042h3.479z"/><path fill="#D9D9D9" d="M298.104 224.427q-.006 1.743-.005 3.485l.042-.042c-1.162.016-2.323.026-3.485.042q-.001-1.743.005-3.485c1.162.011 2.318.026 3.48.042zM301.584 231.354c-1.161-.015-2.318-.031-3.479-.041l.036.041v-3.484l-.041.042h3.484zM298.104 231.312q-.006 1.743-.005 3.485l.042-.042c-1.162.016-2.323.026-3.485.042q-.001-1.743.005-3.485c1.162.016 2.318.027 3.48.042zM301.584 238.24c-1.161-.016-2.318-.026-3.479-.042l.036.042v-3.485l-.041.042c1.161-.016 2.323-.026 3.484-.042z"/><path fill="#D9D9D9" d="M298.141 241.682c-1.161-.015-2.323-.026-3.479-.041l.037.041c-.011-1.161-.026-2.323-.037-3.484 1.162.016 2.318.026 3.479.042l-.036-.042c.01 1.161.026 2.323.036 3.484M294.698 245.125q-1.744-.016-3.479-.042l.036.042c-.01-1.161-.026-2.323-.036-3.484 1.156.015 2.317.026 3.479.041l-.037-.041c.011 1.161.026 2.323.037 3.484"/><path fill="#D9D9D9" d="M291.256 248.568a810 810 0 0 1-3.485-.042l.042.042c-.01-1.162-.026-2.323-.036-3.485q1.735.026 3.479.042l-.037-.042c.011 1.162.026 2.323.037 3.485"/><path fill="#D9D9D9" d="M287.813 252.01q-1.742-.017-3.485-.041l.042.041a811 811 0 0 0-.042-3.484q1.742.025 3.485.042l-.042-.042q.024 1.743.042 3.484M284.369 255.458l-3.484-.047.041.047c-.015-1.161-.026-2.328-.041-3.489q1.742.024 3.484.041l-.042-.041c.016 1.161.027 2.323.042 3.489"/><path fill="#D9D9D9" d="m280.928 258.901-3.485-.047.042.047c-.016-1.161-.026-2.323-.042-3.489l3.485.046-.042-.046c.016 1.161.026 2.328.042 3.489"/><path fill="#D9D9D9" d="M277.484 262.344a809 809 0 0 0-3.484-.042l.042.042c-.016-1.162-.026-2.323-.042-3.485q1.742.017 3.484.042l-.041-.047q.02 1.749.041 3.49M274.041 265.787a675 675 0 0 0-3.484-.042l.041.042q-.02-1.742-.041-3.485 1.742.017 3.484.042l-.042-.042c.016 1.162.026 2.323.042 3.485"/><path fill="#D9D9D9" d="M270.6 269.229q-1.742-.024-3.485-.041l.042.041c-.016-1.161-.026-2.323-.042-3.484q1.742.017 3.485.042l-.042-.042c.016 1.161.026 2.323.042 3.484M267.156 272.672c-1.161-.016-2.323-.026-3.484-.042l.042.042c-.016-1.162-.026-2.323-.042-3.484q1.742.02 3.484.041l-.041-.041q.02 1.741.041 3.484M263.713 276.115c-1.162-.016-2.323-.026-3.484-.042l.041.042q-.02-1.742-.041-3.485c1.161.016 2.322.026 3.484.042l-.042-.042c.016 1.162.026 2.323.042 3.485"/><path fill="#D9D9D9" d="M256.829 283c-1.162-.01-2.328-.026-3.49-.036l.047.036v-3.484h-3.484l.041.041-.047-3.479h3.448v-3.448h3.485v3.485h3.442l-.041-.042q.02 1.743.041 3.484h-3.442zM156.979 200.323v3.484h-3.485v-3.484z"/><path fill="#D9D9D9" d="M156.938 203.771q1.741.017 3.484.042l-.042-.047v3.484l.042-.042q-1.743.026-3.484.042zM170.751 217.583h-3.443v3.443h-3.479v-3.443h-3.443q.017-1.742.042-3.484l-.047.036h3.364v-3.479h-3.364l.047.037q-.006-1.742-.005-3.485l-.042.042h3.484v-3.484l-.036.041q1.735-.017 3.479-.041v3.442h3.443c-.011 1.162-.026 2.323-.037 3.485l.037-.037h-3.365v3.479h3.365l-.042-.036q.025 1.742.042 3.484"/><path fill="#D9D9D9" d="M160.427 214.099c-1.161.01-2.323.026-3.489.036v-3.479c1.166.011 2.328.026 3.489.037l-.047-.037v3.479zM187.969 238.24v-3.485l-.041.042h3.442v-3.485h3.485v3.443h3.443c-.016 1.162-.027 2.323-.042 3.485l.042-.042h-3.365v3.484h3.365l-.042-.036q.017 1.736.042 3.479h-3.443v3.443h-3.485v-3.443h-3.442q.02-1.743.041-3.479l-.041.036h3.364v-3.484h-3.364z"/><path fill="#D9D9D9" d="M184.484 241.682v-3.484c1.162.016 2.323.026 3.485.042l-.042-.042v3.484l.042-.036c-1.162.01-2.323.026-3.485.036M208.624 248.526q-1.742.025-3.484.042v-3.443h-3.443q.025-1.743.042-3.479l-.042.036h3.365v-3.484h-3.365l.042.042a810 810 0 0 1-.042-3.485h3.443v-3.443h3.484v3.443h3.443v3.485h-3.365v3.401h3.365c-.016 1.161-.026 2.323-.042 3.484l.042-.036h-3.484v3.479z"/><path fill="#D9D9D9" d="M201.74 241.646h-3.484l.042.036v-3.484l-.042.042h3.484l-.041-.042v3.484zM215.511 255.412l-3.484.046v-3.447h-3.443c.016-1.162.026-2.323.042-3.485l-.042.042h3.484v-3.479l-.041.036q1.742-.016 3.484-.042v3.443h3.443c-.016 1.162-.026 2.323-.042 3.485l.042-.037h-3.485v3.484z"/><path fill="#D9D9D9" d="M218.911 255.417c.016 1.161.026 2.323.042 3.484h-3.484c.015-1.161.026-2.328.041-3.489l-.041.046h3.484zM222.396 255.411q-1.741.007-3.484.006l.042.041v-3.484l-.042.036q1.743-.017 3.484-.041c-.015 1.161-.026 2.328-.041 3.489z"/><path fill="#D9D9D9" d="m225.838 258.854-3.484.047c.015-1.161.026-2.328.041-3.489l-.041.046 3.484-.046c-.016 1.166-.026 2.328-.042 3.489zM229.281 262.302q-1.742.017-3.484.042.025-1.741.042-3.49l-.042.047q1.742-.025 3.484-.042c-.01 1.162-.026 2.323-.036 3.485z"/><path fill="#D9D9D9" d="M239.609 272.672h-3.443v3.443h-3.479v-3.443h-3.443q.017-1.743.042-3.484l-.042.041h3.36v-3.484h-3.36l.042.041q-.006-1.741-.005-3.484l-.037.042h3.438v-3.485h3.484v3.443h3.443c-.011 1.162-.026 2.323-.037 3.484l.037-.041h-3.365v3.484h3.365l-.042-.041q.025 1.741.042 3.484"/><path fill="#D9D9D9" d="M229.286 269.188q-1.74.02-3.489.041v-3.484c1.167.015 2.328.026 3.489.042l-.041-.042v3.484zM253.385 272.672h-3.448v3.443h-3.479v-3.443h-3.443q.017-1.743.042-3.484l-.042.041h3.365v-3.484h-3.365l.036.041q-.017-1.741-.041-3.484h3.448v-3.443h3.479v3.443h3.443c-.011 1.162-.026 2.323-.037 3.484l.042-.041h-3.365v3.484h3.365l-.047-.041z"/><path fill="#D9D9D9" d="M243.058 269.188h-3.49l.042.041v-3.484l-.036.042h3.479l-.037-.042v3.484zM181.077 220.979l-3.479.047v-3.443h-3.442q.017-1.742.041-3.484l-.041.036h3.364v-3.479h-3.364l.036.037c-.01-1.162-.026-2.318-.042-3.479h3.448v-3.448h3.479v3.442h3.443q.006 1.743.005 3.485h-3.364v3.401h3.359c-.01 1.161-.026 2.328-.036 3.489l.041-.041h-3.484v3.484z"/><path fill="#D9D9D9" d="M174.199 214.099h-3.49l.042.036v-3.479l-.037.037h3.479l-.036-.037v3.479zM181.083 224.469q.002-1.741-.006-3.49l-.036.047h3.484v-3.484l-.041.041q1.743-.024 3.479-.041v3.442h3.443q.006 1.743.005 3.485h-3.443v3.443c-1.161-.016-2.323-.027-3.484-.042l.041.042v-3.485h-3.484z"/><path fill="#D9D9D9" d="M181.079 227.87q-1.736.017-3.479.042v-3.485c1.161.016 2.323.026 3.484.042l-.042-.042v3.485z"/><path fill="#D9D9D9" d="M184.52 231.313q-1.736.017-3.479.041c.01-1.161.026-2.323.036-3.484l-.036.042h3.484l-.041-.042v3.484z"/><path fill="#D9D9D9" d="M187.969 234.755c-1.162.016-2.323.026-3.485.042.011-1.162.026-2.323.037-3.485l-.037.042c1.162-.015 2.323-.026 3.485-.042-.016 1.162-.026 2.323-.042 3.485zM167.271 193.438h3.443v-3.443c1.162.015 2.318.031 3.479.042l-.036-.042v3.443h3.479c0 1.161.005 2.322.005 3.484h-3.442v3.443h-3.49v-3.485h-3.438l.042.042q-.024-1.743-.042-3.484"/><path fill="#D9D9D9" d="M163.87 200.365a810 810 0 0 1-.042-3.485c1.162.016 2.323.026 3.485.042l-.042-.042c.01 1.162.026 2.323.036 3.485a798 798 0 0 1-3.479-.042z"/><path fill="#D9D9D9" d="M160.423 203.813c-.011-1.162-.027-2.329-.037-3.49 1.162.016 2.323.026 3.484.042l-.041-.042v3.484l.036-.041h-3.484zM205.182 165.932q-.017-1.742-.041-3.484h3.484a809 809 0 0 0-.042 3.484l.042-.041h-3.484zM222.396 162.448q-.02 1.742-.041 3.484l.041-.041h-3.484l.047.041-.047-3.484zM212.068 165.896q-.02 1.736-.041 3.479l.041-.036h-3.442v-3.448l-.042.041c1.161-.01 2.323-.026 3.484-.036M215.51 169.375q-.017-1.743-.041-3.479c1.161.01 2.323.026 3.489.036l-.047-.041v3.448h-3.442z"/><path fill="#D9D9D9" d="M212.025 169.375h3.485l-.042-.036q.025 1.735.042 3.479h-3.485c.016-1.162.026-2.323.042-3.479zM225.838 165.896c-.016 1.156-.026 2.318-.042 3.479l.042-.036h-3.443v-3.448l-.041.041c1.161-.01 2.322-.026 3.484-.036M232.723 165.896v3.479h-3.479v-3.479z"/><path fill="#D9D9D9" d="M229.281 169.339q-.02 1.735-.041 3.479l.041-.037c-1.161.011-2.323.026-3.484.037.016-1.162.026-2.323.042-3.479l-.042.036c1.161-.01 2.323-.026 3.484-.036M198.297 169.375h-3.485v-3.479h3.485zM201.739 169.375q-.017-1.743-.042-3.479c1.162.01 2.323.026 3.485.036l-.042-.041v3.448h-3.443z"/><path fill="#D9D9D9" d="M198.298 172.818c-.016-1.162-.027-2.323-.042-3.479 1.161.01 2.323.026 3.484.036l-.041-.036q.02 1.735.041 3.479c-1.161-.011-2.323-.026-3.484-.037zM187.969 176.26c-.015-1.161-.026-2.317-.041-3.479h3.437v3.479l.047-.036h-3.484zM194.854 176.26v-3.442h3.443l-.042-.037c.016 1.162.026 2.318.042 3.479-1.162-.01-2.323-.026-3.485-.036z"/><path fill="#D9D9D9" d="M191.365 176.261h3.49l-.042-.037c.016 1.162.026 2.323.042 3.479h-3.485q.017-1.735.042-3.479zM229.24 172.818h3.443v3.442l.042-.036c-1.162.01-2.323.026-3.485.036.016-1.161.031-2.317.042-3.479zM239.61 172.781v3.479h-3.479v-3.479z"/><path fill="#D9D9D9" d="M236.166 176.224q-.017 1.744-.042 3.479l.042-.036c-1.161.01-2.323.026-3.484.036q.024-1.735.041-3.479l-.041.037c1.161-.011 2.323-.026 3.484-.037M236.125 179.703h3.365v3.401h-3.36l.037.047v-3.484zM246.494 179.667v3.484h-3.359v-3.484zM236.13 183.104c0 1.167-.006 2.328-.006 3.49l.042-.042c-1.161.016-2.323.026-3.484.042 0-1.162.005-2.323.005-3.485 1.161.011 2.318.026 3.479.042zM236.125 186.594h3.443v3.443l.041-.042c-1.161.016-2.323.026-3.484.042q.025-1.743.042-3.485zM246.495 186.552a810 810 0 0 1-.042 3.485l.042-.042h-3.479l.041.042v-3.485z"/><path fill="#D9D9D9" d="M239.568 190.037h3.49l-.042-.042q.017 1.742.042 3.484h-3.49q.025-1.742.042-3.484zM184.526 179.703c-.016-1.156-.026-2.317-.042-3.479 1.162.011 2.323.026 3.485.037l-.042-.037c.016 1.162.026 2.323.042 3.479-1.162-.01-2.323-.026-3.485-.036zM181.083 183.151c-.016-1.161-.026-2.323-.042-3.484 1.161.01 2.323.026 3.484.036l-.041-.036q.02 1.743.041 3.479c-1.161-.011-2.323-.026-3.484-.037z"/><path fill="#D9D9D9" d="M177.641 186.594q-.024-1.743-.041-3.485 1.742.017 3.484.042l-.042-.042q.017 1.743.042 3.485c-1.161-.016-2.323-.026-3.484-.042zM249.938 189.995q-.018 1.742-.042 3.484l.047-.041q-1.749.02-3.49.041.025-1.742.042-3.484l-.042.042c1.162-.016 2.323-.027 3.485-.042"/><path fill="#D9D9D9" d="m253.386 193.438-.047 3.484.047-.042h-3.443v-3.442l-.047.041c1.162-.015 2.323-.026 3.49-.041M260.271 193.438v3.484h-3.484v-3.484z"/><path fill="#D9D9D9" d="m256.827 196.88-.046 3.485.046-.042c-1.161.016-2.322.026-3.484.042q.017-1.743.042-3.485l-.047.042c1.161-.016 2.328-.026 3.489-.042M174.193 190.037c-.011-1.162-.026-2.323-.037-3.485 1.162.016 2.323.026 3.485.042l-.042-.042c.01 1.162.026 2.323.036 3.485-1.161-.016-2.317-.026-3.479-.042zM256.781 200.365h3.448v3.442l.042-.041q-1.743.024-3.485.041.017-1.742.042-3.484zM267.156 200.323q-.024 1.742-.041 3.484l.041-.041h-3.484l.042.041v-3.484z"/><path fill="#D9D9D9" d="M260.229 203.807h3.484l-.042-.041c.016 1.161.026 2.323.042 3.484h-3.484q.017-1.742.041-3.484zM270.6 203.771a666 666 0 0 0-.042 3.479l.042-.036c-1.162.01-2.323.026-3.485.036q.017-1.742.042-3.484l-.042.041c1.162-.01 2.323-.026 3.485-.036M277.443 210.693v-3.479h3.365v3.479zM287.812 207.214v3.479h-3.365v-3.479z"/><path fill="#D9D9D9" d="M274 210.698q1.742-.025 3.484-.042c-.015 1.162-.031 2.318-.041 3.479l.041-.036c-1.161.01-2.323.026-3.484.036.016-1.161.026-2.317.042-3.479zM277.443 214.136h3.443v3.442l.042-.036c-1.162.01-2.323.026-3.485.036.016-1.156.026-2.317.042-3.479zM287.813 214.099c-.016 1.162-.027 2.323-.042 3.479l.042-.036h-3.485l.042.036v-3.479z"/><path fill="#D9D9D9" d="M280.885 217.578h3.484l-.042-.036v3.484l.042-.042c-1.161.011-2.323.026-3.484.037q.02-1.736.041-3.479zM274.041 207.214c-.016 1.161-.026 2.323-.042 3.484l.042-.042h-3.443v-3.442l-.041.036c1.161-.01 2.323-.026 3.484-.036M291.256 221.026l-3.485-.047.042.047v-3.484l-.042.036c1.162-.01 2.323-.026 3.485-.036z"/><path fill="#D9D9D9" d="M294.697 224.469h-3.484v-3.485h3.484zM287.771 220.979v3.448h-3.443l.042.042v-3.485l-.042.042h3.485zM284.327 224.427v3.485l.042-.042c-1.161.016-2.323.026-3.484.042v-3.485q1.742.017 3.484.042zM284.328 227.912h3.443v3.442l.042-.041q-1.742.02-3.485.041c.016-1.161.026-2.323.042-3.484zM294.697 231.354h-3.484v-3.484h3.484z"/><path fill="#D9D9D9" d="M291.256 231.312c-.016 1.162-.026 2.323-.042 3.485l.042-.042c-1.162.016-2.323.026-3.485.042.016-1.162.027-2.323.042-3.485l-.042.042c1.162-.015 2.323-.026 3.485-.042"/><path fill="#D9D9D9" d="M294.697 238.24c-1.161-.016-2.323-.026-3.479-.042l.037.042v-3.485l-.042.042c1.161-.016 2.323-.026 3.484-.042z"/><path fill="#D9D9D9" d="M291.256 241.682c-1.162-.015-2.323-.026-3.485-.041l.042.041c-.01-1.161-.026-2.323-.036-3.484 1.156.016 2.317.026 3.479.042l-.037-.042c.011 1.161.026 2.323.037 3.484"/><path fill="#D9D9D9" d="M287.813 245.125q-1.742-.016-3.485-.042l.042.042c-.011-1.161-.026-2.323-.037-3.484 1.157.015 2.318.026 3.48.041l-.042-.041q.024 1.742.042 3.484M284.369 248.568a809 809 0 0 1-3.484-.042l.041.042q-.02-1.742-.041-3.485 1.742.026 3.484.042l-.042-.042c.016 1.162.027 2.323.042 3.485"/><path fill="#D9D9D9" d="M280.928 252.01q-1.742-.017-3.485-.041l.042.041c-.016-1.161-.026-2.322-.042-3.484q1.742.025 3.485.042l-.042-.042c.016 1.162.026 2.323.042 3.484M277.484 255.458l-3.484-.047.042.047c-.016-1.161-.026-2.328-.042-3.489q1.742.024 3.484.041l-.041-.041q.02 1.74.041 3.489M274.041 258.901l-3.484-.047.041.047q-.02-1.74-.041-3.489l3.484.046-.042-.046c.016 1.161.026 2.328.042 3.489"/><path fill="#D9D9D9" d="M270.6 262.344a810 810 0 0 0-3.485-.042l.042.042c-.016-1.162-.026-2.323-.042-3.485q1.742.017 3.485.042l-.042-.047c.016 1.167.026 2.328.042 3.49"/><path fill="#D9D9D9" d="M263.714 269.229q-1.742-.024-3.484-.041l.041.041v-3.484h-3.484l.042.041a808 808 0 0 1-.042-3.484h3.443v-3.443h3.484v3.485h3.443l-.042-.042c.016 1.162.026 2.323.042 3.484h-3.443zM256.787 272.672c.016-1.162.026-2.323.042-3.484l-.042.041h3.484l-.041-.041q.02 1.741.041 3.484zM256.827 269.188h-3.489l.047.041v-3.484l-.042.042h3.484l-.041-.042v3.484zM170.751 200.323v3.484h-3.48v-3.484z"/><path fill="#D9D9D9" d="M170.713 203.771h3.479v3.479h-3.479zM191.369 227.912v-3.485c1.162.016 2.323.026 3.485.042l-.042-.042v3.485l.042-.042q-1.743.017-3.485.042"/><path fill="#D9D9D9" d="M187.928 231.354v-3.484h3.484v3.484zM198.297 231.313q-1.743.017-3.485.041c.016-1.161.027-2.323.042-3.484l-.042.042h3.485l-.042-.042v3.484zM201.699 231.312q.017 1.743.041 3.485h-3.484c.015-1.162.026-2.323.042-3.485l-.042.042h3.484zM208.625 227.87h-3.484l.041.042v-3.485l-.041.042q1.742-.025 3.484-.042c-.016 1.162-.026 2.323-.042 3.485z"/><path fill="#D9D9D9" d="M205.182 231.354c-1.162-.015-2.323-.026-3.485-.041l.042.041v-3.484l-.042.042h3.485l-.042-.042c.016 1.161.026 2.323.042 3.484M212.068 231.313q-1.742.017-3.484.041c.016-1.161.026-2.323.042-3.484l-.042.042q1.742-.025 3.484-.042-.02 1.742-.041 3.484z"/><path fill="#D9D9D9" d="M215.51 234.755c-1.162.016-2.323.026-3.485.042.016-1.162.026-2.323.042-3.485l-.042.042c1.162-.015 2.323-.026 3.485-.042-.016 1.162-.026 2.323-.042 3.485zM215.51 238.24v-3.485l-.041.042h3.442v-3.485h3.485v3.443h3.443q-.001 1.743.005 3.485h-3.448v3.442c-1.162-.015-2.323-.026-3.485-.041l.042.041v-3.484h-3.484z"/><path fill="#D9D9D9" d="M215.51 241.641c-1.162.015-2.323.026-3.485.041v-3.484c1.162.016 2.323.026 3.485.042l-.042-.042v3.484zM218.953 245.083q-1.742.026-3.484.042.02-1.742.041-3.484l-.041.041h3.484l-.042-.041v3.484zM222.396 248.526q-1.741.025-3.484.042c.016-1.162.026-2.323.042-3.485l-.042.042q1.743-.016 3.484-.042-.02 1.743-.041 3.485z"/><path fill="#D9D9D9" d="m229.281 255.412-3.485.046v-3.447h-3.442q.02-1.742.041-3.485l-.041.042h3.442v-3.479c1.162 0 2.323-.006 3.485-.006v3.443h3.442c-.01 1.162-.026 2.323-.036 3.485l.036-.037h-3.479v3.484z"/><path fill="#D9D9D9" d="M232.682 255.417q.024 1.742.041 3.484h-3.479c.011-1.161.026-2.328.037-3.489l-.037.046h3.479z"/><path fill="#D9D9D9" d="M236.166 255.411q-1.742.007-3.484.006l.041.041v-3.484l-.036.036q1.736-.017 3.479-.041c-.01 1.161-.026 2.328-.036 3.489zM239.61 258.854l-3.479.047c.01-1.161.026-2.328.036-3.489l-.036.046 3.479-.046c-.01 1.166-.026 2.328-.036 3.489z"/><path fill="#D9D9D9" d="M243.01 258.859q.024 1.742.041 3.485h-3.479c.011-1.162.026-2.323.037-3.49l-.037.047h3.479zM249.938 255.411h-3.479l.036.047c-.01-1.161-.026-2.328-.036-3.489h3.479c-.01 1.161-.026 2.328-.036 3.489z"/><path fill="#D9D9D9" d="M246.494 258.901q-1.742-.02-3.484-.041l.041.041q-.017-1.742-.041-3.484 1.742.02 3.484.041l-.036-.046c.01 1.161.026 2.328.036 3.489M253.38 258.854l-3.48.047c.011-1.161.026-2.328.037-3.489l-.037.046 3.48-.046c-.011 1.166-.026 2.328-.037 3.489zM256.781 258.859l.047 3.485h-3.484c.01-1.162.026-2.323.036-3.49l-.036.047h3.484zM177.6 200.365v-3.485q1.743.025 3.479.042l-.037-.042v3.485l.037-.042c-1.156.016-2.318.026-3.479.042"/><path fill="#D9D9D9" d="M174.156 203.807v-3.484h3.479v3.484zM184.52 203.766c-1.156.015-2.318.026-3.479.041.01-1.161.026-2.323.036-3.484l-.036.042h3.484l-.041-.042v3.484zM187.964 207.208q-1.736.026-3.48.042c.011-1.161.026-2.323.037-3.484l-.037.041q1.744-.017 3.48-.041c-.011 1.161-.026 2.323-.037 3.484zM187.969 210.693q.001-1.742-.005-3.485l-.036.042h3.442v-3.479q1.743-.006 3.485-.005v3.442h3.443v3.485h-3.443v3.442c-1.162-.01-2.323-.026-3.485-.036l.042.036v-3.479h-3.484z"/><path fill="#D9D9D9" d="M187.964 214.094q-1.736.024-3.48.041v-3.479c1.162.011 2.323.026 3.485.037l-.042-.037v3.479zM191.412 217.536l-3.484.047c.01-1.166.026-2.328.036-3.489l-.036.041h3.484l-.042-.036v3.484z"/><path fill="#D9D9D9" d="m194.854 220.979-3.485.047c.011-1.161.026-2.328.042-3.489l-.042.046q1.743-.024 3.485-.041c-.016 1.161-.027 2.323-.042 3.484z"/><path fill="#D9D9D9" d="M194.854 224.469v-3.49l-.042.047h3.443v-3.484h3.485v3.442h3.442q-.017 1.743-.041 3.485l.041-.042h-3.484v3.485l.042-.042h-3.485l.042.042v-3.485h-3.485zM177.6 189.995q1.743.024 3.479.042l-.037-.042v3.484l.037-.041q-1.736.017-3.479.041z"/><path fill="#D9D9D9" d="M181.077 196.922v-3.484l-.036.041h3.484v-3.484l-.041.042q1.743-.025 3.479-.042v3.443h3.443q.006 1.741.005 3.484h-3.448v3.443a817 817 0 0 1-3.479-.042l.041.042v-3.485h-3.484zM201.739 176.26c-.01-1.161-.026-2.317-.042-3.479h3.443v3.479l.042-.036h-3.485zM212.068 172.781c-.015 1.162-.026 2.318-.041 3.479l.041-.036h-3.484l.042.036v-3.479z"/><path fill="#D9D9D9" d="M205.141 176.261h3.484l-.042-.037q.026 1.744.042 3.479h-3.484q.017-1.735.041-3.479zM215.51 176.26c-.01-1.161-.026-2.317-.041-3.479h3.442v3.479l.042-.036h-3.484zM225.838 172.781c-.016 1.162-.026 2.318-.042 3.479l.042-.036h-3.484l.046.036v-3.479z"/><path fill="#D9D9D9" d="M218.912 176.261h3.49l-.047-.037q.024 1.744.041 3.479h-3.484c.016-1.156.026-2.317.042-3.479zM212.025 176.261h3.485l-.042-.037q.025 1.744.042 3.479h-3.485c.016-1.156.026-2.317.042-3.479zM229.281 176.224q-.02 1.744-.041 3.479l.041-.036c-1.161.01-2.323.026-3.484.036.016-1.156.026-2.317.042-3.479l-.042.037c1.161-.011 2.323-.026 3.484-.037M198.298 179.703c-.016-1.156-.027-2.317-.042-3.479 1.161.011 2.323.026 3.484.037l-.041-.037q.02 1.744.041 3.479c-1.161-.01-2.323-.026-3.484-.036zM187.969 183.151q-.02-1.742-.041-3.484h3.484l-.047 3.484.047-.042h-3.484zM194.854 183.151c-.015-1.161-.026-2.323-.042-3.484 1.162.01 2.323.026 3.485.036l-.042-.036c.016 1.161.026 2.323.042 3.479-1.162-.011-2.323-.026-3.485-.037z"/><path fill="#D9D9D9" d="M191.365 183.151h3.49l-.042-.042c.016 1.162.026 2.323.042 3.485h-3.485q.017-1.743.042-3.485zM232.725 183.151l-3.48-.047.037.047v-3.484l-.042.036c1.162-.01 2.323-.026 3.485-.036zM229.245 183.104q-.006 1.749-.005 3.49l.041-.042c-1.161.016-2.323.026-3.484.042q-.001-1.743.005-3.485 1.736.017 3.479.042z"/><path fill="#D9D9D9" d="M232.725 186.552a810 810 0 0 1-.042 3.485l.042-.042c-1.162.016-2.323.026-3.485.042q.025-1.743.042-3.485l-.042.042c1.162-.016 2.323-.026 3.485-.042"/><path fill="#D9D9D9" d="M236.166 189.995q-.017 1.742-.042 3.484l.042-.041q-1.742.02-3.484.041.024-1.742.041-3.484l-.041.042c1.161-.016 2.323-.027 3.484-.042M239.609 193.438q-.017 1.741-.041 3.484l.041-.042h-3.442v-3.442l-.042.041c1.161-.015 2.323-.026 3.484-.041M246.495 193.438v3.484h-3.479v-3.484z"/><path fill="#D9D9D9" d="M243.053 196.88a810 810 0 0 1-.042 3.485l.042-.042c-1.162.016-2.323.026-3.485.042q.025-1.743.042-3.485l-.042.042c1.162-.016 2.323-.026 3.485-.042M184.526 186.594c-.016-1.162-.026-2.323-.042-3.485q1.743.017 3.485.042l-.042-.042c.011 1.162.026 2.323.037 3.485-1.157-.016-2.318-.026-3.48-.042zM181.077 190.037c-.01-1.162-.026-2.323-.036-3.485 1.161.016 2.323.026 3.484.042l-.041-.042v3.485l.041-.042h-3.484z"/><path fill="#D9D9D9" d="M243.01 200.365h3.442v3.442l.042-.041q-1.742.024-3.484.041.024-1.742.041-3.484zM253.385 200.323l-.047 3.484.047-.041H249.9l.042.041v-3.484z"/><path fill="#D9D9D9" d="M246.453 203.807h3.49l-.042-.041q.017 1.742.042 3.484h-3.49q.025-1.742.042-3.484zM256.827 203.771l-.046 3.479.046-.036c-1.161.01-2.322.026-3.484.036q.017-1.742.042-3.484l-.047.041c1.161-.01 2.328-.026 3.489-.036"/><path fill="#D9D9D9" d="M260.271 207.214a796 796 0 0 0-.042 3.479l.042-.037c-1.162.011-2.323.026-3.485.037q.017-1.744.042-3.479l-.047.036c1.167-.01 2.328-.026 3.49-.036M267.156 207.214v3.479h-3.484v-3.479z"/><path fill="#D9D9D9" d="M263.713 210.656a809 809 0 0 0-.042 3.479l.042-.036c-1.162.01-2.323.026-3.484.036.01-1.161.026-2.317.041-3.479l-.041.037c1.161-.011 2.322-.026 3.484-.037M263.672 214.136h3.443v3.442l.041-.036c-1.161.01-2.323.026-3.484.036q.017-1.735.042-3.479zM274.041 214.099a819 819 0 0 0-.042 3.479l.042-.036h-3.484l.041.036v-3.479z"/><path fill="#D9D9D9" d="M267.115 217.578h3.485l-.042-.036v3.484l.042-.042c-1.162.011-2.323.026-3.485.037q.017-1.736.042-3.479zM277.484 221.026l-3.484-.047.042.047v-3.484l-.042.036c1.161-.01 2.323-.026 3.484-.036z"/><path fill="#D9D9D9" d="M280.928 224.469h-3.485v-3.485h3.485zM273.999 220.979v3.448h-3.442l.041.042v-3.485l-.041.042h3.484z"/><path fill="#D9D9D9" d="M270.558 224.427v3.485l.042-.042c-1.162.016-2.323.026-3.485.042v-3.485q1.742.017 3.485.042z"/><path fill="#D9D9D9" d="M270.557 227.912h3.442v3.442l.042-.041q-1.742.02-3.484.041.017-1.742.041-3.484zM280.928 227.87c-.016 1.161-.026 2.323-.042 3.484l.042-.041h-3.485l.042.041v-3.484z"/><path fill="#D9D9D9" d="M274 231.354h3.484l-.041-.042q.024 1.743.041 3.485H274c.016-1.162.026-2.323.042-3.485zM284.369 231.312c-.015 1.162-.026 2.323-.042 3.485l.042-.042c-1.161.016-2.323.026-3.484.042q.02-1.743.041-3.485l-.041.042c1.161-.015 2.323-.026 3.484-.042M287.813 238.24c-1.162-.016-2.323-.026-3.485-.042l.042.042v-3.485l-.042.042c1.162-.016 2.323-.026 3.485-.042zM284.369 241.682c-1.161-.015-2.323-.026-3.484-.041l.041.041q-.02-1.742-.041-3.484c1.161.016 2.323.026 3.484.042l-.042-.042c.016 1.161.027 2.323.042 3.484"/><path fill="#D9D9D9" d="M280.928 245.125q-1.742-.016-3.485-.042l.042.042c-.016-1.161-.026-2.323-.042-3.484 1.162.015 2.323.026 3.485.041l-.042-.041c.016 1.161.026 2.323.042 3.484M277.484 248.568a809 809 0 0 1-3.484-.042l.042.042c-.016-1.162-.026-2.323-.042-3.485q1.742.026 3.484.042l-.041-.042q.02 1.743.041 3.485M274.041 252.01q-1.742-.017-3.484-.041l.041.041q-.02-1.741-.041-3.484 1.742.025 3.484.042l-.042-.042c.016 1.162.026 2.323.042 3.484"/><path fill="#D9D9D9" d="m270.6 255.458-3.485-.047.042.047c-.016-1.161-.026-2.328-.042-3.489q1.742.024 3.485.041l-.042-.041c.016 1.161.026 2.323.042 3.489M263.672 258.901c.016-1.161.026-2.323.042-3.484l-.042.041h3.484l-.041-.046c.015 1.161.026 2.328.041 3.489zM263.713 255.417q-1.743.001-3.484-.006l.041.047c-.015-1.161-.026-2.328-.041-3.489q1.741.006 3.484.005c-.016 1.161-.026 2.323-.042 3.484z"/><path fill="#D9D9D9" d="M260.271 258.901q-1.741-.02-3.49-.041l.047.041a809 809 0 0 1-.042-3.484q1.743.02 3.485.041l-.042-.046c.016 1.161.026 2.328.042 3.489M215.511 227.87q-1.742.017-3.484.042v-3.443h-3.443q.025-1.743.042-3.485l-.042.042h3.443v-3.484h3.484v3.442h3.443c-.016 1.162-.026 2.323-.042 3.485l.042-.042h-3.485v3.485zM205.141 221.026q.024-1.742.041-3.484l-.041.041q1.742-.02 3.484-.041-.016 1.742-.042 3.484l.042-.042c-1.161.016-2.323.026-3.484.042"/><path fill="#D9D9D9" d="M218.911 227.87c.016 1.161.026 2.323.042 3.484h-3.484q.02-1.742.041-3.484l-.041.042h3.484zM222.396 227.87h-3.484l.042.042v-3.485l-.042.042a811 811 0 0 1 3.484-.042q-.02 1.743-.041 3.485z"/><path fill="#D9D9D9" d="M225.838 231.313q-1.743.017-3.484.041.02-1.742.041-3.484l-.041.042q1.741-.025 3.484-.042c-.016 1.161-.026 2.323-.042 3.484z"/><path fill="#D9D9D9" d="M229.281 234.755c-1.161.016-2.323.026-3.484.042q.025-1.743.042-3.485l-.042.042c1.161-.015 2.323-.026 3.484-.042-.01 1.162-.026 2.323-.036 3.485z"/><path fill="#D9D9D9" d="M229.286 238.24q-.006-1.743-.005-3.485l-.037.042c1.156-.016 2.318-.026 3.479-.042q-.001 1.743.006 3.485c-1.162-.016-2.323-.026-3.485-.042z"/><path fill="#D9D9D9" d="M229.281 241.641c-1.161.015-2.323.026-3.484.041v-3.484c1.167.016 2.328.026 3.489.042l-.041-.042v3.484z"/><path fill="#D9D9D9" d="M225.838 241.646v3.479h-3.484v-3.479zM232.723 245.083q-1.743.026-3.479.042c.011-1.161.026-2.323.037-3.484l-.037.041c1.156-.015 2.318-.026 3.479-.041-.01 1.161-.026 2.323-.036 3.484zM236.167 248.526q-1.744.025-3.479.042c.01-1.162.026-2.323.036-3.485l-.036.042q1.735-.016 3.479-.042c-.011 1.162-.026 2.323-.037 3.485z"/><path fill="#D9D9D9" d="M246.495 252.011h-3.442v3.447h-3.479v-3.447h-3.443c.01-1.162.026-2.323.036-3.485l-.036.042h3.437v-3.479c1.162 0 2.323-.006 3.485-.006v3.485h3.442l-.041-.037q.024 1.744.041 3.48M260.27 252.011h-3.443v3.447h-3.484v-3.447H249.9c.016-1.157.026-2.318.042-3.48l-.042.037h3.443v-3.485h3.479v3.485h3.448l-.041-.037q.017 1.744.041 3.48"/><path fill="#D9D9D9" d="M249.943 248.531h-3.49l.042.037a805 805 0 0 0-.042-3.479h3.49c-.016 1.161-.032 2.317-.042 3.479zM187.928 200.323h3.484v3.484h-3.484z"/><path fill="#D9D9D9" d="M191.369 200.365v-3.485q1.743.025 3.485.042l-.042-.042v3.485l.042-.042c-1.162.016-2.323.026-3.485.042"/><path fill="#D9D9D9" d="M198.297 203.766c-1.162.015-2.323.026-3.485.041.016-1.161.027-2.323.042-3.484l-.042.042c1.162-.016 2.323-.026 3.485-.042-.016 1.161-.026 2.323-.042 3.484zM201.74 207.208q-1.742.026-3.484.042c.015-1.161.026-2.323.042-3.484l-.042.041q1.742-.017 3.484-.041-.02 1.742-.041 3.484z"/><path fill="#D9D9D9" d="M201.739 210.693v-3.485l-.042.042q1.743-.016 3.485-.042v3.485c-1.162-.011-2.323-.026-3.485-.037z"/><path fill="#D9D9D9" d="M201.74 214.094q-1.742.024-3.484.041v-3.479c1.161.011 2.323.026 3.484.037l-.041-.037v3.479z"/><path fill="#D9D9D9" d="M198.297 214.099v3.484h-3.485v-3.484zM205.182 217.542q-1.743.017-3.485.041c.016-1.166.026-2.328.042-3.489l-.042.041c1.162-.01 2.323-.026 3.485-.036a809 809 0 0 1-.042 3.484zM191.412 186.552v3.485h-3.484v-3.485z"/><path fill="#D9D9D9" d="M191.369 189.995q1.743.024 3.485.042l-.042-.042v3.484l.042-.041q-1.743.017-3.485.041z"/><path fill="#D9D9D9" d="M194.854 196.922v-3.484l-.042.041c1.162-.015 2.323-.026 3.485-.041v3.484a810 810 0 0 1-3.485-.042zM201.739 183.151q-.017-1.742-.042-3.484h3.485a675 675 0 0 0-.042 3.484l.042-.042h-3.485zM212.068 179.667q-.02 1.742-.041 3.484l.041-.042h-3.484l.042.042a809 809 0 0 0-.042-3.484z"/><path fill="#D9D9D9" d="M205.141 183.151h3.484l-.042-.042q.026 1.743.042 3.485h-3.484q.017-1.743.041-3.485zM215.51 183.151q-.017-1.742-.041-3.484h3.484c-.016 1.161-.026 2.323-.042 3.484l.042-.042h-3.484zM225.838 183.151h-3.484v-3.484h3.484z"/><path fill="#D9D9D9" d="M222.396 183.109q-.02 1.743-.041 3.485l.041-.042c-1.161.016-2.322.026-3.484.042.016-1.162.026-2.323.042-3.485l-.042.042a811 811 0 0 1 3.484-.042M212.025 183.151h3.485l-.042-.042q.025 1.743.042 3.485h-3.485c.016-1.162.026-2.323.042-3.485zM198.298 186.594c-.016-1.162-.027-2.323-.042-3.485q1.742.017 3.484.042l-.041-.042q.02 1.743.041 3.485c-1.161-.016-2.323-.026-3.484-.042zM194.854 190.037c-.015-1.162-.026-2.323-.042-3.485 1.162.016 2.323.026 3.485.042l-.042-.042c.016 1.162.026 2.323.042 3.485-1.162-.016-2.323-.026-3.485-.042z"/><path fill="#D9D9D9" d="M225.838 186.552c-.016 1.162-.026 2.323-.042 3.485l.042-.042c-1.162.016-2.323.026-3.484.042q.02-1.743.041-3.485l-.041.042c1.161-.016 2.322-.026 3.484-.042M229.281 189.995q-.02 1.742-.041 3.484l.041-.041q-1.742.02-3.484.041c.016-1.161.026-2.323.042-3.484l-.042.042c1.161-.016 2.323-.027 3.484-.042"/><path fill="#D9D9D9" d="M232.725 193.438v3.442h-3.48l.037.042v-3.484l-.042.041c1.162-.015 2.323-.026 3.485-.041M229.245 196.88q-.006 1.743-.005 3.485l.041-.042c-1.161.016-2.323.026-3.484.042q-.001-1.743.005-3.485c1.156.016 2.318.026 3.479.042zM229.24 200.365h3.443v3.442l.042-.041q-1.743.024-3.485.041.025-1.742.042-3.484zM239.61 200.323q-.017 1.742-.042 3.484l.042-.041h-3.479l.042.041v-3.484z"/><path fill="#D9D9D9" d="M232.682 203.807h3.489l-.041-.041q.017 1.742.041 3.484h-3.489q.024-1.742.041-3.484zM243.053 203.771a817 817 0 0 1-.042 3.479l.042-.036c-1.162.01-2.323.026-3.485.036q.025-1.742.042-3.484l-.042.041c1.162-.01 2.323-.026 3.485-.036"/><path fill="#D9D9D9" d="M246.494 207.214q-.017 1.735-.042 3.479l.042-.037c-1.161.011-2.323.026-3.484.037q.024-1.744.041-3.479l-.041.036c1.161-.01 2.323-.026 3.484-.036M253.385 207.214l-.047 3.479.047-.037H249.9l.042.037c-.016-1.162-.026-2.323-.042-3.479z"/><path fill="#D9D9D9" d="M246.453 210.693h3.49l-.042-.037c.01 1.162.026 2.318.042 3.479h-3.49c.016-1.161.031-2.317.042-3.479zM256.827 210.656l-.046 3.479.046-.036c-1.161.01-2.322.026-3.484.036.011-1.161.026-2.317.042-3.479l-.047.037c1.161-.011 2.328-.026 3.489-.037M260.271 214.099a819 819 0 0 0-.042 3.479l.042-.036c-1.162.01-2.323.026-3.485.036q.017-1.735.042-3.479l-.047.037c1.167-.011 2.328-.026 3.49-.037"/><path fill="#D9D9D9" d="m263.713 221.026-3.484-.047.041.047v-3.484l-.041.036c1.161-.01 2.322-.026 3.484-.036z"/><path fill="#D9D9D9" d="M267.156 224.469h-3.484v-3.485h3.484zM260.23 220.979v3.448h-3.443l.042.042c-.016-1.162-.026-2.323-.042-3.485q1.743.017 3.484.042zM256.786 224.427q.001 1.743-.005 3.485l.047-.042c-1.161.016-2.323.026-3.484.042v-3.485q1.742.017 3.484.042z"/><path fill="#D9D9D9" d="M256.781 227.912h3.448v3.442l.042-.041q-1.743.02-3.485.041.017-1.742.042-3.484zM267.156 227.87q-.024 1.742-.041 3.484l.041-.041h-3.484l.042.041v-3.484z"/><path fill="#D9D9D9" d="M260.229 231.354h3.484l-.042-.042c.016 1.162.026 2.323.042 3.485h-3.484q.017-1.743.041-3.485zM270.6 231.312q-.025 1.743-.042 3.485l.042-.042c-1.162.016-2.323.026-3.485.042q.017-1.743.042-3.485l-.042.042c1.162-.015 2.323-.026 3.485-.042"/><path fill="#D9D9D9" d="M274.041 234.755a810 810 0 0 0-.042 3.485l.042-.042c-1.161.016-2.323.026-3.484.042q.017-1.743.041-3.485l-.041.042c1.161-.016 2.323-.026 3.484-.042M280.928 238.24h-3.485v-3.485h3.485z"/><path fill="#D9D9D9" d="M277.484 241.682c-1.161-.015-2.323-.026-3.484-.041l.042.041v-3.484l-.042.042c1.161-.016 2.323-.026 3.484-.042zM274.041 245.125q-1.742-.016-3.484-.042l.041.042q-.02-1.742-.041-3.484c1.161.015 2.323.026 3.484.041l-.042-.041c.016 1.161.026 2.323.042 3.484"/><path fill="#D9D9D9" d="M270.6 248.568a810 810 0 0 1-3.485-.042l.042.042c-.016-1.162-.026-2.323-.042-3.485q1.742.026 3.485.042l-.042-.042c.016 1.162.026 2.323.042 3.485"/><path fill="#D9D9D9" d="M263.672 252.01c.016-1.156.026-2.317.042-3.479l-.042.037h3.484l-.041-.042q.02 1.743.041 3.484zM263.713 248.531h-3.484l.041.037c-.015-1.162-.031-2.318-.041-3.479h3.484c-.016 1.161-.026 2.317-.042 3.479zM215.51 214.094h-3.485l.042.041v-3.479l-.042.037q1.743-.017 3.485-.042c-.016 1.162-.026 2.323-.042 3.484z"/><path fill="#D9D9D9" d="M208.584 217.583q.025-1.742.042-3.484l-.042.036h3.484l-.041-.041q.02 1.74.041 3.489zM218.953 217.536l-3.484.047q.02-1.748.041-3.489l-.041.041q1.742-.017 3.484-.041c-.016 1.161-.026 2.328-.042 3.489zM222.396 220.979l-3.484.047c.016-1.161.026-2.328.042-3.489l-.042.046q1.743-.024 3.484-.041-.02 1.742-.041 3.484z"/><path fill="#D9D9D9" d="M229.281 227.87q-1.743.017-3.485.042v-3.443h-3.442q.02-1.741.041-3.49l-.041.047h3.442v-3.484h3.485v3.442h3.442q-.001 1.743.006 3.485h-3.485v3.443zM205.141 214.135v-3.479q1.742.017 3.484.042l-.042-.042v3.479l.042-.036c-1.161.01-2.323.026-3.484.036"/><path fill="#D9D9D9" d="M232.723 231.313q-1.743.017-3.479.041c.011-1.161.026-2.323.037-3.484l-.037.042q1.736-.025 3.479-.042c-.01 1.161-.026 2.323-.036 3.484zM236.167 234.755c-1.162.016-2.323.026-3.479.042.01-1.162.026-2.323.036-3.485l-.036.042c1.156-.015 2.317-.026 3.479-.042-.011 1.162-.026 2.323-.037 3.485zM236.173 238.24c0-1.162-.006-2.323-.006-3.485l-.036.042c1.156-.016 2.318-.026 3.479-.042-.01 1.162-.026 2.323-.036 3.485l.036-.042h-3.479zM236.167 241.641c-1.162.015-2.323.026-3.479.041v-3.484c1.161.016 2.322.026 3.484.042l-.042-.042v3.484zM239.568 241.646q.025 1.736.042 3.479h-3.479c.01-1.161.026-2.323.036-3.484l-.036.041h3.479z"/><path fill="#D9D9D9" d="M243.053 241.641q-1.743-.001-3.485.005l.042.036v-3.484l-.036.042c1.161-.016 2.317-.026 3.479-.042-.011 1.161-.026 2.323-.037 3.484z"/><path fill="#D9D9D9" d="M246.453 241.646q.025 1.736.042 3.479h-3.479c.01-1.161.026-2.323.036-3.484l-.036.041h3.479zM256.828 241.641h-3.484l.041.041q-.02-1.742-.041-3.484c1.161.016 2.323.026 3.484.042l-.042-.042v3.484z"/><path fill="#D9D9D9" d="M249.9 245.125c.016-1.161.026-2.323.042-3.479l-.042.036h3.485l-.042-.041q.017 1.742.042 3.484zM260.23 241.646q.017 1.736.041 3.479h-3.484q.017-1.742.042-3.484l-.042.041h3.484z"/><path fill="#D9D9D9" d="M249.943 241.646h-3.49l.042.036a798 798 0 0 0-.042-3.479h3.49a666 666 0 0 0-.042 3.479zM198.256 196.88q1.742.025 3.484.042l-.041-.042v3.485l.041-.042c-1.161.016-2.323.026-3.484.042z"/><path fill="#D9D9D9" d="M205.182 203.766c-1.162.015-2.323.026-3.485.041.016-1.161.026-2.323.042-3.484l-.042.042c1.162-.016 2.323-.026 3.485-.042-.016 1.161-.026 2.323-.042 3.484zM208.625 207.208q-1.742.026-3.484.042c.015-1.161.026-2.323.041-3.484l-.041.041q1.742-.017 3.484-.041c-.016 1.161-.026 2.323-.042 3.484zM208.626 210.698v-3.49l-.042.042c1.161-.01 2.323-.026 3.484-.036-.01 1.161-.026 2.317-.041 3.479l.041-.037h-3.484zM198.256 189.995q1.742.024 3.484.042l-.041-.042v3.484l.041-.041q-1.742.017-3.484.041z"/><path fill="#D9D9D9" d="M201.739 196.922v-3.484l-.042.041h3.485l-.042-.041c.016 1.161.026 2.322.042 3.484a810 810 0 0 1-3.485-.042zM201.739 190.037c-.016-1.162-.026-2.323-.042-3.485h3.485q-.025 1.743-.042 3.485l.042-.042h-3.485zM212.068 186.552q-.02 1.743-.041 3.485l.041-.042h-3.484l.042.042a810 810 0 0 0-.042-3.485z"/><path fill="#D9D9D9" d="M205.141 190.037h3.484l-.042-.042c.016 1.161.026 2.323.042 3.484q-1.742-.017-3.484-.041l.041.041v-3.484zM215.51 190.037q-.017-1.743-.041-3.485h3.484c-.016 1.162-.026 2.323-.042 3.485l.042-.042h-3.484zM222.396 189.995q-.02 1.742-.041 3.484l.041-.041q-1.741.02-3.484.041c.016-1.161.026-2.323.042-3.484l-.042.042c1.162-.016 2.323-.027 3.484-.042"/><path fill="#D9D9D9" d="M212.025 190.037h3.485l-.042-.042q.025 1.742.042 3.484h-3.485c.016-1.161.026-2.323.042-3.484zM225.838 196.922c-1.162-.016-2.323-.026-3.479-.042l.036.042v-3.484l-.041.041c1.161-.015 2.322-.026 3.484-.041z"/><path fill="#D9D9D9" d="M222.36 196.88q-.006 1.743-.005 3.485l.041-.042c-1.161.016-2.322.026-3.484.042q-.001-1.743.005-3.485c1.157.016 2.318.026 3.479.042z"/><path fill="#D9D9D9" d="M225.838 200.323c-.016 1.161-.026 2.323-.042 3.484l.042-.041q-1.743.024-3.484.041.02-1.742.041-3.484l-.041.042c1.161-.016 2.322-.026 3.484-.042M229.281 203.771q-.02 1.736-.041 3.479l.041-.036c-1.161.01-2.323.026-3.484.036.016-1.161.026-2.323.042-3.484l-.042.041c1.161-.01 2.323-.026 3.484-.036"/><path fill="#D9D9D9" d="M232.725 207.214a819 819 0 0 1-.042 3.479l.042-.037c-1.162.011-2.323.026-3.485.037q.025-1.744.042-3.479l-.042.036c1.162-.01 2.323-.026 3.485-.036M239.61 207.214q-.017 1.735-.042 3.479l.042-.037h-3.479l.042.037q-.025-1.744-.042-3.479z"/><path fill="#D9D9D9" d="M232.682 210.693h3.489l-.041-.037c.01 1.162.026 2.318.041 3.479h-3.489c.015-1.161.031-2.317.041-3.479zM243.053 210.656a805 805 0 0 1-.042 3.479l.042-.036c-1.162.01-2.323.026-3.485.036.016-1.161.032-2.317.042-3.479l-.042.037c1.162-.011 2.323-.026 3.485-.037"/><path fill="#D9D9D9" d="M246.494 214.099q-.017 1.744-.042 3.479l.042-.036c-1.161.01-2.323.026-3.484.036q.024-1.735.041-3.479l-.041.037c1.161-.011 2.323-.026 3.484-.037M253.385 214.099l-.047 3.479.047-.036H249.9l.042.036c-.016-1.156-.026-2.317-.042-3.479z"/><path fill="#D9D9D9" d="M246.453 217.578h3.49l-.042-.036v3.484l.042-.042c-1.167.011-2.328.026-3.49.037q.025-1.736.042-3.479zM256.827 221.026l-3.484-.047.042.047v-3.484l-.047.036c1.161-.01 2.328-.026 3.489-.036z"/><path fill="#D9D9D9" d="M253.385 224.469a810 810 0 0 0-3.485-.042l.042.042v-3.485l-.042.042h3.485l-.042-.047q.017 1.749.042 3.49"/><path fill="#D9D9D9" d="M249.901 224.427q.001 1.743-.005 3.485l.047-.042c-1.167.016-2.328.026-3.49.042q.006-1.743.005-3.485 1.743.017 3.485.042z"/><path fill="#D9D9D9" d="m253.386 227.87-.047 3.484.047-.041q-1.74.02-3.49.041l.047-3.484-.047.042c1.162-.016 2.323-.027 3.49-.042"/><path fill="#D9D9D9" d="m256.827 231.312-.046 3.485.046-.042q-1.741.025-3.484.042c.016-1.162.026-2.323.042-3.485l-.047.042c1.161-.015 2.328-.026 3.489-.042"/><path fill="#D9D9D9" d="M260.271 234.755a810 810 0 0 0-.042 3.485l.042-.042h-3.485l.042.042v-3.485l-.047.042c1.167-.016 2.328-.026 3.49-.042M267.156 234.755q-.024 1.743-.041 3.485l.041-.042h-3.484l.042.042c-.016-1.162-.026-2.323-.042-3.485z"/><path fill="#D9D9D9" d="M263.713 241.641q-1.743-.001-3.484.005l.041.036v-3.484l-.041.042h3.484l-.042-.042v3.484zM270.6 241.682c-1.162-.015-2.323-.026-3.485-.041l.042.041v-3.484l-.042.042c1.162-.016 2.323-.026 3.485-.042zM263.672 245.125c.016-1.161.026-2.323.042-3.484l-.042.041h3.484l-.041-.041q.02 1.742.041 3.484zM212.025 207.25q.026-1.743.042-3.479l-.042.036h3.485l-.042-.041v3.484l.042-.042q-1.743.026-3.485.042"/><path fill="#D9D9D9" d="M218.953 210.651q-1.742.025-3.484.042.02-1.742.041-3.485l-.041.042h3.484l-.042-.036v3.479zM222.396 214.094q-1.741.024-3.484.041c.016-1.161.026-2.322.042-3.484l-.042.042h3.484l-.041-.037v3.479z"/><path fill="#D9D9D9" d="M225.796 214.099c.016 1.161.026 2.323.042 3.484h-3.484q.02-1.748.041-3.489l-.041.041h3.484zM229.281 210.656v3.479c-1.161-.01-2.323-.026-3.484-.036l.042.036v-3.479l-.037.042q1.736-.025 3.479-.042"/><path fill="#D9D9D9" d="M232.723 214.099v3.484h-3.479v-3.484z"/><path fill="#D9D9D9" d="M232.688 217.542q1.735.02 3.479.041l-.037-.041v3.484l.037-.047-3.479.047z"/><path fill="#D9D9D9" d="M236.173 224.469c0-1.162-.006-2.323-.006-3.49l-.036.047h3.479l-.036-.042v3.485l.036-.042h-3.479zM236.167 227.87q-1.744.017-3.479.042v-3.485c1.161.016 2.322.026 3.484.042l-.042-.042v3.485z"/><path fill="#D9D9D9" d="M239.61 231.313c-1.161.01-2.318.026-3.479.041.01-1.161.026-2.323.036-3.484l-.036.042h3.479l-.036-.042v3.484z"/><path fill="#D9D9D9" d="M243.051 234.755c-1.161.016-2.317.026-3.479.042.011-1.162.026-2.323.037-3.485l-.037.042h3.479l-.036-.042v3.485zM246.453 234.755q.025 1.743.042 3.485h-3.479c.01-1.162.026-2.323.036-3.485l-.036.042h3.479zM249.9 234.755h3.485v3.485H249.9z"/><path fill="#D9D9D9" d="M249.938 231.312v3.485c-1.162-.016-2.323-.026-3.485-.042l.042.042v-3.485l-.037.042q1.744-.017 3.48-.042M205.141 196.88q1.742.025 3.484.042l-.042-.042v3.485l.042-.042c-1.161.016-2.323.026-3.484.042zM212.068 203.771c-1.161.01-2.323.026-3.484.036.016-1.161.026-2.323.042-3.484l-.042.042h3.484l-.041-.042v3.484zM212.068 193.438q-.02 1.741-.041 3.484l.041-.042h-3.484l.042.042c-.016-1.162-.026-2.323-.042-3.484zM218.953 196.922h-3.484v-3.484h3.484z"/><path fill="#D9D9D9" d="M215.51 196.88c-.016 1.162-.026 2.323-.042 3.485l.042-.042h-3.485l.042.042v-3.485l-.042.042c1.162-.016 2.323-.026 3.485-.042M218.953 200.323c-.016 1.161-.026 2.323-.042 3.484l.042-.041h-3.484l.041.041v-3.484l-.041.042c1.161-.016 2.323-.026 3.484-.042M222.396 203.771q-.02 1.736-.041 3.479l.041-.036h-3.484l.042.036v-3.484l-.042.041c1.162-.01 2.323-.026 3.484-.036"/><path fill="#D9D9D9" d="M225.838 207.214c-.011 1.161-.026 2.323-.037 3.484l.037-.042h-3.484l.041.037v-3.479l-.041.036c1.161-.01 2.322-.026 3.484-.036M239.61 214.099q-.017 1.744-.042 3.479l.042-.036h-3.479l.036.041c-.01-1.161-.026-2.322-.036-3.484z"/><path fill="#D9D9D9" d="M243.053 217.542a809 809 0 0 1-.042 3.484l.042-.042h-3.479l.036.042v-3.484l-.042.036c1.162-.01 2.323-.026 3.485-.036"/><path fill="#D9D9D9" d="M246.494 224.469a798 798 0 0 0-3.479-.042l.036.042v-3.485l-.041.042q1.742-.025 3.484-.042z"/><path fill="#D9D9D9" d="M243.015 224.427c0 1.162-.005 2.323-.005 3.485l.041-.042h-3.479l.037.042v-3.485l-.037.042h3.479z"/><path fill="#D9D9D9" d="M246.494 227.87c-.01 1.161-.026 2.323-.036 3.484l.036-.041h-3.479l.036.041v-3.484l-.041.042c1.161-.016 2.323-.027 3.484-.042"/></g></svg>